<svg height="511pt" viewBox="-15 0 511 511.99754" width="511pt" xmlns="http://www.w3.org/2000/svg"><path d="m360.222656 192.089844-132.542968 30.472656-9.402344-67.558594c6.4375-30.351562-5.445313-80.730468-26.492188-111.707031-8.207031-12.078125-3.136718-28.625 10.492188-33.855469l.785156-.304687c11.800781-4.53125 25.046875 1.511719 29.3125 13.417969 3.980469 11.121093 8.542969 25.890624 11.84375 42.597656" fill="#936a60"/><path d="m438.023438 340.671875c-.164063.652344-.335938 1.289063-.5 1.941406-.007813.03125-.019532.058594-.027344.089844-22.253906 85.289063-80.832032 161.679687-146.535156 161.679687-10.109376 0-19.707032-1.9375-28.808594-5.515624-12.542969-4.933594-25.828125-7.089844-39.03125-6.46875-10.230469.488281-20.40625 2.628906-30.148438 6.46875-9.097656 3.578124-18.699218 5.515624-28.804687 5.515624-128.304688 0-229.445313-291.324218-86.039063-371.332031 69.644532-38.859375 128.304688 24.46875 149.429688 24.46875 21.136718 0 79.785156-63.328125 149.441406-24.46875 69.382812 38.710938 81.519531 126.902344 61.023438 207.621094zm0 0" fill="#ff694f"/><path d="m438.023438 340.671875c6.207031-31.597656-98.746094-3.492187-153.980469-60.21875-56.363281-57.886719-85.308594-124.921875-143.203125-94.453125-57.898438 30.472656-12.464844 298.667969 82.28125 306.398438-10.230469.488281-20.40625 2.628906-30.148438 6.46875-9.097656 3.578124-18.699218 5.515624-28.804687 5.515624-128.304688 0-229.445313-291.324218-86.039063-371.332031 69.644532-38.859375 128.304688 24.46875 149.429688 24.46875 21.136718 0 79.785156-63.328125 149.441406-24.46875 69.382812 38.710938 81.519531 126.902344 61.023438 207.621094zm0 0" fill="#ed2867"/><path d="m244.578125 63.9375c-18.105469 60.496094-3.273437 128.746094 44.507813 176.527344s116.03125 62.613281 176.523437 44.507812c18.105469-60.496094 3.273437-128.746094-44.507813-176.527344s-116.03125-62.613281-176.523437-44.507812zm0 0" fill="#67c1b0"/><path d="m426.488281 103.058594c-20.804687-20.804688-46.519531-36.507813-74.359375-45.40625-4.003906-1.28125-8.292968.929687-9.574218 4.9375-1.28125 4.007812.929687 8.292968 4.9375 9.574218 25.898437 8.28125 48.851562 22.300782 68.222656 41.667969 43.253906 43.253907 59.820312 106.121094 43.734375 164.980469-58.859375 16.082031-121.726563-.484375-164.976563-43.738281-43.253906-43.25-59.816406-106.121094-43.738281-164.976563 23.105469-6.292968 47.695313-7.660156 71.386719-3.9375 4.15625.652344 8.054687-2.191406 8.710937-6.347656.652344-4.15625-2.1875-8.050781-6.34375-8.707031-24.785156-3.890625-50.464843-2.65625-74.753906 3.519531-2.664063-11.515625-6.070313-23.128906-10.191406-34.640625-2.753907-7.691406-8.367188-13.804687-15.800781-17.214844-7.449219-3.417969-15.765626-3.683593-23.449219-.734375l-.746094.292969c-8.640625 3.316406-15.179687 10.277344-17.945313 19.101563-2.785156 8.886718-1.371093 18.414062 3.882813 26.144531 17.578125 25.878906 28.695313 67.136719 26.679687 95.855469-2.269531-1.234376-4.613281-2.550782-6.941406-3.855469-28.789062-16.160157-76.976562-43.210938-130.808594-13.175781-33.316406 18.585937-56.554687 49.753906-67.199218 90.128906-16.625 63.042968-1.773438 145.878906 37.835937 211.027344 1.433594 2.359374 3.941407 3.660156 6.515625 3.660156 1.347656 0 2.714844-.355469 3.949219-1.105469 3.597656-2.1875 4.738281-6.875 2.550781-10.46875-17.796875-29.28125-30.742187-63.207031-37.429687-98.117187-6.980469-36.425782-6.527344-71.390626 1.308593-101.109376 9.703126-36.796874 29.855469-63.953124 59.894532-80.710937 46.382812-25.882813 88.234375-2.386719 115.929687 13.15625 12.695313 7.128906 21.871094 12.277344 29.789063 12.277344 2.5 0 5.214844-.523438 8.40625-1.617188 8.3125 30.582031 24.46875 59.0625 47.734375 82.324219 35.25 35.253906 82.453125 54.238281 130.84375 54.234375 7.773437 0 15.582031-.488281 23.378906-1.480469-5.027344 47.085938-22.488281 95.0625-48.585937 132.980469-28.933594 42.035156-63.871094 65.183594-98.375 65.183594-8.84375 0-17.597657-1.675781-26.019532-4.984375-24.101562-9.480469-50.648437-9.484375-74.75-.003906-8.425781 3.3125-17.179687 4.988281-26.023437 4.988281-31.332031 0-63.6875-19.601563-91.105469-55.195313-2.5625-3.332031-7.347656-3.957031-10.683594-1.386718-3.332031 2.566406-3.953125 7.347656-1.386718 10.683593 30.367187 39.421875 67.011718 61.132813 103.175781 61.132813 10.757812 0 21.386719-2.03125 31.59375-6.042969 20.507812-8.066406 43.097656-8.066406 63.605469.003906 10.207031 4.007813 20.835937 6.039063 31.59375 6.039063 39.671874 0 79.066406-25.492188 110.925781-71.78125 28.285156-41.09375 46.933593-93.367188 51.605469-144.285156 4.789062-1.027344 9.558593-2.242188 14.304687-3.664063 2.457031-.734375 4.375-2.65625 5.113281-5.113281 19.558594-65.355469 1.773438-135.898438-46.421875-184.09375zm-198.929687 46.84375c-.21875 0-.464844-.019532-.71875-.054688 4.039062-32.523437-8.128906-80.480468-28.75-110.832031-2.625-3.859375-3.332032-8.609375-1.945313-13.027344 1.363281-4.355469 4.59375-7.796875 8.902344-9.449219l.746094-.289062c3.789062-1.453125 7.910156-1.324219 11.601562.371094 3.675781 1.683594 6.449219 4.707031 7.808594 8.5 4.742187 13.25 8.496094 26.628906 11.1875 39.800781-7.769531 27.726563-8.894531 56.300781-3.851563 83.640625-2.652343 1.058594-4.148437 1.339844-4.980468 1.339844zm0 0"/><path d="m421.785156 231.570312c1.738282 0 3.492188-.59375 4.921875-1.808593 3.207031-2.71875 3.605469-7.527344.882813-10.734375-71.902344-84.777344-156.703125-139.609375-157.550782-140.152344-3.542968-2.269531-8.253906-1.238281-10.523437 2.300781-2.273437 3.539063-1.242187 8.25 2.296875 10.523438.832031.53125 83.789062 54.210937 154.160156 137.179687 1.503906 1.777344 3.652344 2.691406 5.8125 2.691406zm0 0"/><path d="m310.25 148.007812c-4.152344.675782-6.972656 4.585938-6.300781 8.742188l9.140625 56.367188c.609375 3.738281 3.839844 6.398437 7.511718 6.398437.40625 0 .816407-.03125 1.230469-.101563 4.152344-.671874 6.972657-4.582031 6.296875-8.738281l-9.136718-56.367187c-.675782-4.152344-4.582032-6.972656-8.742188-6.300782zm0 0"/><path d="m368.058594 204.390625c-4.148438.722656-6.921875 4.667969-6.203125 8.8125l6.097656 35.039063c.640625 3.703124 3.859375 6.3125 7.496094 6.3125.433593 0 .871093-.035157 1.3125-.113282 4.144531-.71875 6.917969-4.664062 6.199219-8.808594l-6.09375-35.042968c-.71875-4.144532-4.667969-6.917969-8.808594-6.199219zm0 0"/><path d="m346.511719 122.011719h35.039062c4.207031 0 7.617188-3.410157 7.617188-7.617188s-3.410157-7.617187-7.617188-7.617187h-35.039062c-4.210938 0-7.621094 3.410156-7.621094 7.617187s3.410156 7.617188 7.621094 7.617188zm0 0"/><path d="m433.347656 160.097656c0-4.207031-3.410156-7.617187-7.617187-7.617187h-30.46875c-4.207031 0-7.617188 3.410156-7.617188 7.617187 0 4.207032 3.410157 7.617188 7.617188 7.617188h30.46875c4.207031 0 7.617187-3.410156 7.617187-7.617188zm0 0"/></svg>