<?xml version="1.0" encoding="UTF-8" standalone="no"?>
<!-- Created with Inkscape (http://www.inkscape.org/) -->

<svg
   xmlns:dc="http://purl.org/dc/elements/1.1/"
   xmlns:cc="http://creativecommons.org/ns#"
   xmlns:rdf="http://www.w3.org/1999/02/22-rdf-syntax-ns#"
   xmlns:svg="http://www.w3.org/2000/svg"
   xmlns="http://www.w3.org/2000/svg"
   xmlns:sodipodi="http://sodipodi.sourceforge.net/DTD/sodipodi-0.dtd"
   xmlns:inkscape="http://www.inkscape.org/namespaces/inkscape"
   width="150"
   height="150"
   viewBox="0 0 39.687499 39.687501"
   version="1.1"
   id="svg7584"
   inkscape:version="0.92.3 (2405546, 2018-03-11)"
   sodipodi:docname="beef.svg">
  <defs
     id="defs7578" />
  <sodipodi:namedview
     id="base"
     pagecolor="#ffffff"
     bordercolor="#666666"
     borderopacity="1.0"
     inkscape:pageopacity="0.0"
     inkscape:pageshadow="2"
     inkscape:zoom="2.8"
     inkscape:cx="43.068594"
     inkscape:cy="111.86516"
     inkscape:document-units="mm"
     inkscape:current-layer="layer1"
     showgrid="false"
     units="px"
     inkscape:window-width="1853"
     inkscape:window-height="1025"
     inkscape:window-x="67"
     inkscape:window-y="27"
     inkscape:window-maximized="1" />
  <metadata
     id="metadata7581">
    <rdf:RDF>
      <cc:Work
         rdf:about="">
        <dc:format>image/svg+xml</dc:format>
        <dc:type
           rdf:resource="http://purl.org/dc/dcmitype/StillImage" />
        <dc:title></dc:title>
      </cc:Work>
    </rdf:RDF>
  </metadata>
  <g
     inkscape:label="Calque 1"
     inkscape:groupmode="layer"
     id="layer1"
     transform="translate(0,-257.31248)">
    <g
       transform="matrix(0.07425888,0,0,0.07425888,0.92796771,258.146)"
       id="g6927">
      <path
         inkscape:connector-curvature="0"
         style="fill:#e5e5e5"
         d="m 169.003,32.476 c 0.025,2.085 -0.286,4.153 -0.925,6.137 l -25.893,82.891 H 99.563 l 29.592,-94.997 c 3.38,-10.744 14.83,-16.713 25.574,-13.333 8.448,2.656 14.207,10.458 14.274,19.302 z"
         id="path6921" />
      <path
         inkscape:connector-curvature="0"
         style="fill:#e5e5e5"
         d="m 282.915,32.56 c -0.017,2.051 -0.328,4.086 -0.925,6.053 l -25.893,82.891 H 213.39 l 29.676,-94.997 c 3.38,-10.744 14.838,-16.713 25.582,-13.325 8.467,2.665 14.242,10.5 14.267,19.378 z"
         id="path6923" />
      <path
         inkscape:connector-curvature="0"
         style="fill:#e5e5e5"
         d="m 404.394,32.476 c 0.025,2.085 -0.286,4.153 -0.925,6.137 l -25.893,82.891 h -42.623 l 29.592,-94.997 c 3.38,-10.744 14.83,-16.713 25.574,-13.333 8.449,2.656 14.207,10.458 14.275,19.302 z"
         id="path6925" />
    </g>
    <path
       inkscape:connector-curvature="0"
       style="fill:#f57b78;stroke-width:0.07425889"
       d="m 20.482337,267.16875 h 4.138968 l -4.744474,13.22224 c -0.993213,2.7712 -1.110616,5.78084 -0.337135,8.62132 l 0.0062,0.0249 c 0.437607,1.60756 1.400226,3.02279 2.734361,4.02038 l 1.104972,0.83029 c 1.187994,0.89208 2.634483,1.37468 4.120255,1.37343 h -8.471453 c -1.485772,0.001 -2.932261,-0.48135 -4.120254,-1.37343 l -1.104968,-0.83028 c -1.334061,-0.99759 -2.296753,-2.41282 -2.734361,-4.02038 l -0.0062,-0.0249 c -0.77348,-2.84048 -0.656151,-5.85012 0.337136,-8.62132 l 4.744549,-13.22224 c -7.4e-5,0 4.332413,0 4.332413,0 z"
       id="path6929" />
    <g
       transform="matrix(0.07425888,0,0,0.07425888,0.92796771,258.146)"
       id="g6935">
      <path
         inkscape:connector-curvature="0"
         style="fill:#d32144"
         d="m 387.748,262.57 c 1.059,2.354 1.606,4.901 1.597,7.482 -0.034,5.17 -2.085,10.113 -5.717,13.787 -3.657,3.716 -8.659,5.801 -13.871,5.801 h -43.295 c -4.741,0 -9.315,-1.74 -12.862,-4.876 l -3.615,-3.111 c -5.986,-5.313 -8.146,-13.728 -5.464,-21.269 l 35.309,-98.36 c 1.934,-5.414 7.894,-8.23 13.308,-6.297 3.312,1.185 5.801,3.968 6.616,7.39 l 13.451,56.578 c 3.53,14.704 8.398,29.063 14.543,42.875 z"
         id="path6931" />
      <path
         inkscape:connector-curvature="0"
         style="fill:#d32144"
         d="m 469.631,393.801 v 10.256 c -0.017,17.587 -7.465,34.359 -20.513,46.153 l -0.925,0.841 c -10.752,9.752 -24.75,15.141 -39.26,15.132 h -51.45 c -12.728,-0.008 -25.12,-4.145 -35.309,-11.77 l -14.88,-11.181 c -11.795,-8.743 -20.336,-21.168 -24.296,-35.309 -3.766,-13.417 -5.767,-27.263 -5.969,-41.193 0.092,-16.637 9.643,-31.778 24.632,-39.008 l 0.336,-0.168 c 5.691,-2.841 11.963,-4.304 18.327,-4.287 h 53.215 c 14.056,-0.008 28.028,2.118 41.446,6.305 l 8.323,2.606 c 10.113,3.195 19.201,9.029 26.313,16.898 l 4.792,5.296 c 9.77,10.82 15.184,24.86 15.218,39.429 z"
         id="path6933" />
    </g>
    <path
       inkscape:connector-curvature="0"
       style="fill:#ff5750;stroke-width:0.07425889"
       d="m 38.3243,287.38923 v 0.76783 c 5.61e-4,2.01019 -0.849672,3.92674 -2.341088,5.2752 l -0.06868,0.0562 c -1.2598,1.14239 -2.900403,1.7742 -4.600932,1.77293 h -3.808145 c -1.485772,10e-4 -2.932261,-0.48135 -4.120254,-1.37341 l -1.104973,-0.83029 c -1.334061,-0.9976 -2.296752,-2.41283 -2.73436,-4.02039 l -0.0062,-0.0249 c -0.773481,-2.84048 -0.656151,-5.85011 0.337135,-8.6213 l 4.744549,-13.22225 h 4.881857 l 1.598123,6.71724 c 0.604914,2.54642 1.841622,4.89938 3.595838,6.84214 l 1.860333,2.0601 c 1.136312,1.26351 1.765582,2.90225 1.766843,4.60093 z m -2.522056,0.7616 v -0.7616 c -0.0026,-1.08188 -0.405158,-2.12507 -1.129924,-2.92788 l -0.355848,-0.39327 c -0.528129,-0.58435 -1.202993,-1.01757 -1.953973,-1.25482 l -0.618058,-0.19354 c -0.99633,-0.31092 -2.033875,-0.46887 -3.077733,-0.46819 h -3.951687 c -0.472584,-10e-4 -0.938262,0.1074 -1.360944,0.31835 l -0.02495,0.0125 c -1.113066,0.53689 -1.822238,1.66124 -1.829144,2.89668 0.01499,1.03444 0.163592,2.06262 0.443251,3.05896 0.294065,1.05001 0.92831,1.97276 1.804194,2.622 l 1.104973,0.83029 c 0.756623,0.56623 1.676839,0.87336 2.622007,0.87403 h 3.820619 c 1.077498,5.6e-4 2.116899,-0.39951 2.915404,-1.12369 l 0.06868,-0.0624 c 0.968708,-0.87596 1.522457,-2.12077 1.523125,-3.42735 z m -5.96195,-9.95107 c 5.61e-4,-0.19166 -0.03994,-0.38079 -0.118589,-0.5556 -0.45632,-1.02633 -0.817812,-2.09195 -1.080022,-3.18385 l -0.998856,-4.20142 c -0.09861,-0.41518 -0.515653,-0.67175 -0.930835,-0.57245 -0.254113,0.0605 -0.460701,0.24534 -0.548773,0.49129 l -2.622007,7.30411 c -0.199161,0.55997 -0.03869,1.18486 0.405751,1.5794 l 0.268446,0.23102 c 0.263471,0.23288 0.603056,0.36209 0.955118,0.36209 h 3.21504 c 0.387034,0 0.758478,-0.15484 1.030043,-0.43077 0.269932,-0.27277 0.422831,-0.6399 0.424687,-1.02382 z"
       id="path6937" />
    <path
       inkscape:connector-curvature="0"
       style="fill:#ffa4a1;stroke-width:0.07425889"
       d="m 9.1960257,293.5577 c -1.4402511,-1.0856 -2.4796521,-2.61697 -2.9566178,-4.35626 -0.2940647,-1.05381 -0.468202,-2.13753 -0.5206281,-3.23003 l 1.2485887,-0.0624 c 0.046861,0.99261 0.2047311,1.97647 0.4707263,2.93412 0.4001815,1.48205 1.2816348,2.78931 2.50646,3.7151 l 1.1106162,0.83028 c 1.081285,0.80906 2.395369,1.24733 3.745693,1.24859 v 0.6243 h 4.233277 c -1.485772,0.001 -2.932261,-0.48135 -4.120255,-1.37342 l -1.104972,-0.8303 c -1.33406,-0.99759 -2.296753,-2.41282 -2.73436,-4.02038 l -0.0062,-0.0249 c -0.773482,-2.84049 -0.656154,-5.85012 0.337134,-8.62132 l 4.744549,-13.22224 H 7.1415108 l -4.7445495,13.22224 c -0.9932119,2.7712 -1.1106159,5.78083 -0.3371343,8.62132 l 0.00623,0.0249 c 0.4376082,1.60756 1.4002265,3.02279 2.7343619,4.02038 l 1.1049711,0.8303 c 1.187994,0.89207 2.6344829,1.37468 4.120255,1.37342 h 1.789193 c -0.535629,-0.23102 -1.041926,-0.52442 -1.508867,-0.87403 z"
       id="path6939" />
    <g
       transform="matrix(0.07425888,0,0,0.07425888,0.92796771,258.146)"
       id="g6951">
      <path
         inkscape:connector-curvature="0"
         style="fill:#d32144"
         d="m 186.825,499.81 v 0 -8.407 c -18.184,-0.017 -35.88,-5.918 -50.441,-16.814 L 121.42,463.408 C 104.926,450.949 93.047,433.354 87.65,413.396 84.069,400.5 81.942,387.251 81.311,373.884 l -16.814,0.841 c 0.706,14.712 3.052,29.306 7.011,43.497 6.423,23.421 20.42,44.043 39.815,58.663 l 14.964,11.156 c 6.288,4.708 13.106,8.659 20.319,11.77 z"
         id="path6941" />
      <rect
         x="54.646"
         y="249.36099"
         transform="matrix(-0.3369,0.9415,-0.9415,-0.3369,375.0834,251.3776)"
         style="fill:#d32144"
         width="88.755997"
         height="16.813"
         id="rect6943" />
      <polygon
         style="fill:#d32144"
         points="124.102,163.134 139.932,168.817 131.425,192.39 115.62,186.64 "
         id="polygon6945" />
      <path
         inkscape:connector-curvature="0"
         style="fill:#d32144"
         d="m 227.287,476.868 c -8.844,-6.583 -16.62,-14.477 -23.068,-23.421 l 13.636,-9.836 c 5.439,7.549 12.005,14.224 19.47,19.781 z"
         id="path6947" />
      <path
         inkscape:connector-curvature="0"
         style="fill:#d32144"
         d="m 187.313,417.995 c -10.954,-39.941 -9.306,-82.294 4.708,-121.268 l 15.83,5.666 c -12.846,35.695 -14.359,74.476 -4.338,111.062 l -8.029,2.522 z"
         id="path6949" />
    </g>
    <path
       inkscape:connector-curvature="0"
       d="m 35.160425,280.30924 c -1.683672,-1.86538 -2.871072,-4.12397 -3.453558,-6.56805 l -1.598127,-6.71664 c -0.04366,-0.17355 -0.160472,-0.31961 -0.320279,-0.40078 L 31.479636,261.21 c 0.06928,-0.21038 0.103657,-0.43077 0.102398,-0.65237 -0.005,-1.18115 -0.967001,-2.13442 -2.148088,-2.12943 -0.93143,0.005 -1.752954,0.61055 -2.031426,1.4989 l -2.063282,6.61736 h -4.54479 l 1.673052,-5.35629 c 0.06052,-0.20287 0.09238,-0.41265 0.09364,-0.62429 -5.89e-4,-1.18117 -0.958236,-2.13754 -2.139398,-2.13696 -0.934548,5.9e-4 -1.760455,0.60804 -2.039521,1.50018 l -2.066996,6.61736 h -3.979756 l 1.66622,-5.33446 c 0.06803,-0.21038 0.102399,-0.43077 0.100468,-0.65237 -0.005,-1.18115 -0.966925,-2.13442 -2.148086,-2.12943 -0.93143,0.005 -1.752955,0.61055 -2.0314272,1.4989 l -2.0632836,6.61736 H 7.1414228 c -0.2634709,0 -0.4982031,0.16545 -0.5874621,0.41325 l -4.7444749,13.22291 c -1.04251959,2.89914 -1.16363579,6.04987 -0.3458235,9.02082 0.4769657,1.74049 1.5188915,3.27252 2.9621877,4.35558 l 1.1043772,0.8303 c 1.2978976,0.97078 2.8741907,1.49639 4.4948158,1.49824 h 21.287946 c 1.844144,0.004 3.623983,-0.67858 4.994207,-1.91343 l 0.09178,-0.0761 c 1.62189,-1.46765 2.547675,-3.55216 2.54953,-5.73902 v -0.76784 c -0.0013,-1.8535 -0.687935,-3.64143 -1.92776,-5.01923 z m -6.566788,-20.00757 c 0.146733,-0.46947 0.646127,-0.73101 1.114998,-0.58434 0.368323,0.11486 0.620507,0.45446 0.624889,0.8403 0.0011,0.0918 -0.01185,0.18232 -0.03996,0.26972 l -1.786076,5.71719 h -1.857215 z m -9.020822,0 c 0.118589,-0.36893 0.460108,-0.62051 0.847146,-0.6243 0.491297,-10e-4 0.890883,0.39521 0.892739,0.88651 -0.0012,0.0892 -0.01499,0.17792 -0.04054,0.26347 l -1.785406,5.71719 h -1.863453 z m -8.459053,0 c 0.146735,-0.46947 0.646126,-0.73101 1.114998,-0.58434 0.368324,0.11486 0.620507,0.45446 0.624887,0.8403 0.0012,0.0918 -0.01185,0.18232 -0.03996,0.26972 l -1.786075,5.71719 H 9.1704065 Z m 3.687623,34.33545 c -1.350324,-10e-4 -2.66441,-0.43946 -3.745693,-1.24859 l -1.1112102,-0.83028 c -1.2248267,-0.9252 -2.1069485,-2.23178 -2.5077238,-3.71384 -0.2659207,-0.95765 -0.4238686,-1.94149 -0.4707263,-2.93413 l -1.2485887,0.0625 c 0.052421,1.0925 0.226638,2.17623 0.5206293,3.23003 0.4769645,1.73923 1.5163655,3.2706 2.9566178,4.35625 L 10.3059,294.3875 c 0.117331,0.088 0.240376,0.16916 0.36268,0.24973 h -0.643008 c -1.3503234,-10e-4 -2.6644093,-0.43946 -3.7456923,-1.24859 l -1.1048978,-0.83103 c -1.226683,-0.92207 -2.1106608,-2.22747 -2.5121034,-3.70885 -0.7447427,-2.71625 -0.6317952,-5.59668 0.3227289,-8.24675 l 4.5953614,-12.80903 h 7.6786672 l -4.44484,12.38764 c -1.0419272,2.89981 -1.1623752,6.04987 -0.345229,9.02082 0.476964,1.73989 1.518891,3.27252 2.961592,4.35558 l 1.108092,0.8303 c 0.118002,0.088 0.24097,0.16915 0.363348,0.24973 h -0.101213 z m 4.232682,0 c -1.350324,-10e-4 -2.664409,-0.43946 -3.745693,-1.24859 l -1.105566,-0.83088 c -1.227945,-0.92141 -2.113185,-2.2268 -2.515223,-3.70886 -0.744149,-2.71625 -0.631795,-5.59668 0.322135,-8.24674 l 4.59967,-12.809 h 7.144894 l -4.44484,12.38757 c -1.042521,2.89914 -1.163638,6.04987 -0.345825,9.02082 0.476966,1.74049 1.518891,3.27252 2.962187,4.35558 l 1.104378,0.8303 c 0.117331,0.088 0.240377,0.16915 0.362682,0.24973 z m 18.665936,-6.48006 c 0.002,1.82418 -0.764718,3.56466 -2.111922,4.79446 l -0.09238,0.0767 c -1.145518,1.03755 -2.63634,1.61068 -4.182038,1.60875 h -3.808144 c -1.350324,-0.001 -2.664409,-0.43947 -3.745693,-1.24859 l -1.104972,-0.83088 c -1.226683,-0.92208 -2.110661,-2.22748 -2.512104,-3.70886 -0.744743,-2.71625 -0.631794,-5.59668 0.322729,-8.24675 l 4.595363,-12.80899 h 3.949163 l 1.483916,6.23715 c 0.630529,2.64822 1.916547,5.09535 3.740048,7.11683 l 1.858476,2.06008 c 1.033832,1.14805 1.606296,2.6376 1.607556,4.18271 z"
       id="path6953"
       style="stroke-width:0.07425889" />
    <rect
       style="stroke-width:0.07425658"
       x="254.95975"
       y="-101.92616"
       transform="rotate(109.70701)"
       width="6.5907164"
       height="1.2484759"
       id="rect6955" />
    <polygon
       transform="matrix(0.07425888,0,0,0.07425888,0.92796771,258.146)"
       points="115.62,186.64 131.425,192.39 139.932,168.817 124.102,163.134 "
       id="polygon6957" />
    <path
       inkscape:connector-curvature="0"
       d="m 17.105637,291.08807 -1.012594,0.7304 c 0.478822,0.66425 1.056259,1.25045 1.713004,1.73923 l 0.745411,-0.99887 c -0.554342,-0.41324 -1.041926,-0.90951 -1.445821,-1.47076 z"
       id="path6959"
       style="stroke-width:0.07425889" />
    <path
       inkscape:connector-curvature="0"
       d="m 16.362752,280.60137 -1.175518,-0.42075 c -1.040665,2.89417 -1.163043,6.03926 -0.349612,9.00523 l 0.60677,-0.1486 0.596225,-0.18727 c -0.744149,-2.71684 -0.631795,-5.59787 0.322135,-8.24861 z"
       id="path6961"
       style="stroke-width:0.07425889" />
    <path
       inkscape:connector-curvature="0"
       d="m 34.779624,283.64977 c -0.603648,-0.66795 -1.373416,-1.16304 -2.231182,-1.43586 l -0.618056,-0.19292 c -1.056927,-0.32897 -2.156923,-0.49568 -3.263754,-0.49383 h -3.951686 c -0.578105,-10e-4 -1.148042,0.13486 -1.663696,0.39639 -1.325967,0.64554 -2.169399,1.98895 -2.175637,3.46351 0.01559,1.08753 0.172281,2.16814 0.465677,3.21563 0.332086,1.18243 1.046308,2.22183 2.030758,2.95595 l 1.106829,0.83089 c 0.864002,0.64983 1.915954,1.00011 2.996568,0.99885 h 3.820623 c 1.233585,0.001 2.423437,-0.45758 3.336746,-1.28727 l 0.06557,-0.0624 c 1.099996,-0.99448 1.728003,-2.40785 1.729267,-3.8905 v -0.75916 c -0.002,-1.2367 -0.461964,-2.42908 -1.290991,-3.34676 z m 0.398325,4.50165 c -0.0013,1.13119 -0.480678,2.20869 -1.320321,2.96658 l -0.06617,0.0624 c -0.683553,0.6199 -1.573844,0.96328 -2.497103,0.96202 h -3.819951 c -0.810314,5.6e-4 -1.599388,-0.26222 -2.247372,-0.74913 l -1.10497,-0.83025 c -0.764719,-0.56934 -1.319134,-1.37594 -1.576962,-2.29363 -0.264659,-0.94391 -0.406419,-1.91841 -0.420751,-2.89855 0.01315,-1.00569 0.599343,-1.91655 1.508867,-2.34539 0.335873,-0.16671 0.706722,-0.25218 1.081878,-0.24974 h 3.951685 c 0.98074,-0.001 1.955238,0.14607 2.891643,0.43703 l 0.614937,0.19292 c 0.645534,0.20473 1.225494,0.57684 1.679959,1.07875 l 0.354587,0.39202 c 0.623626,0.6886 0.968857,1.58379 0.970116,2.5127 v 0.76226 z"
       id="path6963"
       style="stroke-width:0.07425889" />
    <path
       inkscape:connector-curvature="0"
       d="m 23.802898,279.76113 c 0.377681,0.33276 0.864003,0.51692 1.367774,0.51752 h 3.215038 c 1.146783,-0.004 2.075091,-0.93202 2.07888,-2.07889 5.61e-4,-0.27965 -0.05807,-0.55619 -0.172282,-0.81157 -0.440726,-0.99135 -0.789742,-2.02081 -1.043187,-3.07521 l -0.99886,-4.19703 c -0.147328,-0.63239 -0.713551,-1.07877 -1.362797,-1.07438 -0.587462,0.005 -1.109947,0.3733 -1.310966,0.92519 l -2.622007,7.30411 c -0.28716,0.80281 -0.05495,1.69992 0.5862,2.26177 z m 0.326517,-2.06885 2.622007,-7.29905 c 0.01938,-0.0594 0.07366,-0.10057 0.136117,-0.10301 0.07054,-0.004 0.132328,0.045 0.147923,0.11364 l 0.998857,4.20201 c 0.27097,1.12992 0.644864,2.23244 1.117448,3.29369 0.04181,0.0949 0.06305,0.19663 0.06245,0.30029 -0.0037,0.221 -0.09305,0.43138 -0.249731,0.58747 -0.152974,0.15483 -0.361493,0.24222 -0.578701,0.24282 h -3.215039 c -0.202281,-5.6e-4 -0.397062,-0.0763 -0.547511,-0.21104 l -0.261539,-0.22471 c -0.254782,-0.22478 -0.346491,-0.58189 -0.232282,-0.9021 z"
       id="path6965"
       style="stroke-width:0.07425889" />
  </g>
</svg>
