<?xml version="1.0" encoding="UTF-8" standalone="no"?>
<!-- Created with Inkscape (http://www.inkscape.org/) -->

<svg
   xmlns:dc="http://purl.org/dc/elements/1.1/"
   xmlns:cc="http://creativecommons.org/ns#"
   xmlns:rdf="http://www.w3.org/1999/02/22-rdf-syntax-ns#"
   xmlns:svg="http://www.w3.org/2000/svg"
   xmlns="http://www.w3.org/2000/svg"
   xmlns:sodipodi="http://sodipodi.sourceforge.net/DTD/sodipodi-0.dtd"
   xmlns:inkscape="http://www.inkscape.org/namespaces/inkscape"
   width="720"
   height="800"
   viewBox="0 0 190.50005 211.66668"
   version="1.1"
   id="svg8"
   sodipodi:docname="bikeJump.svg"
   inkscape:version="0.92.3 (2405546, 2018-03-11)">
  <defs
     id="defs2" />
  <sodipodi:namedview
     id="base"
     pagecolor="#ffffff"
     bordercolor="#666666"
     borderopacity="1.0"
     inkscape:pageopacity="0.0"
     inkscape:pageshadow="2"
     inkscape:zoom="0.98994949"
     inkscape:cx="431.21839"
     inkscape:cy="437.04469"
     inkscape:document-units="mm"
     inkscape:current-layer="layer1"
     showgrid="false"
     units="px"
     inkscape:snap-global="false"
     inkscape:measure-start="0,0"
     inkscape:measure-end="0,0"
     inkscape:window-width="1920"
     inkscape:window-height="1017"
     inkscape:window-x="-8"
     inkscape:window-y="100"
     inkscape:window-maximized="1"
     showguides="true"
     inkscape:guide-bbox="true">
    <sodipodi:guide
       position="70.826443,100.76062"
       orientation="1,0"
       id="guide2258"
       inkscape:locked="false" />
    <sodipodi:guide
       position="84.457193,71.093698"
       orientation="0,1"
       id="guide2260"
       inkscape:locked="false" />
  </sodipodi:namedview>
  <metadata
     id="metadata5">
    <rdf:RDF>
      <cc:Work
         rdf:about="">
        <dc:format>image/svg+xml</dc:format>
        <dc:type
           rdf:resource="http://purl.org/dc/dcmitype/StillImage" />
        <dc:title></dc:title>
      </cc:Work>
    </rdf:RDF>
  </metadata>
  <g
     inkscape:label="Calque 1"
     inkscape:groupmode="layer"
     id="layer1"
     transform="translate(0,-85.333313)">
    <path
       inkscape:connector-curvature="0"
       style="opacity:1;vector-effect:none;fill:#000000;fill-opacity:1;fill-rule:evenodd;stroke:#000000;stroke-width:0.02748687;stroke-linecap:butt;stroke-linejoin:miter;stroke-miterlimit:15.19999981;stroke-dasharray:none;stroke-dashoffset:0;stroke-opacity:1"
       d="M 28.926519,226.63378 A 35.340258,35.340258 0 0 0 2.5051917,269.05711 35.340258,35.340258 0 0 0 44.928639,295.47895 35.340258,35.340258 0 0 0 71.350356,253.05499 35.340258,35.340258 0 0 0 28.926519,226.63378 Z m 1.240392,5.33648 A 30.42848,30.42848 0 0 1 66.6944,254.71921 30.42848,30.42848 0 0 1 43.944938,291.24682 30.42848,30.42848 0 0 1 7.4173397,268.49735 30.42848,30.42848 0 0 1 30.166911,231.97026 Z"
       id="path830-8" />
    <path
       style="opacity:1;vector-effect:none;fill:#000000;fill-opacity:1;fill-rule:evenodd;stroke:#000000;stroke-width:0.02748687;stroke-linecap:butt;stroke-linejoin:miter;stroke-miterlimit:15.19999981;stroke-dasharray:none;stroke-dashoffset:0;stroke-opacity:1"
       d="m 140.57824,200.29391 a 35.340258,35.340258 0 0 0 -26.42133,42.42334 35.340258,35.340258 0 0 0 42.42345,26.42183 35.340258,35.340258 0 0 0 26.42172,-42.42395 35.340258,35.340258 0 0 0 -42.42384,-26.42122 z m 1.24039,5.33648 a 30.42848,30.42848 0 0 1 36.52748,22.74895 30.42848,30.42848 0 0 1 -22.74945,36.52761 30.42848,30.42848 0 0 1 -36.5276,-22.74947 30.42848,30.42848 0 0 1 22.74957,-36.52709 z"
       id="path830"
       inkscape:connector-curvature="0" />
    <path
       style="fill:#000000;stroke:#000000;stroke-width:0.26458332px;stroke-linecap:butt;stroke-linejoin:miter;stroke-opacity:1"
       d="m 54.285477,197.27246 c -2.810239,0.62784 -9.326552,2.59645 -11.021733,3.05048 -1.937345,0.51889 -6.804251,1.27256 -7.452784,1.28611 -0.648539,0.0135 -1.732782,0.61166 -1.767616,1.98869 -0.0046,0.18259 0.528946,0.21967 1.299334,0.21474 l 0.681001,1.07415 c 0,0 -0.54567,0.16102 -0.544945,0.6068 7.01e-4,0.44572 2.104099,0.19684 2.252376,0.53967 0.148266,0.34283 -2.438229,0.4298 -2.429963,0.90807 0.0083,0.47827 2.478743,0.0413 2.561943,0.39928 0.0832,0.35796 -2.445476,0.39703 -2.349433,0.95779 0.09605,0.56077 2.340899,0.0387 2.449079,0.35654 0.108169,0.31784 -2.580397,0.70286 -2.411707,1.28104 0.168679,0.57818 1.697948,0.22235 1.697948,0.22235 0,0 -0.237583,0.15837 0.053,0.22802 0.290585,0.0697 0.317016,0.92107 0.317016,0.92107 0,0 -0.08619,0.80862 1.082998,0.67406 1.169194,-0.13456 2.178772,-1.39796 2.267412,-2.34465 0.07524,-0.80343 4.866342,-1.95996 6.383835,-2.30829 l 0.104891,1.00592 2.560539,3.11173 -0.30677,0.26654 0.294985,0.33783 a 1.3363475,1.3363475 0 0 0 -0.374702,0.0314 1.3363475,1.3363475 0 0 0 -0.999103,1.6042 1.3363475,1.3363475 0 0 0 1.604205,0.9991 1.3363475,1.3363475 0 0 0 1.029145,-1.19419 l 0.560091,0.64069 -3.729782,11.20452 c -1.265576,-0.34511 -2.591299,-0.63572 -3.981203,-0.8652 -24.078987,-3.97543 -35.4919203,10.28355 -40.2916093,19.65136 -0.07577,-0.0151 -3.14337104,-0.62474 -3.28097704,-0.0507 -0.134543,0.56129 0.90044404,1.74442 2.28023904,2.13861 -1.448627,3.22352 -2.01466804,5.48401 -2.01466804,5.48401 0,0 0.63978604,-2.24678 2.20865304,-5.42777 1.701582,0.48305 26.5458753,11.46526 29.8742603,12.9376 a 4.810851,4.810851 0 0 0 -0.767188,3.86876 4.810851,4.810851 0 0 0 5.775383,3.59693 4.810851,4.810851 0 0 0 0.02545,-0.007 l 44.430236,-0.73663 a 9.0705478,9.0705478 0 0 0 5.051321,0.27638 9.0705478,9.0705478 0 0 0 6.78172,-10.88835 9.0705478,9.0705478 0 0 0 -4.46711,-5.88417 l 25.423746,-44.19531 0.8945,1.34445 0.49474,-0.36859 3.53801,4.85653 c -2.72582,3.27169 -5.28515,7.40123 -7.24307,12.59889 -2.85842,7.58816 -1.74684,15.47007 0.10661,21.50348 -0.46937,0.0754 -1.16617,0.30617 -1.5988,1.00084 -0.65784,1.05627 0.29742,1.73644 2.31268,1.14373 1.78726,4.98447 3.85253,8.26166 3.85253,8.26166 0,0 -1.93379,-3.29416 -3.49715,-8.3761 0.0131,-0.004 0.0249,-0.008 0.0381,-0.0119 2.19332,-0.77348 26.93209,-8.48232 28.93778,-9.10725 a 6.0102657,6.0102657 0 0 0 6.72047,3.14805 6.0102657,6.0102657 0 0 0 4.49313,-7.21508 6.0102657,6.0102657 0 0 0 -7.21458,-4.49326 6.0102657,6.0102657 0 0 0 -3.30372,2.06774 l -9.94178,-5.64462 -11.80848,-15.99237 c 7.34667,-8.50577 15.48992,-10.6582 15.48992,-10.6582 0,0 -8.28362,1.95949 -15.88713,10.12024 l -3.29842,-4.46711 0.45527,-0.33979 -6.9549,-10.02507 -2.73015,0.63459 0.16563,0.15568 -55.588536,15.44299 -1.121431,-1.48536 -0.711982,0.61858 -2.432595,-2.93562 -0.583478,-0.002 -0.501804,-1.06328 c 1.287425,-0.6541 4.016489,-3.73427 6.26628,-4.97559 2.398633,-1.32345 5.27664,-2.54882 4.880735,-3.05502 -0.581049,-0.74293 -2.332605,-1.03569 -4.135215,-0.8225 -0.225314,0.0267 -0.551165,0.0893 -0.952622,0.17902 z m -16.324743,7.44777 c 0.465177,-0.0628 1.459583,0.612 1.459583,0.612 l 2.799505,-0.76531 c 1.842223,0.57059 3.846951,1.28036 4.998206,1.46759 l 0.05294,0.51081 c -1.055257,0.28984 -4.397834,1.22652 -5.379951,1.74495 -1.160926,0.61284 -1.48856,0.8265 -1.702808,1.52798 -0.214238,0.70147 -0.729249,0.99245 -0.844996,0.64206 -0.115733,-0.35039 0.667917,-0.22383 0.531766,-0.80959 -0.136151,-0.58575 -1.191647,0.0371 -1.314958,-0.34586 -0.123296,-0.38293 1.014036,-0.064 0.910427,-0.65728 -0.103613,-0.5933 -1.09477,-0.43175 -1.180261,-0.65198 -0.08548,-0.22022 1.11161,-0.087 1.015566,-0.64775 -0.09605,-0.56076 -0.767296,-0.64495 -0.892892,-0.89015 -0.125575,-0.24521 0.816597,0.119 0.78564,-0.45691 -0.03097,-0.57588 -1.62856,-0.51308 -1.456718,-1.10181 0.03222,-0.11039 0.111603,-0.16427 0.218949,-0.17875 z m 71.847126,-6.58832 2.99608,4.54269 -25.92632,45.76049 a 9.0705478,9.0705478 0 0 0 -3.578132,0.0974 9.0705478,9.0705478 0 0 0 -1.641912,0.55512 L 54.416219,212.75348 Z m -56.505016,18.17872 25.608703,33.16752 -6.452983,1.15029 c -2.610916,-8.73109 -8.62626,-20.12909 -22.482278,-24.72012 z m -25.529601,9.50667 c 4.843617,-1.07327 10.486684,-1.26382 17.040491,-0.10699 1.016826,0.17948 1.994836,0.3985 2.943426,0.64591 l -10.212617,30.67597 -0.05574,0.19388 a 4.810851,4.810851 0 0 0 -1.767513,0.0718 4.810851,4.810851 0 0 0 -2.079941,1.07182 L 3.5503587,245.22091 c 3.498361,-6.64613 10.7742073,-16.42377 24.2228883,-19.40363 z m 21.860347,1.07949 c 13.378248,4.29233 19.579655,15.28845 22.435737,23.8009 l -32.706594,5.83019 z m 70.88343,-15.21956 11.4064,15.65715 10.93995,5.58397 a 6.0102657,6.0102657 0 0 0 -0.37723,3.81631 6.0102657,6.0102657 0 0 0 0.11716,0.42851 l -28.77192,9.11327 -0.40274,-1.14149 c 0,0 -0.007,6.1e-4 -0.007,-3.6e-4 -1.51851,-5.87169 -2.28089,-13.54689 0.48984,-21.2405 1.79288,-4.97839 4.11785,-8.99167 6.60598,-12.21736 z M 3.7063967,244.35384 c -0.1324,0.26212 -0.255365,0.51704 -0.377439,0.77053 l -0.08038,-0.0354 z m 36.3860843,14.11757 32.527054,-6.03199 c 0.448684,1.51383 0.7938,2.91861 1.052797,4.15506 l -32.534748,3.30096 a 4.810851,4.810851 0 0 0 -1.045105,-1.42403 z m 32.857625,-6.09344 5.639093,-1.04546 a 9.0705478,9.0705478 0 0 0 -2.237736,4.98993 l -2.489407,0.25288 c -0.21579,-1.24618 -0.51365,-2.66712 -0.911953,-4.19735 z m -31.337119,9.76363 32.543503,-2.88439 c 0.240403,1.57568 0.302863,2.52871 0.302863,2.52871 0,0 -0.02689,-0.95455 -0.210226,-2.53646 l 2.197258,-0.19504 a 9.0705478,9.0705478 0 0 0 0.0715,0.36696 9.0705478,9.0705478 0 0 0 2.953195,4.83755 l -38.492841,0.1163 a 4.810851,4.810851 0 0 0 0.634747,-2.23362 z m 42.810554,-9.60853 a 4.9192677,4.9192677 0 0 1 5.905153,3.67817 4.9192677,4.9192677 0 0 1 -3.677667,5.90504 4.9192677,4.9192677 0 0 1 -5.905539,-3.67755 4.9192677,4.9192677 0 0 1 3.678053,-5.90566 z"
       id="path828"
       inkscape:connector-curvature="0" />
    <path
       style="fill:#000000;stroke:#000000;stroke-width:0.26458332px;stroke-linecap:butt;stroke-linejoin:miter;stroke-opacity:1"
       d="m 84.705253,241.61682 -0.286259,31.86198 1.24183,-0.18752 0.324433,-32.15503 z"
       id="path896"
       inkscape:connector-curvature="0"
       sodipodi:nodetypes="ccccc"
       inkscape:transform-center-x="-0.26563365"
       inkscape:transform-center-y="0.22955234" />
    <circle
       style="opacity:1;vector-effect:none;fill:#000000;fill-opacity:1;fill-rule:evenodd;stroke:#000000;stroke-width:0.02645833;stroke-linecap:butt;stroke-linejoin:miter;stroke-miterlimit:15.19999981;stroke-dasharray:none;stroke-dashoffset:0;stroke-opacity:1"
       id="path898"
       cx="24.983751"
       cy="269.6622"
       r="4.2094951"
       transform="rotate(-13.085274)" />
    <path
       style="fill:#000000;stroke:#000000;stroke-width:0.26458332px;stroke-linecap:butt;stroke-linejoin:miter;stroke-opacity:1"
       d="m 87.971671,270.93566 -1.424483,0.34701 0.295146,1.28746 -1.17229,0.27248 a 1.2256893,1.2256893 0 0 0 -0.882829,-0.1301 1.2256893,1.2256893 0 0 0 -0.735937,0.50636 l -0.918602,0.21352 -0.287459,-1.23672 -1.490848,0.35823 0.825488,3.56912 1.432025,-0.33285 -0.271373,-1.44578 0.539586,-0.12542 a 1.2256893,1.2256893 0 0 0 1.462253,0.88142 1.2256893,1.2256893 0 0 0 0.922601,-1.43575 l 0.723815,-0.16824 0.369386,1.36304 1.463125,-0.33597 z"
       id="path902"
       inkscape:connector-curvature="0" />
    <path
       style="opacity:1;vector-effect:none;fill:#000000;fill-opacity:1;fill-rule:evenodd;stroke:#000000;stroke-width:0.01543472;stroke-linecap:butt;stroke-linejoin:miter;stroke-miterlimit:15.19999981;stroke-dasharray:none;stroke-dashoffset:0;stroke-opacity:1"
       d="m 144.17729,215.69349 a 19.844635,19.844635 0 0 0 -0.12827,0.037 l 0.69612,2.99491 a 17.086521,17.086521 0 0 1 0.12873,-0.0351 17.086521,17.086521 0 0 1 20.08866,11.31108 l 2.70598,-0.62897 a 19.844635,19.844635 0 0 0 -23.49123,-13.67903 z"
       id="path830-0"
       inkscape:connector-curvature="0" />
    <path
       style="opacity:1;vector-effect:none;fill:#000000;fill-opacity:1;fill-rule:evenodd;stroke:#000000;stroke-width:0.0163698;stroke-linecap:butt;stroke-linejoin:miter;stroke-miterlimit:15.19999981;stroke-dasharray:none;stroke-dashoffset:0;stroke-opacity:1"
       d="m 31.193452,240.76929 a 21.046881,21.046881 0 0 0 -14.8556,24.87512 l 2.867564,-0.66652 a 18.121673,18.121673 0 0 1 12.723706,-21.04357 z"
       id="path830-8-5"
       inkscape:connector-curvature="0"
       inkscape:transform-center-x="12.811905"
       inkscape:transform-center-y="-8.3831023" />
    <path
       style="fill:#000000;stroke:#000000;stroke-width:0.26458332px;stroke-linecap:butt;stroke-linejoin:miter;stroke-opacity:1"
       d="m 82.916116,249.62067 15.446008,-26.73635 -0.36749,-0.54375 3.824386,-6.21464 c 0.7872,-1.27921 2.45058,0.0829 2.08556,1.01894 -0.35653,0.91425 -3.67003,6.6762 -3.67003,6.6762 l -0.460836,-0.24765 -14.532926,26.60449 z"
       id="path1023"
       inkscape:connector-curvature="0"
       sodipodi:nodetypes="cccsscccc" />
    <path
       style="fill:none;stroke:#000000;stroke-width:0.79374999;stroke-linecap:butt;stroke-linejoin:miter;stroke-miterlimit:4;stroke-dasharray:none;stroke-opacity:1"
       d="m 103.25281,216.05098 c 0.54055,-0.80474 0.97613,-0.80896 2.16718,-0.0672"
       id="path1025"
       inkscape:connector-curvature="0" />
    <path
       style="fill:#000000;stroke:#000000;stroke-width:0.26458332px;stroke-linecap:butt;stroke-linejoin:miter;stroke-opacity:1"
       d="m 88.05732,237.85689 -1.424483,0.34702 0.295145,1.28745 -1.172289,0.27249 a 1.2256893,1.2256893 0 0 0 -0.882829,-0.13011 1.2256893,1.2256893 0 0 0 -0.735938,0.50637 l -0.918601,0.21351 -0.28746,-1.23672 -1.490847,0.35823 0.825488,3.56913 1.432025,-0.33286 -0.271373,-1.44578 0.539586,-0.12542 a 1.2256893,1.2256893 0 0 0 1.462253,0.88142 1.2256893,1.2256893 0 0 0 0.922601,-1.43575 l 0.723815,-0.16824 0.369386,1.36305 1.463125,-0.33598 z"
       id="path902-7"
       inkscape:connector-curvature="0" />
    <path
       style="fill:#000000;stroke:#000000;stroke-width:0.26458332px;stroke-linecap:butt;stroke-linejoin:miter;stroke-opacity:1"
       d="m 42.459857,179.87565 c 0,0 -0.858697,-5.1941 -2.265827,-7.21691 -1.407134,-2.02283 -0.298349,-15.77567 13.147554,-32.43895 13.445911,-16.66328 33.545736,-21.28336 34.820991,-22.47064 1.275264,-1.18728 -1.981355,-3.00059 -8.142876,-2.6696 -6.161507,0.33096 -8.595592,0.66464 -7.309961,-1.62456 1.285613,-2.28921 17.807096,-18.567007 30.080952,-17.446787 12.27384,1.12025 13.02382,10.980747 13.02382,10.980747 l 0.97779,-0.57423 c 0,0 0.39828,5.90283 -1.07878,7.86612 -1.47703,1.96327 1.78995,2.67467 0.81218,3.2489 -0.97779,0.57423 -2.99023,0.87944 -2.99023,0.87944 0,0 0.37244,1.75378 -0.44237,2.23231 -0.81481,0.47853 -2.52979,0.17074 -2.63586,1.10965 -0.10607,0.93897 2.0978,0.9597 1.63735,1.66844 -0.46044,0.70876 1.00358,3.57484 -0.75021,3.94729 -1.75378,0.37245 -5.78641,-1.64264 -7.06166,-0.45537 -1.27527,1.18726 -5.424332,1.21307 -6.546992,3.40657 -1.12265,2.1935 -0.93389,6.24685 -6.973899,10.88987 -6.04,4.64302 -11.319655,7.47205 -12.517294,7.29872 -1.197636,-0.17333 -4.423167,5.28011 -6.01399,5.55685 -1.590824,0.27676 -1.336978,7.0767 -2.785565,9.4616 -1.448591,2.38491 -6.943278,8.30626 -12.484027,11.56023 -5.540756,3.25397 -6.068461,4.22138 -14.50109,4.79033 z"
       id="path1091"
       inkscape:connector-curvature="0"
       sodipodi:nodetypes="ccscccccccccscccccsscsscc" />
    <path
       style="fill:#000000;stroke:#000000;stroke-width:0.26458332px;stroke-linecap:butt;stroke-linejoin:miter;stroke-opacity:1"
       d="m 44.364401,180.35913 c 3.304519,2.53036 14.883722,6.43582 20.436007,6.11539 5.552276,-0.32042 14.657817,-2.04882 17.632964,-1.77022 2.975147,0.2786 7.041846,1.07958 7.041846,1.07958 0,0 -4.43087,1.80601 -8.091575,6.92545 -3.660703,5.11946 -3.023853,13.70262 -7.198001,16.6131 -4.174149,2.91049 -2.851744,6.09558 -5.214938,7.615 -2.363203,1.51942 -9.893587,5.016 -6.811955,9.92647 3.081635,4.91048 8.732418,4.17911 12.122501,7.07762 3.390094,2.89852 14.143408,4.08555 15.855854,3.10544 1.71246,-0.98012 -2.401022,-4.48659 -5.050801,-5.03484 -2.649769,-0.54826 -6.458782,-8.58811 -6.475712,-10.33041 -0.01692,-1.7423 2.338298,-8.30455 4.106466,-9.87969 1.768168,-1.57515 6.901527,-7.0369 9.290587,-10.11455 2.38906,-3.07763 6.51643,-8.69362 7.57813,-9.13442 1.061706,-0.44081 2.757236,-3.16322 3.151256,-4.80702 0.39403,-1.64379 2.95024,-6.50652 -0.0159,-10.08565 -2.966216,-3.57912 -16.814107,-8.89751 -19.549452,-9.81393 -2.735352,-0.91641 -12.854847,-4.38505 -14.511572,-3.99997 -1.656725,0.38508 -24.295655,16.51265 -24.295655,16.51265 z"
       id="path1093"
       inkscape:connector-curvature="0" />
    <path
       style="fill:#000000;stroke:#000000;stroke-width:0.26458332px;stroke-linecap:butt;stroke-linejoin:miter;stroke-opacity:1"
       d="m 42.095722,178.9462 c 0,0 4.301556,5.9851 7.208048,7.63784 2.906502,1.65274 5.422951,7.47068 9.309562,10.83587 3.88661,3.36519 15.024054,14.55229 16.868857,16.64584 1.84479,2.09353 -4.183099,6.21101 -3.828831,15.24789 0.354268,9.03688 5.580201,17.32946 5.344391,20.48869 -0.235811,3.15923 -3.117405,8.29162 -3.040772,11.9603 0.07663,3.66869 2.614969,5.407 5.435885,6.69158 2.820927,1.28457 5.149313,4.6239 7.812024,4.39304 2.662708,-0.23086 10.569238,1.22982 11.331418,-0.49955 0.7622,-1.72937 -2.99606,-4.54232 -5.9712,-4.82091 -2.97515,-0.2786 -6.655802,-7.76621 -9.575236,-8.63983 -2.919427,-0.87363 0.168127,-10.12844 0.797961,-14.93147 0.629845,-4.80302 0.936229,-26.02308 2.550176,-26.59225 1.613937,-0.56917 3.005962,-7.10156 0.707431,-9.47769 -2.298531,-2.37613 -5.21301,-9.07169 -7.147368,-14.0548 -1.93437,-4.98312 -6.368262,-14.04188 -8.919533,-15.00109 -2.551269,-0.95919 -23.057982,-24.90856 -28.882813,0.11654 z"
       id="path1095"
       inkscape:connector-curvature="0" />
    <path
       style="fill:#000000;stroke:none;stroke-width:0.26458332px;stroke-linecap:butt;stroke-linejoin:miter;stroke-opacity:1"
       d="m 80.788104,134.52214 c 0,0 0.128961,8.09422 0.852351,8.70218 4.197894,1.14251 9.258916,6.14015 11.176346,9.38096 1.91744,3.24082 7.216809,7.33552 8.736239,9.69872 1.51942,2.36319 5.68291,4.78364 8.07475,5.34512 5.60028,1.31466 15.1136,6.57545 20.04837,8.34961 3.73472,1.34272 5.41233,1.51128 7.33871,1.45158 1.92638,-0.0597 2.79506,2.84279 4.89259,3.51941 2.09753,0.67661 3.52738,0.15023 3.99406,-0.34629 0.46666,-0.49652 2.15325,0.0816 1.75523,-0.79603 -0.39802,-0.87762 2.19604,0.26566 2.804,-0.45772 0.60796,-0.7234 2.05474,0.49253 2.61992,-0.41495 0.56518,-0.90747 -3.27864,-4.08857 -3.94632,-5.29156 -0.66767,-1.20299 -2.93635,-2.61593 -6.32244,-2.99304 -3.3861,-0.3771 -8.11887,-0.45231 -10.56765,0.69895 -3.78511,-0.18509 -10.9665,-7.83918 -13.71416,-8.86781 -4.53598,-1.69812 -8.20226,-5.83973 -9.15253,-6.58898 -0.95025,-0.74926 -3.47987,-4.9855 -5.2391,-6.71089 -1.75921,-1.72537 -2.8426,-7.15212 -3.2277,-8.80885 -0.38508,-1.65673 -5.563356,-7.50828 -8.187256,-9.61477 -2.62391,-2.10647 -9.51553,-6.71344 -11.93541,3.74436 z"
       id="path1097"
       inkscape:connector-curvature="0"
       sodipodi:nodetypes="cccssscscscccscscsscc" />
    <path
       style="fill:#1a1a1a;stroke:#000000;stroke-width:0.26458332px;stroke-linecap:butt;stroke-linejoin:miter;stroke-opacity:1"
       d="m 109.02467,195.59781 -5.53838,-8.80203 14.70955,-5.16528 c 0,0 7.30016,2.37774 11.02297,1.51242 5.52243,-1.28361 13.74236,-7.65683 13.74236,-7.65683 l 2.40998,1.18606 c 0,0 -7.77914,7.43492 -14.77421,9.06083 -5.1674,1.20109 -12.26875,-1.02883 -12.26875,-1.02883 l -11.1563,3.75729 4.60106,7.27367 z"
       id="path1126"
       inkscape:connector-curvature="0"
       sodipodi:nodetypes="cccsccscccc" />
    <path
       style="fill:#000000;stroke:none;stroke-width:0.26458332px;stroke-linecap:butt;stroke-linejoin:miter;stroke-opacity:1"
       d="m 83.389247,126.97403 c 0,0 -0.607341,8.07243 0.05779,8.74363 4.07666,1.51937 8.662442,6.95637 10.277342,10.35806 1.61491,3.4017 6.520131,7.96116 7.818451,10.4527 1.29832,2.49152 5.22455,5.28041 7.55545,6.05698 5.45759,1.81829 14.45332,7.92206 19.20638,10.13745 3.59721,1.67665 5.25255,1.99701 7.17638,2.11266 1.92383,0.11566 2.52508,3.0851 4.55242,3.94958 2.02734,0.86448 3.49912,0.47025 4.009,0.0182 0.50987,-0.45205 2.13692,0.27699 1.82033,-0.63319 -0.3166,-0.91016 2.1628,0.46419 2.83399,-0.20094 0.67121,-0.66514 2.00147,0.67727 2.6468,-0.17508 0.64533,-0.85233 -2.89342,-4.36967 -3.44898,-5.62837 -0.55555,-1.2587 -2.6864,-2.87202 -6.0242,-3.55536 -3.3378,-0.68334 -8.04414,-1.18845 -10.58743,-0.26455 -3.75262,-0.52839 -10.20851,-8.80358 -12.8513,-10.07772 -4.36284,-2.10341 -7.63747,-6.56114 -8.51569,-7.39367 -0.87821,-0.83254 -3.01228,-5.28118 -4.60739,-7.15934 -1.59509,-1.87814 -2.1807,-7.38091 -2.4136,-9.06578 -0.23289,-1.68488 -4.857826,-7.98291 -7.279383,-10.31919 -2.421568,-2.33627 -8.865881,-7.55061 -12.226361,2.64392 z"
       id="path1097-5"
       inkscape:connector-curvature="0"
       sodipodi:nodetypes="cccssscscscccscscsscc" />
  </g>
</svg>
