<?xml version="1.0" encoding="UTF-8" standalone="no"?>
<!-- Created with Inkscape (http://www.inkscape.org/) -->

<svg
   xmlns:dc="http://purl.org/dc/elements/1.1/"
   xmlns:cc="http://creativecommons.org/ns#"
   xmlns:rdf="http://www.w3.org/1999/02/22-rdf-syntax-ns#"
   xmlns:svg="http://www.w3.org/2000/svg"
   xmlns="http://www.w3.org/2000/svg"
   xmlns:sodipodi="http://sodipodi.sourceforge.net/DTD/sodipodi-0.dtd"
   xmlns:inkscape="http://www.inkscape.org/namespaces/inkscape"
   width="720"
   height="800"
   viewBox="0 0 190.50005 211.66668"
   version="1.1"
   id="svg8"
   sodipodi:docname="bike04.svg"
   inkscape:version="0.92.3 (2405546, 2018-03-11)">
  <defs
     id="defs2" />
  <sodipodi:namedview
     id="base"
     pagecolor="#ffffff"
     bordercolor="#666666"
     borderopacity="1.0"
     inkscape:pageopacity="0.0"
     inkscape:pageshadow="2"
     inkscape:zoom="0.98994949"
     inkscape:cx="201.40868"
     inkscape:cy="300.67409"
     inkscape:document-units="mm"
     inkscape:current-layer="layer1"
     showgrid="false"
     units="px"
     inkscape:snap-global="false"
     inkscape:measure-start="0,0"
     inkscape:measure-end="0,0"
     inkscape:window-width="1920"
     inkscape:window-height="1017"
     inkscape:window-x="-8"
     inkscape:window-y="100"
     inkscape:window-maximized="1" />
  <metadata
     id="metadata5">
    <rdf:RDF>
      <cc:Work
         rdf:about="">
        <dc:format>image/svg+xml</dc:format>
        <dc:type
           rdf:resource="http://purl.org/dc/dcmitype/StillImage" />
        <dc:title />
      </cc:Work>
    </rdf:RDF>
  </metadata>
  <g
     inkscape:label="Calque 1"
     inkscape:groupmode="layer"
     id="layer1"
     transform="translate(0,-85.333313)">
    <path
       style="fill:#000000;stroke:#000000;stroke-width:0.26458332px;stroke-linecap:butt;stroke-linejoin:miter;stroke-opacity:1"
       d="m 101.07099,257.44499 -1.466055,0.0155 -0.004,1.32085 h -1.20354 a 1.2256893,1.2256893 0 0 0 -0.83045,-0.3266 1.2256893,1.2256893 0 0 0 -0.831468,0.3266 h -0.94309 v -1.26969 l -1.53324,0.0114 -0.004,3.66334 h 1.4702 l 0.063,-1.46968 h 0.55397 a 1.2256893,1.2256893 0 0 0 1.224728,1.18959 1.2256893,1.2256893 0 0 0 1.2237,-1.18959 h 0.74311 l 0.0512,1.41128 1.501195,0.004 z"
       id="path902-7"
       inkscape:connector-curvature="0" />
    <path
       style="fill:#000000;stroke:#000000;stroke-width:0.26458332px;stroke-linecap:butt;stroke-linejoin:miter;stroke-opacity:1"
       d="m 68.277257,203.31401 c -2.879413,-0.0247 -9.672219,0.41749 -11.426176,0.47594 -2.004518,0.0668 -6.915682,-0.30097 -7.550444,-0.4346 -0.634765,-0.13364 -1.826268,0.20347 -2.171959,1.53686 -0.04584,0.1768 0.465478,0.33372 1.21698,0.50333 l 0.420129,1.20044 c 0,0 -0.567957,0.0333 -0.668176,0.46767 -0.10023,0.43431 2.004899,0.6681 2.071709,1.0356 0.0668,0.36749 -2.472225,-0.13338 -2.572454,0.33434 -0.100219,0.46773 2.405023,0.60145 2.405023,0.96894 0,0.3675 -2.471865,-0.16694 -2.505274,0.40101 -0.0334,0.56795 2.271358,0.56766 2.304767,0.90175 0.0334,0.33408 -2.672524,0.10041 -2.639115,0.70177 0.0334,0.60135 1.60352,0.60099 1.60352,0.60099 0,0 -0.267269,0.10047 0,0.2341 0.267269,0.13364 0.100253,0.96893 0.100253,0.96893 0,0 -0.26703,0.76811 0.902269,0.90175 1.1693,0.13364 2.438699,-0.86839 2.739369,-1.77043 0.255183,-0.76553 5.183719,-0.80732 6.740673,-0.80305 l -0.125574,1.00355 1.789554,3.61064 -0.35915,0.19017 0.210841,0.39584 a 1.3363475,1.3363475 0 0 0 -0.37207,-0.0543 1.3363475,1.3363475 0 0 0 -1.336353,1.33635 1.3363475,1.3363475 0 0 0 1.336353,1.33635 1.3363475,1.3363475 0 0 0 1.272788,-0.93018 l 0.400495,0.75086 -6.16965,10.06916 c -1.15458,-0.62268 -2.380085,-1.20589 -3.681946,-1.74408 -22.553716,-9.32371 -36.898548,1.98112 -43.6944908,10.01903 -0.070371,-0.0319 -2.9203094,-1.32018 -3.1843027,-0.79221 -0.2581275,0.51626 0.4821238,1.90299 1.7368467,2.59933 -2.1408204,2.81185 -3.2039401,4.88549 -3.2039401,4.88549 0,0 1.1318452,-2.04359 3.3801553,-4.78679 1.5480347,0.85575 23.2608436,17.17757 26.1694646,19.36523 a 4.810851,4.810851 0 0 0 -1.623158,3.59461 4.810851,4.810851 0 0 0 4.811074,4.81108 4.810851,4.810851 0 0 0 0.02636,-10e-4 l 43.443341,9.34155 a 9.0705478,9.0705478 0 0 0 4.857586,1.41283 9.0705478,9.0705478 0 0 0 9.070764,-9.07024 9.0705478,9.0705478 0 0 0 -3.018936,-6.74274 l 34.769457,-37.29178 0.56689,1.51205 0.56534,-0.24701 2.34662,5.53144 c -3.39576,2.56961 -6.82356,6.01249 -9.9074,10.63191 -4.50216,6.74398 -5.20392,14.67289 -4.76457,20.96926 -0.47425,-0.0328 -1.2052,0.0342 -1.78387,0.61288 -0.8799,0.87991 -0.10344,1.75869 1.99368,1.63763 0.61237,5.25968 1.88205,8.91935 1.88205,8.91935 0,0 -1.13777,-3.64643 -1.50998,-8.95036 0.0137,-0.001 0.026,-0.002 0.0398,-0.003 2.31148,-0.25683 28.15318,-2.16462 30.24828,-2.31923 a 6.0102657,6.0102657 0 0 0 5.83324,4.58783 6.0102657,6.0102657 0 0 0 6.00997,-6.01049 6.0102657,6.0102657 0 0 0 -6.00997,-6.00997 6.0102657,6.0102657 0 0 0 -3.68608,1.26608 l -8.40569,-7.74888 -7.88117,-18.25057 c 9.08162,-6.62162 17.50074,-6.87452 17.50074,-6.87452 0,0 -8.51216,0.0332 -17.76584,6.2606 l -2.20142,-5.09788 0.52038,-0.22789 -4.50463,-11.33936 h -2.80293 l 0.12609,0.18914 -57.641445,2.4567 -0.756026,-1.70068 -0.833541,0.44132 -1.704805,-3.41013 -0.567923,-0.13384 -0.248047,-1.14928 c 1.402085,-0.34564 4.75764,-2.72797 7.230049,-3.4277 2.63598,-0.74603 5.716683,-1.288 5.445662,-1.87069 -0.397761,-0.85519 -2.037556,-1.5369 -3.841626,-1.73736 -0.225509,-0.025 -0.557072,-0.0378 -0.968417,-0.0413 z m -17.587039,3.55844 c 0.467304,0.0442 1.283126,0.92656 1.283126,0.92656 l 2.900079,-0.11162 c 1.665208,0.97285 3.457189,2.11806 4.53616,2.56108 l -0.06408,0.50953 c -1.093475,0.0434 -4.561326,0.199 -5.635315,0.48162 -1.269529,0.33409 -1.637027,0.46802 -2.004528,1.10278 -0.367491,0.63476 -0.935006,0.80158 -0.968418,0.43408 -0.0334,-0.36749 0.701249,-0.0668 0.701249,-0.66817 0,-0.60137 -1.169098,-0.23368 -1.20251,-0.63459 -0.0334,-0.4009 1.002186,0.16728 1.035595,-0.43409 0.0334,-0.60135 -0.968594,-0.6684 -1.002006,-0.90226 -0.0334,-0.23386 1.10244,0.16694 1.135848,-0.40101 0.0334,-0.56795 -0.601355,-0.80192 -0.668176,-1.06919 -0.0668,-0.26727 0.768451,0.30079 0.868683,-0.26717 0.100219,-0.56794 -1.47011,-0.86847 -1.16944,-1.40301 0.05638,-0.10023 0.145894,-0.13473 0.253733,-0.12454 z m 71.473162,9.84901 1.88981,5.10305 -35.613339,38.70254 a 9.0705478,9.0705478 0 0 0 -3.50728,-0.7152 9.0705478,9.0705478 0 0 0 -1.724959,0.16898 L 64.899687,218.42265 Z m -59.153501,4.91391 17.434594,38.10413 -6.545852,-0.34054 c -0.566396,-9.09549 -3.845028,-21.55941 -16.301849,-29.16825 z m -27.019022,3.47989 c 4.960837,0.0512 10.500516,1.1432 16.622241,3.75378 0.949789,0.40503 1.852819,0.83978 2.720764,1.29553 l -16.892508,27.5673 -0.09819,0.17622 a 4.810851,4.810851 0 0 0 -1.737879,-0.33021 4.810851,4.810851 0 0 0 -2.268595,0.57309 L 8.0039331,238.53098 C 12.916148,232.84945 22.216736,224.97296 35.990857,225.11526 Z m 21.048326,6.00067 c 12.059084,7.20972 15.609935,19.32432 16.464629,28.26236 l -33.177302,-1.726 z m 72.488607,1.2237 7.56543,17.83302 9.39167,7.91579 a 6.0102657,6.0102657 0 0 0 -1.23145,3.63182 6.0102657,6.0102657 0 0 0 0.0171,0.4439 l -30.08809,2.36265 -0.13384,-1.20303 c 0,0 -0.007,-10e-4 -0.007,-0.002 -0.14973,-6.06302 0.84536,-13.71153 5.28599,-20.57807 2.87344,-4.44321 6.04665,-7.82591 9.20047,-10.40453 z m -121.1755568,5.3821 c -0.1883066,0.22534 -0.3657917,0.4458 -0.5420863,0.66507 l -0.070279,-0.0527 z m 32.2450598,21.98884 33.048111,1.48879 c 0.0943,1.57611 0.112411,3.02255 0.08475,4.28553 l -32.437298,-4.15065 a 4.810851,4.810851 0 0 0 -0.695565,-1.62367 z m 33.38401,1.50378 5.729364,0.25838 a 9.0705478,9.0705478 0 0 0 -3.309358,4.35374 l -2.482019,-0.31729 c 0.07195,-1.26268 0.103526,-2.71416 0.06201,-4.29483 z m -32.733921,2.41536 32.351514,4.55838 c -0.122576,1.5892 -0.277503,2.53162 -0.277503,2.53162 0,0 0.189915,-0.93585 0.369488,-2.51819 l 2.184363,0.30748 a 9.0705478,9.0705478 0 0 0 -0.01344,0.37362 9.0705478,9.0705478 0 0 0 1.781286,5.38055 l -37.519673,-8.60154 a 4.810851,4.810851 0 0 0 1.123961,-2.03192 z m 43.874324,0.33331 a 4.9192677,4.9192677 0 0 1 4.91908,4.9196 4.9192677,4.9192677 0 0 1 -4.91908,4.91908 4.9192677,4.9192677 0 0 1 -4.919596,-4.91908 4.9192677,4.9192677 0 0 1 4.919596,-4.9196 z"
       id="path828"
       inkscape:connector-curvature="0" />
    <path
       style="fill:#000000;stroke:#000000;stroke-width:0.26458332px;stroke-linecap:butt;stroke-linejoin:miter;stroke-opacity:1"
       d="m 97.154059,259.48914 -26.322334,17.95557 0.862945,0.91249 26.584722,-18.09154 z"
       id="path896"
       inkscape:connector-curvature="0"
       sodipodi:nodetypes="ccccc"
       inkscape:transform-center-x="0.03680791"
       inkscape:transform-center-y="0.41712719" />
    <path
       style="fill:#000000;stroke:#000000;stroke-width:0.26458332px;stroke-linecap:butt;stroke-linejoin:miter;stroke-opacity:1"
       d="m 84.312793,260.78496 21.098087,-22.54513 -0.23485,-0.61283 5.13208,-5.18743 c 1.05637,-1.06777 2.36818,0.63557 1.80072,1.46466 -0.55426,0.80979 -5.08623,5.67195 -5.08623,5.67195 l -0.3928,-0.34556 -20.178857,22.62342 z"
       id="path1023"
       inkscape:connector-curvature="0"
       sodipodi:nodetypes="cccsscccc" />
    <path
       style="fill:#000000;stroke:#000000;stroke-width:0.26458332px;stroke-linecap:butt;stroke-linejoin:miter;stroke-opacity:1"
       d="m 66.634144,168.57333 c 0,0 -8.737561,8.41375 -7.092569,11.32464 -3.96766,1.84181 -5.123481,8.62267 10.226213,12.70895 17.678038,14.81036 28.608189,14.2452 32.064062,16.83291 -3.501413,0.87292 -5.153612,5.48679 -8.176672,14.32383 -4.59795,13.44077 -4.228401,13.83048 -5.558045,16.70597 -3.945661,8.53287 -6.359121,7.43273 -6.194117,11.52069 0.147437,3.65275 4.278412,1.54348 6.681663,2.71297 3.926191,4.45803 14.300551,4.78218 15.842741,3.6898 1.54219,-1.09238 -4.514193,-1.12244 -6.923859,-2.88954 -2.409667,-1.76709 -2.085598,-4.58416 -4.141855,-6.83319 -2.056243,-2.24903 3.058904,-9.04271 6.125009,-12.79302 4.018185,-4.91485 7.101875,-8.17447 13.975145,-18.29984 3.24082,-4.77423 5.69206,-6.42034 4.94025,-9.63966 -0.75181,-3.21932 -2.77569,-4.29044 -5.59576,-7.71223 -4.10391,-4.97956 -9.11673,-9.60223 -30.591072,-24.03 -1.69641,-2.13336 2.26974,-26.10281 -15.581134,-7.62228 z"
       id="path1095"
       inkscape:connector-curvature="0"
       sodipodi:nodetypes="ccccsssccscsssscc" />
    <circle
       style="opacity:1;vector-effect:none;fill:#000000;fill-opacity:1;fill-rule:evenodd;stroke:#000000;stroke-width:0.02645833;stroke-linecap:butt;stroke-linejoin:miter;stroke-miterlimit:15.19999981;stroke-dasharray:none;stroke-dashoffset:0;stroke-opacity:1"
       id="path898"
       cx="85.047775"
       cy="268.53577"
       r="4.2094951" />
    <path
       inkscape:connector-curvature="0"
       style="opacity:1;vector-effect:none;fill:#000000;fill-opacity:1;fill-rule:evenodd;stroke:#000000;stroke-width:0.02748687;stroke-linecap:butt;stroke-linejoin:miter;stroke-miterlimit:15.19999981;stroke-dasharray:none;stroke-dashoffset:0;stroke-opacity:1"
       d="m 36.929333,226.17165 a 35.340258,35.340258 0 0 0 -35.3399592,35.33996 35.340258,35.340258 0 0 0 35.3399592,35.34048 35.340258,35.340258 0 0 0 35.34048,-35.34048 35.340258,35.340258 0 0 0 -35.34048,-35.33996 z m 0,5.47874 A 30.42848,30.42848 0 0 1 67.357973,262.0785 30.42848,30.42848 0 0 1 36.929333,292.50714 30.42848,30.42848 0 0 1 6.5007038,262.0785 30.42848,30.42848 0 0 1 36.929333,231.65039 Z"
       id="path830-8" />
    <path
       style="opacity:1;vector-effect:none;fill:#000000;fill-opacity:1;fill-rule:evenodd;stroke:#000000;stroke-width:0.02748687;stroke-linecap:butt;stroke-linejoin:miter;stroke-miterlimit:15.19999981;stroke-dasharray:none;stroke-dashoffset:0;stroke-opacity:1"
       d="m 151.6453,225.79377 a 35.340258,35.340258 0 0 0 -35.33996,35.33997 35.340258,35.340258 0 0 0 35.33996,35.34047 35.340258,35.340258 0 0 0 35.34048,-35.34047 35.340258,35.340258 0 0 0 -35.34048,-35.33997 z m 0,5.47874 a 30.42848,30.42848 0 0 1 30.42863,30.42811 30.42848,30.42848 0 0 1 -30.42863,30.42864 30.42848,30.42848 0 0 1 -30.42863,-30.42864 30.42848,30.42848 0 0 1 30.42863,-30.42811 z"
       id="path830"
       inkscape:connector-curvature="0" />
    <path
       style="fill:#000000;stroke:#000000;stroke-width:0.26458332px;stroke-linecap:butt;stroke-linejoin:miter;stroke-opacity:1"
       d="m 75.05691,276.2766 -1.46606,0.0155 -0.004,1.32085 h -1.20354 a 1.2256893,1.2256893 0 0 0 -0.83045,-0.3266 1.2256893,1.2256893 0 0 0 -0.83147,0.3266 H 69.7783 v -1.26969 l -1.53324,0.0114 -0.004,3.66334 h 1.4702 l 0.063,-1.46968 h 0.55397 a 1.2256893,1.2256893 0 0 0 1.22473,1.18959 1.2256893,1.2256893 0 0 0 1.2237,-1.18959 h 0.74311 l 0.0512,1.41128 1.5012,0.004 z"
       id="path902"
       inkscape:connector-curvature="0" />
    <path
       style="opacity:1;vector-effect:none;fill:#000000;fill-opacity:1;fill-rule:evenodd;stroke:#000000;stroke-width:0.01543472;stroke-linecap:butt;stroke-linejoin:miter;stroke-miterlimit:15.19999981;stroke-dasharray:none;stroke-dashoffset:0;stroke-opacity:1"
       d="m 130.66387,259.65713 a 19.844635,19.844635 0 0 0 -0.006,0.1334 l 3.06154,0.28469 a 17.086521,17.086521 0 0 1 0.007,-0.13321 17.086521,17.086521 0 0 1 17.07319,-15.49197 l 0.2572,-2.76619 a 19.844635,19.844635 0 0 0 -20.39401,17.97327 z"
       id="path830-0"
       inkscape:connector-curvature="0"
       inkscape:transform-center-x="10.209317"
       inkscape:transform-center-y="-11.280273" />
    <path
       style="opacity:1;vector-effect:none;fill:#000000;fill-opacity:1;fill-rule:evenodd;stroke:#000000;stroke-width:0.0163698;stroke-linecap:butt;stroke-linejoin:miter;stroke-miterlimit:15.19999981;stroke-dasharray:none;stroke-dashoffset:0;stroke-opacity:1"
       d="m 15.058069,262.7808 a 21.046881,21.046881 0 0 0 21.017597,19.94294 l -0.02231,-2.94391 A 18.121673,18.121673 0 0 1 18.307383,262.75617 Z"
       id="path830-8-5"
       inkscape:connector-curvature="0"
       inkscape:transform-center-x="11.010187"
       inkscape:transform-center-y="10.762163" />
    <path
       style="fill:none;stroke:#000000;stroke-width:0.79374999;stroke-linecap:butt;stroke-linejoin:miter;stroke-miterlimit:4;stroke-dasharray:none;stroke-opacity:1"
       d="m 111.72164,232.69118 c 0.70871,-0.66146 1.13393,-0.56696 2.12612,0.42522"
       id="path1025"
       inkscape:connector-curvature="0" />
    <path
       style="fill:#000000;stroke:#000000;stroke-width:0.26458332px;stroke-linecap:butt;stroke-linejoin:miter;stroke-opacity:1"
       d="m 57.463519,183.66032 c 0,0 1.722337,-4.9749 1.450226,-7.42392 -0.272111,-2.44904 5.247053,-18.14204 25.012205,-26.37587 19.76516,-8.23382 41.64956,1.42471 43.33667,0.98932 1.68711,-0.43538 -0.31052,-3.5823 -5.88407,-6.22984 -5.57354,-2.64753 -7.8721,-3.5151 -5.65036,-4.91408 2.22173,-1.39898 24.50634,-7.82724 34.76025,-0.98914 10.2539,6.83811 6.21058,15.8627 6.21058,15.8627 l 1.13328,-0.0384 c 0,0 -2.46506,5.37826 -4.6996,6.39949 -2.23454,1.02122 0.29771,3.20455 -0.83556,3.24297 -1.13328,0.0384 -3.04768,-0.65308 -3.04768,-0.65308 0,0 -0.50902,1.71912 -1.45342,1.75113 -0.9444,0.032 -2.30497,-1.05645 -2.846,-0.28173 -0.54103,0.77472 1.38618,1.84398 0.64346,2.24735 -0.74271,0.40337 -0.82275,3.62072 -2.54187,3.11171 -1.71912,-0.50903 -4.30261,-4.20339 -5.98972,-3.76801 -1.68711,0.43538 -5.34625,-1.52066 -7.37911,-0.12807 -2.03285,1.39258 -3.80002,5.04532 -11.32319,6.2458 -7.52317,1.20049 -15.81467,2.04883 -16.78467,1.32532 -0.97001,-0.72351 -4.104145,1.65189 -5.634384,1.13647 -1.530248,-0.51542 -7.423929,-1.45023 -9.834543,-0.0448 -2.410624,1.40539 -7.190263,11.02223 -13.612165,11.2399 -6.421912,0.21768 -7.347103,0.81633 -15.030329,-2.70517 z"
       id="path1091"
       inkscape:connector-curvature="0"
       inkscape:transform-center-x="-38.845403"
       inkscape:transform-center-y="-13.168895" />
    <path
       style="fill:#000000;stroke:none;stroke-width:0.26458332px;stroke-linecap:butt;stroke-linejoin:miter;stroke-opacity:1"
       d="m 115.35966,167.39579 c 0,0 0,5.29167 0.56697,6.04762 0.56696,0.75596 0,5.48066 1.13392,9.07143 1.13393,3.59078 5.10268,12.28423 6.04762,14.93006 0.94494,2.64583 2.07887,4.34673 4.53572,4.34673 2.45684,0 10.96131,1.88988 14.93006,1.88988 3.96875,0 8.88244,-1.32292 10.77232,-0.94494 1.88988,0.37797 2.07887,3.40178 3.96875,4.53571 1.88988,1.13393 3.40178,0.94494 3.96875,0.56696 0.56696,-0.37797 2.07887,0.56697 1.88988,-0.37797 -0.18899,-0.94494 2.07887,0.75595 2.83482,0.18899 0.75595,-0.56697 1.88988,0.94494 2.64583,0.18898 0.75596,-0.75595 -2.26785,-4.7247 -2.64583,-6.04761 -0.37798,-1.32292 -2.26786,-3.2128 -5.48065,-4.34673 -3.2128,-1.13393 -8.12649,-2.07887 -10.77233,-1.51191 -2.64583,0.56697 -9.07142,-1.5119 -11.90625,-2.26785 -2.83482,-0.75595 -6.2366,-1.13393 -6.99256,-2.07887 -0.75595,-0.94494 -0.37797,-5.48065 -1.70089,-7.55953 -1.32291,-2.07886 -2.45684,-4.34672 -2.45684,-6.04761 0,-1.7009 3.21279,-8.88244 1.13393,-11.52828 -2.07887,-2.64583 -7.74852,-8.69345 -12.47322,0.94494 z"
       id="path1097"
       inkscape:connector-curvature="0"
       sodipodi:nodetypes="cccssscscscccscscsscc" />
    <path
       style="fill:#000000;stroke:none;stroke-width:0.23055251px;stroke-linecap:butt;stroke-linejoin:miter;stroke-opacity:1"
       d="m 125.31562,170.38677 c 0,0 0,4.66116 0.48875,5.32703 0.48871,0.66588 0,4.82762 0.97744,7.99054 0.97747,3.16293 4.39859,10.8205 5.21314,13.15108 0.81456,2.33057 1.79202,3.82881 3.90986,3.82881 2.11784,0 9.44881,1.66469 12.86994,1.66469 3.42112,0 7.65679,-1.1653 9.2859,-0.83235 1.6291,0.33294 1.79202,2.99644 3.42112,3.99526 1.6291,0.99881 2.93239,0.83234 3.42112,0.49941 0.48873,-0.33293 1.79202,0.4994 1.62911,-0.33293 -0.16292,-0.83235 1.792,0.66586 2.44367,0.16647 0.65163,-0.49942 1.62909,-1.24653 2.28073,-1.91241 0.65165,-0.66588 -1.95492,-2.08286 -2.28073,-3.24814 -0.32583,-1.1653 -1.95495,-2.83 -4.72443,-3.82881 -2.76947,-0.99882 -7.00514,-1.83117 -9.28589,-1.33176 -2.28076,0.49941 -7.8197,-1.33176 -10.26338,-1.99763 -2.44365,-0.66587 -5.37604,-0.99882 -6.02768,-1.83116 -0.65164,-0.83235 -0.32581,-4.8276 -1.46619,-6.65879 -1.14038,-1.83115 -2.11784,-3.82879 -2.11784,-5.32701 0,-1.49822 0.85419,-8.68374 -0.62616,-11.22371 -2.65699,-4.55883 -9.88656,-7.92487 -9.14848,1.90141 z"
       id="path1097-4"
       inkscape:connector-curvature="0"
       sodipodi:nodetypes="cccssscscscccscscsssc" />
    <path
       style="fill:#1a1a1a;stroke:#000000;stroke-width:0.26458332px;stroke-linecap:butt;stroke-linejoin:miter;stroke-opacity:1"
       d="m 121.97424,214.07585 -3.40178,-9.82738 15.49703,-1.7009 c 0,0 6.57228,3.96876 10.39434,3.96876 5.66964,0 15.11904,-4.34673 15.11904,-4.34673 l 2.07888,1.70089 c 0,0 -9.26042,5.48066 -16.44197,5.48066 -5.30515,0 -11.71725,-3.77977 -11.71725,-3.77977 l -11.71727,1.13393 2.83482,8.12649 z"
       id="path1126"
       inkscape:connector-curvature="0"
       sodipodi:nodetypes="cccsccscccc" />
    <path
       style="fill:#000000;stroke:#000000;stroke-width:0.26458332px;stroke-linecap:butt;stroke-linejoin:miter;stroke-opacity:1"
       d="m 58.177599,185.79169 c 1.909136,19.62121 7.226626,35.89402 10.682501,38.48173 -3.501415,0.87292 -2.320992,9.21492 -2.831284,18.60015 -0.784647,14.43115 -4.701282,17.3343 -6.092583,20.18047 -2.342044,4.7911 -3.686425,3.69096 -3.521421,7.77892 0.147437,3.65275 3.476603,1.81075 5.879853,2.98024 3.926192,4.45803 14.300552,4.78218 15.842746,3.6898 1.54219,-1.09238 -4.514198,-1.12244 -6.923864,-2.88954 -2.409666,-1.76709 -2.085597,-4.58416 -4.141854,-6.83319 -2.056243,-2.24903 3.6274,-5.04815 6.125009,-12.79302 3.307979,-10.25776 6.837959,-16.67542 6.353731,-23.12865 -0.75181,-3.21932 2.302432,-3.22136 0.55144,-8.24677 -2.123138,-6.09348 1.57404,-32.32013 -9.476784,-54.23145 -2.865033,-2.09669 -9.146421,7.12617 -12.44749,16.41131 z"
       id="path1095-0"
       inkscape:connector-curvature="0"
       sodipodi:nodetypes="ccsssccscscscc" />
  </g>
</svg>
