<?xml version="1.0" encoding="UTF-8" standalone="no"?>
<!-- Created with Inkscape (http://www.inkscape.org/) -->

<svg
   xmlns:dc="http://purl.org/dc/elements/1.1/"
   xmlns:cc="http://creativecommons.org/ns#"
   xmlns:rdf="http://www.w3.org/1999/02/22-rdf-syntax-ns#"
   xmlns:svg="http://www.w3.org/2000/svg"
   xmlns="http://www.w3.org/2000/svg"
   xmlns:sodipodi="http://sodipodi.sourceforge.net/DTD/sodipodi-0.dtd"
   xmlns:inkscape="http://www.inkscape.org/namespaces/inkscape"
   width="150"
   height="150"
   viewBox="0 0 39.687499 39.687501"
   version="1.1"
   id="svg8"
   inkscape:version="0.92.3 (2405546, 2018-03-11)"
   sodipodi:docname="bottle.svg">
  <defs
     id="defs2" />
  <sodipodi:namedview
     id="base"
     pagecolor="#ffffff"
     bordercolor="#666666"
     borderopacity="1.0"
     inkscape:pageopacity="0.0"
     inkscape:pageshadow="2"
     inkscape:zoom="2.8284271"
     inkscape:cx="144.56934"
     inkscape:cy="75.420046"
     inkscape:document-units="mm"
     inkscape:current-layer="layer1"
     showgrid="false"
     units="px"
     inkscape:window-width="1853"
     inkscape:window-height="1025"
     inkscape:window-x="67"
     inkscape:window-y="27"
     inkscape:window-maximized="1" />
  <metadata
     id="metadata5">
    <rdf:RDF>
      <cc:Work
         rdf:about="">
        <dc:format>image/svg+xml</dc:format>
        <dc:type
           rdf:resource="http://purl.org/dc/dcmitype/StillImage" />
        <dc:title></dc:title>
      </cc:Work>
    </rdf:RDF>
  </metadata>
  <g
     inkscape:label="Calque 1"
     inkscape:groupmode="layer"
     id="layer1"
     transform="translate(0,-257.31248)">
    <polygon
       transform="matrix(0.07421982,0,0,0.07421982,1.257145,258.4529)"
       style="fill:#baf0ff"
       points="280.313,47.092 360.47,151.296 152.063,151.296 232.219,47.092 "
       id="polygon5468" />
    <g
       transform="matrix(0.07421982,0,0,0.07421982,1.257145,258.4529)"
       id="g5478">
      <polygon
         style="fill:#8adeff"
         points="173.104,151.296 253.26,47.092 232.219,47.092 152.063,151.296 "
         id="polygon5470" />
      <polygon
         style="fill:#8adeff"
         points="280.313,47.092 292.645,63.124 219.887,63.123 232.219,47.092 "
         id="polygon5472" />
      <polygon
         style="fill:#8adeff"
         points="164.397,135.264 348.135,135.264 360.47,151.296 152.063,151.296 "
         id="polygon5474" />
      <path
         inkscape:connector-curvature="0"
         style="fill:#8adeff"
         d="M 360.47,223.436 V 151.295 H 152.062 v 72.141 c 0,17.708 14.355,32.063 32.063,32.063 h -4.008 c -15.494,0 -28.055,12.561 -28.055,28.055 v 0 c 0,15.494 12.561,28.055 28.055,28.055 -15.494,0 -28.055,12.561 -28.055,28.055 v 0 c 0,15.494 12.561,28.055 28.055,28.055 h 4.008 c -17.708,0 -32.063,14.355 -32.063,32.063 v 64.125 c 0,17.708 14.355,32.063 32.063,32.063 h 42.929 c 5.651,4.985 13.068,8.016 21.196,8.016 h 16.031 c 8.128,0 15.544,-3.031 21.196,-8.016 h 42.929 c 17.708,0 32.063,-14.355 32.063,-32.063 v -64.125 c 0,-17.708 -14.355,-32.063 -32.063,-32.063 h 4.008 c 15.494,0 28.055,-12.561 28.055,-28.055 v 0 c 0,-15.494 -12.561,-28.055 -28.055,-28.055 15.494,0 28.055,-12.561 28.055,-28.055 v 0 c 0,-15.494 -12.561,-28.055 -28.055,-28.055 h -4.008 c 17.709,0 32.064,-14.355 32.064,-32.063 z"
         id="path5476" />
    </g>
    <g
       transform="matrix(0.07421982,0,0,0.07421982,1.257145,258.4529)"
       id="g5488">
      <path
         inkscape:connector-curvature="0"
         style="fill:#2fb6eb"
         d="m 172.102,463.906 v -64.125 c 0,-17.708 14.355,-32.063 32.063,-32.063 h -4.008 c -15.494,0 -28.055,-12.561 -28.055,-28.055 0,-15.494 12.561,-28.055 28.055,-28.055 -15.494,0 -28.055,-12.561 -28.055,-28.055 0,-15.494 12.561,-28.055 28.055,-28.055 h 4.008 c -17.708,0 -32.063,-14.355 -32.063,-32.063 v -72.141 h -20.039 v 72.141 c 0,17.708 14.355,32.063 32.063,32.063 h -4.008 c -15.494,0 -28.055,12.561 -28.055,28.055 0,15.494 12.561,28.055 28.055,28.055 -15.494,0 -28.055,12.561 -28.055,28.055 0,15.494 12.561,28.055 28.055,28.055 h 4.008 c -17.708,0 -32.063,14.355 -32.063,32.063 v 64.125 c 0,17.708 14.355,32.063 32.063,32.063 h 20.039 c -17.709,0 -32.063,-14.355 -32.063,-32.063 z"
         id="path5480" />
      <path
         inkscape:connector-curvature="0"
         style="fill:#2fb6eb"
         d="m 247.093,495.969 h -20.039 c 5.651,4.985 13.068,8.016 21.196,8.016 h 16.031 c 0.673,0 1.341,-0.028 2.004,-0.069 -7.34,-0.455 -14.009,-3.375 -19.192,-7.947 z"
         id="path5482" />
      <path
         inkscape:connector-curvature="0"
         style="fill:#2fb6eb"
         d="M 328.407,367.718 H 184.125 c -17.708,0 -32.063,14.355 -32.063,32.063 v 64.125 c 0,17.708 14.355,32.063 32.063,32.063 h 42.929 c 5.651,4.985 13.068,8.016 21.196,8.016 h 16.031 c 8.128,0 15.544,-3.031 21.196,-8.016 h 42.929 c 17.708,0 32.063,-14.355 32.063,-32.063 v -64.125 c 0.001,-17.708 -14.354,-32.063 -32.062,-32.063 z"
         id="path5484" />
      <path
         inkscape:connector-curvature="0"
         style="fill:#2fb6eb"
         d="M 332.415,311.609 H 180.117 c -15.494,0 -28.055,-12.561 -28.055,-28.055 v 0 c 0,-15.494 12.561,-28.055 28.055,-28.055 h 152.297 c 15.494,0 28.055,12.561 28.055,28.055 v 0 c 0.001,15.494 -12.56,28.055 -28.054,28.055 z"
         id="path5486" />
    </g>
    <path
       inkscape:connector-curvature="0"
       style="fill:#0097c6;stroke-width:0.07421982"
       d="m 14.030526,292.88393 v -4.75934 c 0,-1.3143 1.065424,-2.37972 2.379709,-2.37972 h -1.487291 c -1.314285,0 -2.37971,1.06542 -2.37971,2.37972 v 4.75934 c 0,1.31428 1.065425,2.37971 2.37971,2.37971 h 1.487291 c -1.314359,0 -2.379709,-1.06543 -2.379709,-2.37971 z"
       id="path5490" />
    <path
       inkscape:connector-curvature="0"
       style="fill:#00a1d3;stroke-width:0.07421982"
       d="m 19.596344,295.26364 h -1.487291 c 0.419416,0.36998 0.969904,0.59495 1.573163,0.59495 h 1.189819 c 0.04995,0 0.09952,-0.003 0.148736,-0.005 -0.544773,-0.0338 -1.039745,-0.25048 -1.424427,-0.58982 z"
       id="path5492" />
    <path
       inkscape:connector-curvature="0"
       style="fill:#0097c6;stroke-width:0.07421982"
       d="m 14.030526,279.49824 c 0,-1.14997 0.932274,-2.08224 2.082235,-2.08224 h -1.48729 c -1.149962,0 -2.082237,0.93227 -2.082237,2.08224 0,1.14995 0.932275,2.08223 2.082237,2.08223 h 1.48729 c -1.150036,0 -2.082235,-0.93228 -2.082235,-2.08223 z"
       id="path5494" />
    <rect
       x="16.707935"
       y="258.97348"
       style="fill:#ff6243;stroke-width:0.07421982"
       width="7.1390572"
       height="2.974582"
       id="rect5496" />
    <g
       transform="matrix(0.07421982,0,0,0.07421982,1.257145,258.4529)"
       id="g5502">
      <rect
         x="208.17599"
         y="7.0139999"
         style="fill:#d80027"
         width="16.031"
         height="40.077999"
         id="rect5498" />
      <rect
         x="208.17599"
         y="31.061001"
         style="fill:#d80027"
         width="96.188004"
         height="16.031"
         id="rect5500" />
    </g>
    <path
       inkscape:connector-curvature="0"
       d="m 28.559576,283.66264 c 0,-0.84544 -0.395221,-1.5987 -1.015327,-2.08224 0.620032,-0.48354 1.022304,-1.23679 1.022304,-2.08224 0,-0.89012 -0.460684,-1.67818 -1.137642,-2.15668 0.681559,-0.53839 1.102759,-1.37129 1.102759,-2.30527 v -5.54384 l -5.337075,-6.94935 h 1.172675 v -4.09012 h -8.254582 v 4.09012 h 1.246967 l -5.411368,6.94935 v 5.54399 c 0,0.934 0.457269,1.76681 1.13883,2.30528 -0.676959,0.47849 -1.110923,1.26648 -1.110923,2.15668 0,0.84543 0.404573,1.59869 1.024604,2.08223 -0.620031,0.48354 -1.017628,1.2368 -1.017628,2.08224 0,0.89011 0.425801,1.67818 1.102759,2.15667 -0.681561,0.5384 -1.137642,1.37129 -1.137642,2.30527 v 4.75935 c 0,1.61971 1.354957,2.97459 2.974583,2.97459 h 2.974582 v -0.0489 c 0.495121,0.37999 1.113818,0.64386 1.784764,0.64386 h 1.189819 c 0.670947,0 1.289642,-0.26379 1.784765,-0.64386 v 0.0489 h 2.974582 c 1.619698,0 2.900212,-1.35496 2.900212,-2.97459 v -4.75935 c 0,-0.93398 -0.420083,-1.76687 -1.101644,-2.30527 0.677034,-0.47856 1.129626,-1.26662 1.129626,-2.15682 z M 17.228212,261.42749 v -1.85913 h 6.023607 v 1.85913 z m 1.5388,1.11553 h 3.020152 l 5.091184,6.61848 h -13.20252 m 12.253101,13.01385 c 0.840612,0 1.524474,0.68386 1.524474,1.52447 0,0.84062 -0.683862,1.52449 -1.524474,1.52449 h -1.487292 v 1.11545 h 1.189818 c 1.00464,0 1.784764,0.78011 1.784764,1.78475 v 4.75935 c 0,1.00464 -0.780124,1.85913 -1.784764,1.85913 H 23.53994 c 0.172561,-0.44621 0.269567,-0.82636 0.269567,-1.26419 h -1.11545 c 0,1.00465 -0.817308,1.85913 -1.821949,1.85913 h -1.189892 c -1.004565,0 -1.821948,-0.85441 -1.821948,-1.85913 h -1.115451 c 0,0.4379 0.09708,0.81806 0.269567,1.26419 H 14.92287 c -1.004566,0 -1.859132,-0.85441 -1.859132,-1.85913 v -4.75935 c 0,-1.00464 0.854492,-1.78475 1.859132,-1.78475 h 5.949238 v -1.11545 h -6.246637 c -0.840614,0 -1.524475,-0.68387 -1.524475,-1.52449 0,-0.84061 0.683861,-1.52447 1.524475,-1.52447 h 6.246637 v -1.11545 h -6.246637 c -0.840614,0 -1.524475,-0.68387 -1.524475,-1.52447 0,-0.84062 0.683861,-1.52448 1.524475,-1.52448 h 6.246637 v -1.11546 H 14.92287 c -1.004566,0 -1.859132,-0.85442 -1.859132,-1.85913 v -4.75934 h 14.352481 v 4.75934 c 0,1.00465 -0.780124,1.85913 -1.784764,1.85913 h -1.189818 v 1.11546 h 1.487292 c 0.840612,0 1.524474,0.68386 1.524474,1.52448 0,0.8406 -0.683862,1.52447 -1.524474,1.52447 h -1.487292 v 1.11545 z"
       id="path5504"
       style="stroke-width:0.07421982" />
    <g
       transform="matrix(0.07421982,0,0,0.07421982,1.257145,258.4529)"
       id="g5516">
      <rect
         x="200.16"
         y="111.718"
         style="fill:#ffffff"
         width="16.031"
         height="15.029"
         id="rect5506" />
      <rect
         x="216.192"
         y="95.686996"
         style="fill:#ffffff"
         width="16.031"
         height="15.029"
         id="rect5508" />
      <rect
         x="280.31699"
         y="304.09399"
         style="fill:#ffffff"
         width="16.031"
         height="15.029"
         id="rect5510" />
      <rect
         x="280.31699"
         y="247.98399"
         style="fill:#ffffff"
         width="16.031"
         height="15.029"
         id="rect5512" />
      <rect
         x="280.31699"
         y="360.20401"
         style="fill:#ffffff"
         width="16.031"
         height="15.029"
         id="rect5514" />
    </g>
  </g>
</svg>
