<?xml version="1.0" encoding="UTF-8" standalone="no"?>
<!-- Created with Inkscape (http://www.inkscape.org/) -->

<svg
   xmlns:dc="http://purl.org/dc/elements/1.1/"
   xmlns:cc="http://creativecommons.org/ns#"
   xmlns:rdf="http://www.w3.org/1999/02/22-rdf-syntax-ns#"
   xmlns:svg="http://www.w3.org/2000/svg"
   xmlns="http://www.w3.org/2000/svg"
   xmlns:sodipodi="http://sodipodi.sourceforge.net/DTD/sodipodi-0.dtd"
   xmlns:inkscape="http://www.inkscape.org/namespaces/inkscape"
   width="1280"
   height="640"
   viewBox="0 0 338.66666 169.33353"
   version="1.1"
   id="svg8"
   inkscape:version="0.92.3 (2405546, 2018-03-11)"
   sodipodi:docname="clouds.svg">
  <defs
     id="defs2" />
  <sodipodi:namedview
     id="base"
     pagecolor="#ffffff"
     bordercolor="#666666"
     borderopacity="1.0"
     inkscape:pageopacity="0.0"
     inkscape:pageshadow="2"
     inkscape:zoom="0.70447443"
     inkscape:cx="821.32447"
     inkscape:cy="413.26645"
     inkscape:document-units="mm"
     inkscape:current-layer="layer1"
     showgrid="false"
     units="px"
     showguides="true"
     inkscape:guide-bbox="true"
     inkscape:window-width="1920"
     inkscape:window-height="1017"
     inkscape:window-x="-8"
     inkscape:window-y="100"
     inkscape:window-maximized="1">
    <sodipodi:guide
       position="212.80059,35.151827"
       orientation="0,1"
       id="guide821"
       inkscape:locked="false" />
    <sodipodi:guide
       position="356.14806,-0.094494159"
       orientation="0,1"
       id="guide837"
       inkscape:locked="false" />
  </sodipodi:namedview>
  <metadata
     id="metadata5">
    <rdf:RDF>
      <cc:Work
         rdf:about="">
        <dc:format>image/svg+xml</dc:format>
        <dc:type
           rdf:resource="http://purl.org/dc/dcmitype/StillImage" />
        <dc:title></dc:title>
      </cc:Work>
    </rdf:RDF>
  </metadata>
  <g
     inkscape:label="Calque 1"
     inkscape:groupmode="layer"
     id="layer1"
     transform="translate(0,-127.66645)">
    <path
       style="fill:#ffffff;stroke:none;stroke-width:0.16099609px;stroke-linecap:butt;stroke-linejoin:miter;stroke-opacity:1"
       d="m 13.423636,157.36429 c 5.440656,4.37737 -2.947022,11.5194 2.947022,14.05368 5.894044,2.53426 11.108006,-8.75476 21.989317,-5.29893 10.881311,3.45582 28.790136,1.15194 25.389726,-5.99009 -3.400411,-7.14204 -11.561392,-5.75971 -14.055026,-11.74981 -2.493635,-5.99009 -13.60164,-4.83815 -18.588907,0.69117 -4.987269,5.52932 -9.521147,-1.38233 -15.188497,-2.07349 -5.66735,-0.69117 -7.7075965,4.37737 -2.493635,10.36747 z"
       id="path927"
       inkscape:connector-curvature="0" />
    <path
       style="fill:#ffffff;stroke:none;stroke-width:0.15852156px;stroke-linecap:butt;stroke-linejoin:miter;stroke-opacity:1"
       d="m 99.171089,151.20411 c 14.658091,3.62708 17.003381,4.14524 27.264051,0.51816 10.26066,-3.62709 8.50169,9.67223 21.69397,8.63592 13.19228,-1.03631 8.79486,-10.01767 23.15979,-11.39942 14.36493,-1.38175 11.43331,-13.9902 -2.63847,-11.2267 -14.07175,2.76349 -21.10764,1.20903 -25.2119,-3.45437 -4.10427,-4.6634 -22.28031,-0.86359 -24.03928,8.11777 -1.75897,8.98136 -17.00339,2.41806 -21.987132,1.72718 -4.983755,-0.69087 -14.951251,1.38175 1.758971,7.08146 z"
       id="path929"
       inkscape:connector-curvature="0" />
    <path
       style="fill:#ffffff;stroke:none;stroke-width:0.11253274px;stroke-linecap:butt;stroke-linejoin:miter;stroke-opacity:1"
       d="m 179.99818,182.37028 c 11.89728,-1.22715 14.25075,0.9669 15.9029,4.78725 1.65216,3.82035 1.89178,7.52517 8.6491,5.51266 6.75731,-2.01249 5.95535,3.05231 8.32953,3.55361 2.37416,0.50128 10.12167,-2.38766 9.33418,-6.896 -0.7875,-4.50836 7.11414,-8.84794 9.71086,-7.46134 2.59674,1.38661 10.76935,2.94025 12.05352,-0.20638 1.28418,-3.14662 0.56232,-8.76963 -3.54967,-9.30467 -4.11201,-0.53505 -6.09799,-5.68337 -6.292,-7.83088 -0.194,-2.14751 -6.80851,-6.44601 -11.29161,0.48548 -4.48311,6.93149 -15.01003,11.14666 -16.32834,8.65428 -1.31831,-2.49237 -5.24467,-11.23172 -11.71951,-7.4077 -6.47484,3.82402 -7.13974,4.61869 -9.63372,2.26498 -2.49398,-2.3537 -14.26782,-3.78641 -15.59483,1.25353 -1.32701,5.03992 1.8519,3.92701 2.66796,7.17316 0.81607,3.24615 0.24118,6.19771 7.76163,5.42202 z"
       id="path933"
       inkscape:connector-curvature="0"
       sodipodi:nodetypes="ssssssssssssssss" />
    <path
       style="fill:#ffffff;stroke:none;stroke-width:0.08766364px;stroke-linecap:butt;stroke-linejoin:miter;stroke-opacity:1"
       d="m 264.0473,159.35429 c 4.17442,-3.11703 8.74265,-8.5535 13.29935,-6.05792 4.5567,2.49558 9.5701,2.37993 12.2466,-1.66622 2.6765,-4.04615 6.54898,-8.96311 10.05869,-6.04186 3.5097,2.92126 10.70422,6.47411 14.40839,4.55398 3.70415,-1.92013 12.54174,-0.57345 12.11893,5.57354 -0.42282,6.147 -7.20117,11.74255 -9.89223,9.70122 -2.69106,-2.04133 -10.46808,-2.39938 -12.50495,2.12622 -2.03687,4.52559 -12.94132,6.8589 -16.64361,2.12283 -3.70228,-4.73605 -6.30129,5.1058 -11.08924,5.89884 -4.78793,0.79304 -12.0579,0.79086 -13.9081,-4.90527 -1.8502,-5.69612 -6.64102,-2.92007 -7.64257,-6.89066 -1.00156,-3.97058 5.59302,-1.32742 9.54874,-4.4147 z"
       id="path935"
       inkscape:connector-curvature="0" />
    <path
       style="fill:#ffffff;stroke:none;stroke-width:0.09474991px;stroke-linecap:butt;stroke-linejoin:miter;stroke-opacity:1"
       d="m 110.7945,223.26242 c 5.94908,-3.50021 6.54516,-7.95974 11.4904,-9.45219 4.94524,-1.49245 8.1451,-1.24371 13.09033,2.86054 4.94524,4.10423 11.92675,0 15.9993,-1.7412 4.07255,-1.74119 9.74503,-3.23364 11.19951,2.36305 1.45448,5.59669 3.63621,3.48238 8.58144,4.10424 4.94524,0.62185 2.90897,5.34795 0.2909,7.33788 -2.61807,1.98994 -19.78095,12.4136 -29.96232,9.87574 -10.18137,-2.53785 -13.09033,-8.88077 -18.90826,-6.76646 -5.81793,2.1143 -22.03653,-2.5478 -11.7813,-8.5816 z"
       id="path937"
       inkscape:connector-curvature="0"
       sodipodi:nodetypes="ssssssssss" />
    <path
       style="fill:#ffffff;stroke:none;stroke-width:0.12440635px;stroke-linecap:butt;stroke-linejoin:miter;stroke-opacity:1"
       d="m 201.11161,248.55154 c 2.25303,4.93868 11.40186,2.27652 15.55454,4.42431 4.15268,2.14779 10.20774,-8.05625 17.87422,-0.0347 6.06908,6.35022 24.25345,0.33967 21.85767,-5.71319 -2.39578,-6.05288 -13.1733,-6.15456 -14.93021,-11.23116 -1.7569,-5.0766 -9.84771,-7.60163 -13.36152,-2.91554 -3.51381,4.6861 -5.45848,-3.28116 -13.87651,2.69892 -9.21856,5.31902 -17.42611,3.32833 -13.11819,12.77136 z"
       id="path927-2"
       inkscape:connector-curvature="0"
       sodipodi:nodetypes="sssssscs" />
    <path
       style="fill:#ffffff;stroke:none;stroke-width:0.16099611px;stroke-linecap:butt;stroke-linejoin:miter;stroke-opacity:1"
       d="m 320.82889,271.30564 c -5.47015,-4.34045 2.86901,-11.53907 -3.04205,-14.03341 -5.91106,-2.49432 -11.04851,8.82972 -21.95296,5.4476 -10.90445,-3.38211 -28.79727,-0.9571 -25.34861,6.16175 3.44866,7.11887 11.6001,5.68135 14.13421,11.65444 2.53411,5.97308 13.63407,4.746 18.5838,-0.81694 4.94974,-5.56294 9.53029,1.31787 15.20218,1.97067 5.6719,0.65281 7.6778,-4.42942 2.42343,-10.38411 z"
       id="path927-3"
       inkscape:connector-curvature="0" />
    <path
       style="fill:#ffffff;stroke:none;stroke-width:0.10773751px;stroke-linecap:butt;stroke-linejoin:miter;stroke-opacity:1"
       d="m 328.08571,204.96937 c -5.31039,1.19695 -9.96139,4.56636 -10.098,8.19548 -0.13661,3.62912 -1.41508,5.23417 -3.83836,4.3798 -2.42327,-0.85437 -8.59246,-7.4885 -11.3135,-4.71265 -2.72103,2.77583 -7.5116,9.33899 -13.96581,8.22165 -6.45419,-1.11735 -3.84324,3.65419 -9.3187,4.27175 -5.47548,0.61757 -1.65578,-6.51953 -4.09869,-10.27632 -2.44292,-3.75679 -7.41723,-0.53032 -14.6782,-1.78734 -7.26098,-1.25701 -9.55255,-6.4661 -4.25395,-9.40451 5.29859,-2.9384 13.71616,2.51949 16.60424,0.61328 2.88809,-1.90619 0.55919,-12.62988 7.66785,-10.06569 7.10865,2.56419 12.28439,5.2866 14.84033,1.93137 2.55596,-3.35523 12.0545,-4.87079 15.62551,-1.12163 3.57103,3.74916 8.42542,6.61885 12.60082,4.41369 4.17539,-2.20517 10.33771,3.41311 4.22646,5.34112 z"
       id="path931-9"
       inkscape:connector-curvature="0" />
    <path
       style="fill:#ffffff;stroke:none;stroke-width:0.08766364px;stroke-linecap:butt;stroke-linejoin:miter;stroke-opacity:1"
       d="m 72.032363,261.30519 c -4.153223,3.14521 -8.684562,8.61247 -13.258054,6.14778 -4.573463,-2.46469 -9.585975,-2.31512 -12.235045,1.74905 -2.64906,4.06416 -6.48817,9.00722 -10.017587,6.10978 -3.529357,-2.89744 -10.747773,-6.40153 -14.438865,-4.45638 -3.691063,1.94515 -12.5375725,0.6583 -12.1563665,-5.49141 0.3812255,-6.14972 7.1215475,-11.79101 9.8263485,-9.76793 2.704832,2.02307 10.484096,2.32849 12.490297,-2.21079 2.0062,-4.53927 12.894602,-6.94631 16.628854,-2.2354 3.734263,4.71089 6.266607,-5.14832 11.049061,-5.97374 4.782464,-0.82542 12.052283,-0.87244 13.940994,4.81104 1.888691,5.68347 6.660617,2.87507 7.689021,6.83879 1.028405,3.96371 -5.583909,1.36524 -9.518658,4.47921 z"
       id="path935-5"
       inkscape:connector-curvature="0" />
    <path
       style="fill:#ffffff;stroke:none;stroke-width:0.09474991px;stroke-linecap:butt;stroke-linejoin:miter;stroke-opacity:1"
       d="m 180.35415,275.30042 c -5.92527,3.54038 -6.49115,8.00385 -11.42618,9.52972 -4.93503,1.52588 -8.13651,1.2988 -13.10939,-2.77189 -4.9729,-4.07068 -11.92648,0.0807 -15.98715,1.84942 -4.06067,1.76871 -9.72293,3.2995 -11.21524,-2.28722 -1.49232,-5.58672 -3.65969,-3.45769 -8.60902,-4.04607 -4.94933,-0.58838 -2.94509,-5.32815 -0.34055,-7.33575 2.60455,-2.00761 19.6965,-12.54716 29.89481,-10.07826 10.19831,2.4689 13.15013,8.79199 18.95361,6.63836 5.8035,-2.15361 22.05327,2.39863 11.83911,8.50169 z"
       id="path937-8"
       inkscape:connector-curvature="0"
       sodipodi:nodetypes="ssssssssss" />
    <path
       style="fill:#ffffff;stroke:none;stroke-width:0.12440635px;stroke-linecap:butt;stroke-linejoin:miter;stroke-opacity:1"
       d="m 95.991543,195.02976 c -2.28641,-4.92332 -11.417001,-2.19932 -15.584121,-4.31896 -4.16712,-2.11964 -10.153005,8.12514 -17.873585,0.15565 -6.111909,-6.30901 -24.255202,-0.17555 -21.818509,5.86096 2.436672,6.03653 13.214644,6.06528 15.005855,11.12988 1.791211,5.06459 9.898934,7.53482 13.380954,2.82506 3.482015,-4.70977 5.480565,3.24415 13.857935,-2.79276 9.182361,-5.38127 17.403178,-3.44617 13.031471,-12.85983 z"
       id="path927-2-6"
       inkscape:connector-curvature="0"
       sodipodi:nodetypes="sssssscs" />
  </g>
</svg>
