<?xml version="1.0" encoding="UTF-8" standalone="no"?>
<!-- Created with Inkscape (http://www.inkscape.org/) -->

<svg
   xmlns:dc="http://purl.org/dc/elements/1.1/"
   xmlns:cc="http://creativecommons.org/ns#"
   xmlns:rdf="http://www.w3.org/1999/02/22-rdf-syntax-ns#"
   xmlns:svg="http://www.w3.org/2000/svg"
   xmlns="http://www.w3.org/2000/svg"
   xmlns:sodipodi="http://sodipodi.sourceforge.net/DTD/sodipodi-0.dtd"
   xmlns:inkscape="http://www.inkscape.org/namespaces/inkscape"
   width="780"
   height="740"
   viewBox="0 0 206.375 195.79167"
   version="1.1"
   id="svg8"
   sodipodi:docname="cow_v02.svg"
   inkscape:version="0.92.3 (2405546, 2018-03-11)">
  <defs
     id="defs2" />
  <sodipodi:namedview
     id="base"
     pagecolor="#ffffff"
     bordercolor="#666666"
     borderopacity="1.0"
     inkscape:pageopacity="0.0"
     inkscape:pageshadow="2"
     inkscape:zoom="1.4"
     inkscape:cx="407.22879"
     inkscape:cy="397.73003"
     inkscape:document-units="mm"
     inkscape:current-layer="layer1"
     showgrid="false"
     inkscape:snap-global="false"
     inkscape:window-width="1920"
     inkscape:window-height="1017"
     inkscape:window-x="-8"
     inkscape:window-y="100"
     inkscape:window-maximized="1"
     units="px" />
  <metadata
     id="metadata5">
    <rdf:RDF>
      <cc:Work
         rdf:about="">
        <dc:format>image/svg+xml</dc:format>
        <dc:type
           rdf:resource="http://purl.org/dc/dcmitype/StillImage" />
        <dc:title></dc:title>
      </cc:Work>
    </rdf:RDF>
  </metadata>
  <g
     inkscape:label="Calque 1"
     inkscape:groupmode="layer"
     id="layer1"
     transform="translate(0,-101.2083)">
    <path
       style="fill:#e3e2db;stroke:#000000;stroke-width:0.26458332px;stroke-linecap:butt;stroke-linejoin:miter;stroke-opacity:1"
       d="m 137.47677,163.0123 c 0,0 -2.27179,6.28084 -1.87089,8.68626 0.40091,2.40543 -0.80181,6.01357 -2.6727,7.61717 -1.87088,1.60362 -1.46998,12.02714 -0.8018,13.09622 0.66817,1.06907 1.87088,2.53907 2.13815,3.74176 0.26727,1.20272 3.74178,3.47451 2.93997,4.40997 -0.80181,0.93544 -4.81085,1.46997 -6.68174,1.20269 -1.87089,-0.26725 -2.93997,-2.67269 -3.74177,-4.40994 -0.80181,-1.73726 0.13363,-1.60362 0.13363,-1.60362 l -1.33635,-2.13815 -0.80181,0.13365 c 0,0 0.26727,-3.7418 0.93545,-6.28084 0.66817,-2.53908 1.66567,-6.74922 1.06908,-9.2208 -0.36567,-1.51493 0,-3.47451 0.4009,-6.41447 0.4009,-2.93997 1.46998,-15.10073 1.46998,-15.10073 l 8.68626,0.93544 z"
       id="path903-9"
       inkscape:connector-curvature="0"
       sodipodi:nodetypes="ccccccccccccssccc" />
    <path
       style="fill:#502d16;stroke:#000000;stroke-width:0.26458332px;stroke-linecap:butt;stroke-linejoin:miter;stroke-opacity:1"
       d="m 125.04399,192.14777 c 1.51888,0.85941 3.0669,1.75138 3.86281,1.0692 0.80654,-0.69133 1.96533,-1.02909 3.21737,-0.97515 0.035,0.11311 0.0711,0.205 0.10801,0.26409 0.66817,1.06904 1.87058,2.53917 2.13785,3.74186 0.26727,1.20275 3.74219,3.47462 2.94039,4.41008 -0.80181,0.93543 -4.81087,1.46979 -6.68176,1.2025 -1.87089,-0.26722 -2.94009,-2.67282 -3.74189,-4.41004 -0.80181,-1.73728 0.13332,-1.60354 0.13332,-1.60354 l -1.33635,-2.13786 -0.8015,0.13333 c 0,0 0.0528,-0.70716 0.16175,-1.69447 z"
       id="path903-52-1"
       inkscape:connector-curvature="0" />
    <path
       style="fill:#1a1a1a;stroke:#000000;stroke-width:0.26458332px;stroke-linecap:butt;stroke-linejoin:miter;stroke-opacity:1"
       d="m 62.219252,164.6609 c 0,0 -1.25743,6.55963 -0.48381,8.87226 0.77362,2.31265 0.15236,6.06489 -1.44354,7.94234 -1.59588,1.87749 0.43669,12.10877 1.26445,13.05969 0.82774,0.95089 2.24634,2.21382 2.69914,3.35962 0.4528,1.14584 4.24091,2.84389 3.59593,3.89365 -0.64498,1.04974 -4.52037,2.20711 -6.41002,2.23691 -1.88964,0.0298 -3.32315,-2.17793 -4.38778,-3.76773 -1.06464,-1.58981 -0.11982,-1.60472 -0.11982,-1.60472 l -1.6555,-1.90179 -0.77088,0.25789 c 0,0 -0.32356,-3.73737 -0.0623,-6.34983 0.26121,-2.61248 0.58528,-6.92704 -0.39198,-9.27428 -0.599,-1.43872 -0.54555,-3.43142 -0.61124,-6.39786 -0.0657,-2.96645 -0.91929,-15.14422 -0.91929,-15.14422 l 8.72539,-0.44004 z"
       id="path903-5-3"
       inkscape:connector-curvature="0"
       sodipodi:nodetypes="ccccccccccccssccc" />
    <ellipse
       style="opacity:0.5;vector-effect:none;fill:#999999;fill-opacity:1;fill-rule:evenodd;stroke:#000000;stroke-width:0.03027731;stroke-linecap:butt;stroke-linejoin:miter;stroke-miterlimit:15.19999981;stroke-dasharray:none;stroke-dashoffset:0;stroke-opacity:1"
       id="path1034"
       cx="23.534506"
       cy="297.608"
       rx="69.936493"
       ry="8.0295496"
       transform="matrix(0.99997606,-0.00692001,0.24415001,0.96973748,0,0)" />
    <path
       style="fill:#1a1a1a;stroke:#000000;stroke-width:0.26458332px;stroke-linecap:butt;stroke-linejoin:miter;stroke-opacity:1"
       d="m 144.18448,248.83915 c 0,0 1.25743,6.55963 0.48381,8.87226 -0.77362,2.31265 -0.15236,6.06489 1.44354,7.94234 1.59588,1.87749 -0.43669,12.10877 -1.26445,13.05969 -0.82774,0.95089 -2.24634,2.21382 -2.69914,3.35962 -0.4528,1.14584 -4.24091,2.84389 -3.59593,3.89365 0.64498,1.04974 4.52037,2.20711 6.41002,2.23691 1.88964,0.0298 3.32315,-2.17793 4.38778,-3.76773 1.06464,-1.58981 0.11982,-1.60472 0.11982,-1.60472 l 1.6555,-1.90179 0.77088,0.25789 c 0,0 0.32356,-3.73737 0.0623,-6.34983 -0.26121,-2.61248 -0.58528,-6.92704 0.39198,-9.27428 0.599,-1.43872 0.54555,-3.43142 0.61124,-6.39786 0.0657,-2.96645 0.91929,-15.14422 0.91929,-15.14422 l -8.72539,-0.44004 z"
       id="path903-5"
       inkscape:connector-curvature="0"
       sodipodi:nodetypes="ccccccccccccssccc" />
    <path
       style="fill:#e3e2db;stroke:#000000;stroke-width:0.26458332px;stroke-linecap:butt;stroke-linejoin:miter;stroke-opacity:1"
       d="m 125.989,243.31514 c 2.93996,2.27179 5.87993,4.27632 6.14719,6.28084 0.26727,2.00452 -0.53454,5.34539 1.33635,5.47902 1.87089,0.13364 1.20272,-3.20723 2.53906,-3.74177 1.33635,-0.53454 2.27179,0.13363 2.6727,1.73725 0.4009,1.60362 0,4.40995 1.33635,4.40995 1.33634,0 1.20271,-3.4745 2.27179,-3.60814 1.06908,-0.13364 4.40994,0.53454 5.21175,-1.87089 0.80181,-2.40542 -0.53454,-12.6953 -3.74177,-15.63526 -3.20724,-2.93997 -24.32153,1.06907 -17.77342,6.949 z"
       id="path922"
       inkscape:connector-curvature="0" />
    <path
       style="fill:#502d16;stroke:#000000;stroke-width:0.26458332px;stroke-linecap:butt;stroke-linejoin:miter;stroke-opacity:1"
       d="m 157.12589,205.63014 c 2.40543,2.80633 3.07361,4.54358 3.07361,6.68174 0,2.13816 -2.53907,17.50615 -2.6727,24.45516 -0.13364,6.94901 -0.53454,13.09621 -1.46998,14.43255 -0.93545,1.33635 2.27179,4.67722 4.40994,1.87089 2.13816,-2.80633 -1.46998,-16.43708 -0.8018,-20.57975 0.66817,-4.14268 3.74177,-22.04974 3.0736,-28.46421 -0.66818,-6.41446 -6.54811,-7.61718 -6.54811,-7.61718 z"
       id="path920"
       inkscape:connector-curvature="0"
       sodipodi:nodetypes="csccccccc" />
    <path
       style="fill:#e3e2db;stroke:#000000;stroke-width:0.26458332px;stroke-linecap:butt;stroke-linejoin:miter;stroke-opacity:1"
       d="m 68.926958,247.19055 c 0,0 2.271788,6.28084 1.870888,8.68626 -0.40091,2.40543 0.80181,6.01357 2.6727,7.61717 1.87088,1.60362 1.46998,12.02714 0.8018,13.09622 -0.66817,1.06907 -1.87088,2.53907 -2.13815,3.74176 -0.26727,1.20272 -3.741776,3.47451 -2.93997,4.40997 0.80181,0.93544 4.81085,1.46997 6.68174,1.20269 1.87089,-0.26725 2.93997,-2.67269 3.74177,-4.40994 0.80181,-1.73726 -0.13363,-1.60362 -0.13363,-1.60362 l 1.33635,-2.13815 0.80181,0.13365 c 0,0 -0.26727,-3.7418 -0.93545,-6.28084 -0.66817,-2.53908 -1.66567,-6.74922 -1.06908,-9.2208 0.36567,-1.51493 0,-3.47451 -0.4009,-6.41447 -0.4009,-2.93997 -1.46998,-15.10073 -1.46998,-15.10073 l -8.68626,0.93544 z"
       id="path903"
       inkscape:connector-curvature="0"
       sodipodi:nodetypes="ccccccccccccssccc" />
    <path
       style="fill:#e3e2db;stroke:#000000;stroke-width:0.26458332px;stroke-linecap:butt;stroke-linejoin:miter;stroke-opacity:1"
       d="m 41.152161,199.47945 c 5.612662,-2.13816 11.626226,-5.34539 18.307964,-5.21176 6.68174,0.13364 18.842501,1.60362 21.782461,0.93544 2.93996,-0.66817 11.22532,0.13364 15.23437,1.20272 4.009034,1.06908 14.566174,-0.66818 20.178844,-0.66818 5.61266,0 15.90254,1.20271 17.37252,0.66818 1.46998,-0.53454 5.47903,-1.73725 7.34991,-1.46999 1.87089,0.26727 11.49259,-1.20271 14.29892,0 2.80633,1.20272 3.47451,4.00905 2.53906,14.03165 -0.93544,10.02261 -4.81085,29.26602 -2.80633,34.47777 2.00452,5.21176 5.34539,9.08717 5.34539,10.82442 0,1.73725 -1.20271,3.34087 -1.20271,3.34087 0,0 -2.00452,11.75987 -1.33635,17.23888 0.66818,5.47902 1.46999,9.75535 0.66818,10.02261 -0.80181,0.26728 -0.80181,-1.06908 -2.13816,-0.53454 -1.33635,0.53454 -0.26727,3.20722 -0.66817,3.74176 -0.40091,0.53454 -3.0736,2.93997 -5.47903,3.20726 -2.40542,0.26725 -4.40994,-2.00454 -2.93996,-3.34087 1.46998,-1.33636 2.00452,-4.54359 3.4745,-5.07812 1.46998,-0.53454 2.6727,-12.69532 1.33635,-16.57073 -1.33635,-3.8754 -2.53906,-9.48806 -3.34087,-10.55714 -0.80181,-1.06908 -1.06908,-2.13816 -3.0736,-6.41447 -2.00452,-4.27631 -5.87993,-11.49259 -12.2944,-12.29439 -6.41447,-0.80181 -3.60814,5.61265 -5.34539,7.21627 -1.73725,1.60362 -11.62623,6.81537 -20.44612,6.5481 -8.819894,-0.26726 -23.386084,-6.41446 -27.395124,-6.68173 -4.00905,-0.26727 -8.01809,0.13363 -8.01809,0.13363 0,0 -3.608132,7.34991 -3.07359,11.22532 0.53453,3.87541 0.53453,5.7463 0.53453,5.7463 0,0 -2.13815,2.67268 -2.271786,5.74629 -0.133633,3.07359 -0.534537,10.69078 -0.133633,12.42804 0.400905,1.73725 0.935443,2.93997 0.133633,3.07358 -0.801806,0.13364 -1.336347,-1.60361 -2.405425,-0.53453 -1.069078,1.06907 0,3.20725 -0.400904,4.00904 -0.400905,0.80182 -3.608139,2.93997 -7.082642,2.80633 -3.474503,-0.13364 -2.939965,-2.53905 -1.603619,-2.93997 1.33635,-0.4009 2.004524,-2.00451 2.004524,-2.00451 0,0 0.133633,-2.40543 1.202711,-3.07361 1.069078,-0.66815 1.069078,-1.46997 1.069078,-1.46997 0,0 -0.935443,-1.60362 -0.133633,-2.93997 0.801809,-1.33633 2.53906,-8.81989 2.53906,-9.88896 0,-1.06908 -1.336349,-1.8709 -1.737251,-4.40995 -0.400905,-2.53907 1.069078,-11.35896 -0.400905,-12.42804 -1.469982,-1.06907 -2.939965,0.53454 -7.216277,-1.33635 -4.276313,-1.87088 -4.276313,-6.68173 -8.018087,-8.68625 -3.741773,-2.00453 -7.349912,-7.48355 -8.68626,-9.48807 -1.336347,-2.00452 -6.280833,-7.75082 -9.087163,-8.55264 -2.806329,-0.8018 3.608139,-20.84701 3.608139,-20.84701 z"
       id="path853-4"
       inkscape:connector-curvature="0" />
    <path
       style="fill:#a05a2c;stroke:none;stroke-width:0.2644881px;stroke-linecap:butt;stroke-linejoin:miter;stroke-opacity:1"
       d="m 61.761436,194.33051 c -2.602658,2.58197 -0.738545,7.8504 2.978553,9.33639 5.063297,1.95674 3.016633,8.49096 5.289407,12.54961 1.63089,2.85491 0.97927,11.88506 -3.491329,7.24607 -2.145234,-3.0116 2.647589,-3.34027 0.749284,-6.55877 1.826135,-5.27133 -0.842726,-12.61601 -7.249633,-11.90934 -3.089515,3.5075 0.956809,-5.11967 -2.654256,-4.91082 0.57065,-2.82682 -0.581103,-4.6783 -2.354233,-5.47874 -4.962856,0.88491 -9.559393,3.18864 -13.914193,4.8488 l -9.326047,1.15084 c -0.2733,0.28207 -0.509173,0.61068 -0.712105,0.97927 -0.295681,0.95832 -0.788587,2.59759 -1.332292,4.53512 -0.306252,1.58684 -0.598448,3.1765 -1.16653,4.39973 -0.0052,0.021 -0.01083,0.0415 -0.01601,0.0625 -0.582498,4.07978 -3.265123,9.71606 1.562089,12.01787 4.310815,3.53725 7.11193,7.91675 10.973336,10.8288 1.562528,1.0231 3.006927,3.60075 4.93103,1.39164 0.193124,1.83441 1.964496,7.29654 3.964347,4.34961 0.02377,-2.09694 1.361119,-5.43642 0.984759,-6.38049 1.486089,2.7625 3.761412,6.06938 6.074842,4.28346 1.84681,1.36847 -1.057482,5.01167 2.306724,3.7114 -0.787967,6.0411 6.386673,5.0785 7.446894,1.39578 3.033073,2.4442 4.281333,-5.3312 4.194653,-7.36389 1.854,-4.27711 6.27879,-4.92204 9.17423,-1.18338 3.24664,2.47326 0.14326,-4.61329 1.7041,-6.51951 -0.0519,-2.51689 -1.61162,-7.50258 1.25483,-3.13469 0.29072,2.77431 4.3494,9.25925 5.03173,3.12901 0.94106,-3.1899 1.2126,6.31202 3.55123,3.02307 0.84786,3.24391 3.0228,1.34419 4.29587,-0.0909 1.0194,3.29089 3.5672,5.4022 6.439924,3.61166 3.82759,1.77793 0.7841,-5.83358 4.53392,-1.80196 2.10621,-0.10864 4.87303,1.53546 2.27213,-1.61592 -2.92754,-4.66764 5.96652,-4.46399 4.11202,0.43873 1.3673,3.11058 8.61934,5.20399 9.10556,0.64648 -0.89426,-3.39871 1.56616,-8.092 -3.07977,-9.79992 -2.56573,-1.8104 -1.34492,3.5636 -4.48022,1.09864 -4.79751,1.66985 -2.06294,-9.51714 1.72424,-4.94026 1.25979,-3.26746 4.43165,-3.14316 4.10738,0.61442 2.16939,3.70207 4.09138,8.2374 9.17423,7.58146 1.8982,-2.97803 1.29125,-11.09368 -3.13864,-13.30049 -3.00857,2.54066 -3.20777,-3.24536 -6.68624,-1.13945 -4.00426,-2.29607 -0.31923,-6.88747 0.37955,-9.7095 1.33109,-6.70001 -6.25344,-2.60865 -9.41074,-3.98218 -1.9382,-0.25177 -6.03596,1.88851 -2.34597,-0.95653 3.03933,-1.67948 7.14101,2.03127 10.59844,-0.80925 2.9896,-0.19865 1.42827,4.91087 5.62248,3.90209 3.46857,-0.76485 0.91522,4.85561 3.04826,6.71276 2.78039,4.36248 5.68882,8.64579 8.23026,13.24106 1.51103,2.35156 5.30115,0.54803 7.24085,2.72644 4.614,-3.43428 -3.17168,-9.68064 2.6047,-13.08034 1.64432,-5.42888 3.96779,3.9868 2.10946,6.16604 -1.14905,3.50993 2.30518,3.47893 3.94781,4.52272 -0.63335,3.21213 -1.79938,7.30793 2.65633,5.5733 0.59484,-0.44891 1.02795,-1.07379 1.3483,-1.82056 0.37929,-2.76774 0.7794,-5.53148 1.13399,-8.11372 0.0831,-1.07841 0.19736,-2.12173 0.40434,-3.06234 0.17189,-1.36172 0.32158,-2.64725 0.42912,-3.80029 0.93478,-10.0226 0.26728,-12.82898 -2.53703,-14.0317 -2.80431,-1.20271 -12.41904,0.26727 -14.28858,0 -1.86953,-0.26726 -5.87573,0.93514 -7.34465,1.46968 -1.46892,0.53453 -11.75146,-0.66818 -17.36008,-0.66818 -5.60863,0 -16.15794,1.73726 -20.164084,0.66818 -2.15589,-0.57532 -5.54701,-1.0702 -8.67952,-1.30328 0.27746,1.09397 -1.7594,3.69126 -2.0129,1.23713 -2.19572,-1.51085 0.29628,-0.36794 0.8505,-1.31206 -2.23019,-0.11994 -4.22333,-0.0878 -5.38185,0.1757 -2.61977,0.59584 -12.557118,-0.50609 -19.414801,-0.84698 z m 25.15761,4.70152 c 5.1286,0.11214 0.0773,8.01018 -2.43686,4.36047 0.16747,-1.8276 5.10103,-2.8078 1.90859,-4.34652 0.18705,-0.0132 0.36282,-0.0176 0.52827,-0.014 z m -10.67745,3.68919 c -0.25159,3.75793 4.78013,2.06445 2.51844,5.77949 1.63445,1.49132 -1.03824,5.62441 -1.3483,5.49165 -1.84079,-4.23363 -4.74744,3.72025 -4.17813,-1.28623 4.01474,-1.95308 2.63857,-6.25531 2.37386,-9.26506 z"
       id="path853-4-9"
       inkscape:connector-curvature="0" />
    <path
       style="fill:#a05a2c;stroke:#000000;stroke-width:0.26458332px;stroke-linecap:butt;stroke-linejoin:miter;stroke-opacity:1"
       d="m 14.230805,202.22243 c -1.039435,-0.75595 -5.2916683,0.37798 -7.2760433,-0.18899 -1.984375,-0.56696 -6.52008999,-6.42559 -6.23660699,-7.55952 0.28348199,-1.13393 5.48065499,-2.07887 8.12648899,-0.94494 2.6458333,1.13393 3.7797603,3.02381 4.7247023,3.49628 0.944941,0.47247 2.929316,-0.94494 2.929316,-0.94494 l -0.750221,-1.52337 1.561527,-3.56785 c 0,0 2.873962,-1.61786 4.858337,-1.52337 1.984374,0.0945 5.102677,0.0945 5.858631,0.47247 0.755952,0.37798 2.740327,0.94495 3.307292,1.41741 l 1.889881,3.59077 -0.566965,1.03945 3.307295,1.03943 2.645833,-1.88988 0.755952,-1.6064 c 0,0 6.992559,-1.32292 8.126486,0.66146 1.133931,1.98437 -3.307291,7.37053 -4.630208,7.843 -1.322916,0.47247 -3.307291,-0.18899 -3.874254,0.66146 -0.566965,0.85045 -3.098484,-0.36377 -3.590774,0.75595 -1.351953,3.07504 -0.145712,9.00594 -0.94494,10.77233 -0.789495,1.74487 -1.984376,2.74032 -3.401786,4.6302 -1.417412,1.88988 -1.538543,2.02103 -1.889881,3.2128 -0.427896,1.45146 1.063785,3.73137 -0.188989,4.53571 -1.603923,1.0298 -4.346726,1.7009 -4.346726,1.7009 l -1.700893,-0.28348 -1.700892,0.18898 -1.133928,-0.56696 -1.889881,0.0945 c 0,0 -1.795389,-0.75595 -1.984375,-1.5119 -0.18899,-0.75596 1.322916,-3.68527 1.039434,-4.25223 -0.283483,-0.56697 0.377976,-2.83483 0.377976,-2.83483 0,0 -0.850445,-3.87425 -1.41741,-5.76413 -0.566965,-1.88988 -0.377976,-4.44122 -0.566965,-5.19717 -0.188987,-0.75596 -1.228424,-3.3073 -0.755952,-4.34673 0.472469,-1.03943 -0.283483,-1.32292 -0.661458,-1.6064 z"
       id="path826"
       inkscape:connector-curvature="0"
       sodipodi:nodetypes="ccsssccccccccccccscsssssccccccccscccc" />
    <path
       style="fill:#e9ddaf;stroke:#000000;stroke-width:0.26458332px;stroke-linecap:butt;stroke-linejoin:miter;stroke-opacity:1"
       d="m 31.408999,191.66531 c 0,0 0.100227,0.90203 -0.100227,1.23612 -0.200451,0.33409 0.267269,0.73499 0.267269,0.73499 0,0 0.7684,0.30068 1.035672,0.46772 0.267269,0.16705 -0.935445,0 -0.968854,0.30068 -0.03341,0.30068 1.035669,0.20045 1.369756,0.3675 0.334087,0.16704 2.806332,-0.90204 3.173828,-1.63703 0.367495,-0.73499 0.200451,-1.97111 -0.701583,-3.20723 -0.902036,-1.23612 -2.939965,-2.17157 -3.040192,-1.80407 -0.100227,0.36749 1.135896,1.50339 1.202714,1.80407 0.06682,0.30068 0.167042,0.96885 0.167042,0.96885 0,0 -1.23612,-0.3675 -2.405425,0.7684 z"
       id="path830"
       inkscape:connector-curvature="0" />
    <path
       style="fill:#e9ddaf;stroke:#000000;stroke-width:0.26458332px;stroke-linecap:butt;stroke-linejoin:miter;stroke-opacity:1"
       d="m 15.840548,194.63868 0.935445,-1.00226 -0.200454,-0.63476 0.56795,-0.33409 0.167042,-0.90204 -0.03341,-0.4009 0.367495,-0.43431 c 0,0 -1.603615,-0.23386 -2.171565,-0.13364 -0.567946,0.10023 -1.670433,-0.0668 -1.804069,-0.4009 -0.133633,-0.33409 0.701582,-1.36976 0.400905,-1.77066 -0.300678,-0.40091 -2.906558,1.57021 -2.739513,2.80633 0.167042,1.23612 1.570207,2.3052 2.204975,2.57247 0.634764,0.26727 2.305198,0.63476 2.305199,0.63476 z"
       id="path832"
       inkscape:connector-curvature="0" />
    <path
       style="fill:#f9f9f9;stroke:none;stroke-width:0.26458332px;stroke-linecap:butt;stroke-linejoin:miter;stroke-opacity:1"
       d="m 18.105061,192.86752 1.039434,0.66146 -0.661458,0.75595 0.472469,0.0945 -0.377976,0.56697 0.236236,0.23623 -0.141742,0.56697 0.519718,0.66146 -0.188989,0.8032 0.330729,0.51971 -0.14174,0.37798 0.519716,0.33073 -0.188987,0.75595 0.519716,1.18118 0.283482,0.23623 0.04725,0.8977 0.472472,0.89769 -0.188989,1.03943 0.519718,0.23624 0.14174,1.32291 0.377976,-0.0945 -0.14174,1.65365 0.566965,1.32291 -0.283483,0.99219 v 0.8032 l -0.283482,0.75595 0.755951,0.56697 0.0945,0.94494 0.188987,0.23623 -0.425222,0.47247 0.377975,0.99219 0.09449,0.99219 c 0,0 -0.803199,0.37797 -0.708705,0.85044 0.09449,0.47248 0.425222,0.75596 0.236236,1.03944 -0.18899,0.28348 -0.472472,0.14174 -0.661459,0.37797 -0.188989,0.23624 0.425223,0.70871 -0.04725,0.99219 -0.472472,0.28348 -0.944941,-0.0945 -1.181177,0.33073 -0.236236,0.42523 -0.661458,1.51191 -1.133928,1.84264 -0.472471,0.33072 -1.559152,1.46465 -0.8032,2.12611 0.755954,0.66146 0.661458,0.28348 1.228423,0.42523 0.566965,0.14174 0.661458,0.75595 1.464656,0.7087 0.803201,-0.0472 1.842635,-0.56696 2.409601,-1.08668 0.566962,-0.51972 0.755951,0.28348 1.133927,0.18899 0.377976,-0.0945 0.377976,-0.47247 0.803201,-0.33073 0.425222,0.14174 0.850445,0.8032 1.228421,0.33073 0.377975,-0.47247 -0.09449,-1.65365 -0.519716,-1.98438 -0.425225,-0.33073 -1.370163,-0.0945 -1.370163,-0.8032 0,-0.7087 -0.0945,-1.03943 -0.519719,-1.22842 -0.425222,-0.18899 -0.377976,-0.89769 -0.661458,-1.03943 -0.283483,-0.14175 0,-0.66146 -0.472469,-1.55916 -0.472472,-0.89769 0.803198,-1.84263 0.425222,-2.07887 -0.377976,-0.23623 -0.614212,-1.22842 -0.377976,-1.5119 0.236234,-0.28348 -0.283482,-1.41741 0.09449,-1.37016 0.377975,0.0472 1.039434,-0.47247 0.708705,-0.99219 -0.33073,-0.51972 -0.09449,-0.61421 0.188989,-0.8032 0.283482,-0.18899 -0.0945,-0.47247 -0.04725,-0.85045 0.04725,-0.37797 -0.0945,-1.03943 0.377976,-1.03943 0.472469,0 0.04725,-0.94494 0.04725,-0.94494 0,0 0.236236,-0.42523 0.04725,-0.75595 -0.188989,-0.33073 0.14174,-1.03944 0.614212,-1.03944 0.472469,0 0.850445,-1.18118 0.944941,-1.65364 0.09449,-0.47248 0.188986,-1.7009 0.803198,-1.84264 0.614212,-0.14174 0.141743,-1.27567 0.141743,-1.27567 l 0.850445,-0.18899 c 0,0 1.08668,-1.32291 1.039434,-1.79538 -0.04725,-0.47247 -0.236234,-1.41741 -0.09449,-1.51191 0.14174,-0.0945 0.755952,-0.14174 0.755952,-0.14174 l -0.236233,-0.33073 0.188986,-0.47247 -0.377975,-0.23623 c 0,0 0.661458,-0.75596 0.519718,-1.03944 -0.141743,-0.28348 -0.708708,-0.85045 -0.377978,-0.85045 0.330729,0 1.228423,0 1.322916,-0.33073 0.0945,-0.33072 -1.228421,0.0945 -1.55915,-0.0472 -0.330729,-0.14174 0.09449,-0.56696 0.09449,-0.56696 0,0 -1.842635,0.47246 -2.456844,0.23623 -0.614212,-0.23623 -0.236236,-1.18118 -0.425226,-1.22842 -0.188986,-0.0472 -0.425222,0.85044 -0.94494,0.85044 -0.519716,0 -1.55915,0.23624 -1.842633,0.70871 -0.283482,0.47247 -0.472472,-0.0945 -0.803201,-0.0473 -0.330729,0.0473 -0.04725,0.28348 -0.519715,0.33073 -0.472472,0.0472 -0.897695,-0.7087 -1.27567,-0.7087 -0.377976,0 -1.370164,0.37797 -1.6064,0.0472 -0.236236,-0.33073 0.18899,0.56697 -0.04725,0.56697 -0.236236,0 -0.803199,-0.14175 -1.133928,-0.0472 z"
       id="path834"
       inkscape:connector-curvature="0" />
    <ellipse
       style="opacity:1;vector-effect:none;fill:#000000;fill-opacity:1;fill-rule:evenodd;stroke:#000000;stroke-width:0.03180885;stroke-linecap:butt;stroke-linejoin:miter;stroke-miterlimit:15.19999981;stroke-dasharray:none;stroke-dashoffset:0;stroke-opacity:1"
       id="path836"
       cx="31.641331"
       cy="204.84476"
       rx="1.0508282"
       ry="1.1076298" />
    <ellipse
       style="opacity:1;vector-effect:none;fill:#000000;fill-opacity:1;fill-rule:evenodd;stroke:#000000;stroke-width:0.02645833;stroke-linecap:butt;stroke-linejoin:miter;stroke-miterlimit:15.19999981;stroke-dasharray:none;stroke-dashoffset:0;stroke-opacity:1"
       id="path836-3"
       cx="15.884448"
       cy="204.86838"
       rx="0.87406993"
       ry="0.92131698" />
    <path
       style="fill:#e3e2db;stroke:none;stroke-width:0.26458332px;stroke-linecap:butt;stroke-linejoin:miter;stroke-opacity:1"
       d="m 125.59203,244.03604 c 1.65365,0.0945 3.77976,1.13393 5.33891,2.83483 1.55916,1.70089 8.59896,-3.30729 6.80358,-6.23661 -1.79539,-2.92932 -2.78758,-4.20499 -12.09524,-3.77976 -9.30766,0.42522 -3.44903,6.80357 -0.0472,7.18154 z"
       id="path924"
       inkscape:connector-curvature="0"
       sodipodi:nodetypes="cccccc" />
    <path
       style="fill:#552200;stroke:#000000;stroke-width:0.26458332px;stroke-linecap:butt;stroke-linejoin:miter;stroke-opacity:1"
       d="m 62.23533,278.252 c -0.651222,-0.003 -1.333714,0.10279 -2.01073,0.32247 0.128519,0.39524 0.276984,0.6594 0.276984,0.6594 0,0 5.29e-4,0.80152 -1.068668,1.46968 -1.069078,0.66818 -1.203026,3.07371 -1.203026,3.07371 0,0 -0.668178,1.60362 -2.004528,2.00451 -1.336347,0.40093 -1.870985,2.80625 1.603518,2.93989 3.474503,0.13365 6.681867,-2.00421 7.082771,-2.80603 0.400905,-0.8018 -0.668067,-2.94 0.401011,-4.00908 1.069078,-1.06907 1.603732,0.668 2.405538,0.53436 0.80181,-0.13362 0.267063,-1.33647 -0.133842,-3.07372 -0.0249,-0.10787 -0.04666,-0.23844 -0.06563,-0.38912 -0.963959,0.46516 -1.826532,0.71014 -2.35541,0.25683 -0.744144,-0.63783 -1.787692,-0.97666 -2.927988,-0.9829 z m 96.175,1.01391 c -1.16271,0.007 -2.34404,0.93779 -2.34404,2.23707 0,2.06563 -3.73027,1.70469 -4.14858,-0.15401 -0.24929,0.83939 -0.52496,1.3888 -0.81132,1.49294 -1.46998,0.53454 -2.00474,3.74187 -3.47472,5.07825 -1.46998,1.33633 0.53445,3.60813 2.93987,3.34087 2.40543,-0.26728 5.07834,-2.67301 5.47925,-3.20754 0.4009,-0.53454 -0.66817,-3.20686 0.66818,-3.7414 1.33635,-0.53454 1.33604,0.80164 2.13785,0.53435 0.56346,-0.18782 0.33069,-2.37807 -0.0868,-5.55161 -0.11892,-0.0196 -0.239,-0.0297 -0.35967,-0.0289 z"
       id="path853-4-8"
       inkscape:connector-curvature="0" />
    <path
       style="fill:#502d16;stroke:#000000;stroke-width:0.26458332px;stroke-linecap:butt;stroke-linejoin:miter;stroke-opacity:1"
       d="m 81.359744,276.32602 c -1.518883,0.85941 -3.066907,1.75138 -3.862814,1.0692 -0.806537,-0.69133 -1.96533,-1.02909 -3.217375,-0.97515 -0.03495,0.11311 -0.07109,0.205 -0.108003,0.26409 -0.668171,1.06904 -1.870583,2.53917 -2.137855,3.74186 -0.267268,1.20275 -3.742192,3.47462 -2.940388,4.41008 0.801809,0.93543 4.810873,1.46979 6.681763,1.2025 1.87089,-0.26722 2.94009,-2.67282 3.741891,-4.41004 0.801809,-1.73728 -0.133326,-1.60354 -0.133326,-1.60354 l 1.336352,-2.13786 0.801503,0.13333 c 0,0 -0.05276,-0.70716 -0.161748,-1.69447 z"
       id="path903-52"
       inkscape:connector-curvature="0" />
    <path
       style="fill:#e3e2db;stroke:#000000;stroke-width:0.26458332px;stroke-linecap:butt;stroke-linejoin:miter;stroke-opacity:1"
       d="m 80.414732,159.13689 c -2.93996,2.27179 -5.87993,4.27632 -6.14719,6.28084 -0.26727,2.00452 0.53454,5.34539 -1.33635,5.47902 -1.87089,0.13364 -1.20272,-3.20723 -2.53906,-3.74177 -1.33635,-0.53454 -2.27179,0.13363 -2.6727,1.73725 -0.4009,1.60362 0,4.40995 -1.33635,4.40995 -1.33634,0 -1.20271,-3.4745 -2.27179,-3.60814 -1.06908,-0.13364 -4.40994,0.53454 -5.21175,-1.87089 -0.80181,-2.40542 0.53454,-12.6953 3.74177,-15.63526 3.20724,-2.93997 24.321527,1.06907 17.77342,6.949 z"
       id="path922-9"
       inkscape:connector-curvature="0" />
    <path
       style="fill:#502d16;stroke:#000000;stroke-width:0.26458332px;stroke-linecap:butt;stroke-linejoin:miter;stroke-opacity:1"
       d="m 49.277842,121.45189 c -2.40543,2.80633 -3.07361,4.54358 -3.07361,6.68174 0,2.13816 2.53907,17.50615 2.6727,24.45516 0.13364,6.94901 0.53454,13.09621 1.46998,14.43255 0.93545,1.33635 -2.27179,4.67722 -4.40994,1.87089 -2.13816,-2.80633 1.46998,-16.43708 0.8018,-20.57975 -0.66817,-4.14268 -3.74177,-22.04974 -3.0736,-28.46421 0.66818,-6.41446 6.54811,-7.61718 6.54811,-7.61718 z"
       id="path920-8"
       inkscape:connector-curvature="0"
       sodipodi:nodetypes="csccccccc" />
    <path
       style="fill:#e3e2db;stroke:#000000;stroke-width:0.26458332px;stroke-linecap:butt;stroke-linejoin:miter;stroke-opacity:1"
       d="m 165.25157,115.3012 c -5.61267,-2.13816 -11.62623,-5.34539 -18.30797,-5.21176 -6.68174,0.13364 -18.8425,1.60362 -21.78246,0.93544 -2.93996,-0.66817 -11.22532,0.13364 -15.23437,1.20272 -4.00903,1.06908 -14.566171,-0.66818 -20.178841,-0.66818 -5.61266,0 -15.902537,1.20271 -17.372517,0.66818 -1.46998,-0.53454 -5.47903,-1.73725 -7.34991,-1.46999 -1.87089,0.26727 -11.49259,-1.20271 -14.29892,0 -2.80633,1.20272 -3.47451,4.00905 -2.53906,14.03165 0.93544,10.02261 4.81085,29.26602 2.80633,34.47777 -2.00452,5.21176 -5.34539,9.08717 -5.34539,10.82442 0,1.73725 1.20271,3.34087 1.20271,3.34087 0,0 2.00452,11.75987 1.33635,17.23888 -0.66818,5.47902 -1.46999,9.75535 -0.66818,10.02261 0.80181,0.26728 0.80181,-1.06908 2.13816,-0.53454 1.33635,0.53454 0.26727,3.20722 0.66817,3.74176 0.40091,0.53454 3.0736,2.93997 5.47903,3.20726 2.40542,0.26725 4.40994,-2.00454 2.93996,-3.34087 -1.46998,-1.33636 -2.00452,-4.54359 -3.4745,-5.07812 -1.46998,-0.53454 -2.6727,-12.69532 -1.33635,-16.57073 1.33635,-3.8754 2.53906,-9.48806 3.34087,-10.55714 0.80181,-1.06908 1.06908,-2.13816 3.0736,-6.41447 2.00452,-4.27631 5.87993,-11.49259 12.2944,-12.29439 6.41447,-0.80181 3.60814,5.61265 5.34539,7.21627 1.73725,1.60362 11.626227,6.81537 20.446119,6.5481 8.819889,-0.26726 23.386079,-6.41446 27.395119,-6.68173 4.00905,-0.26727 8.01809,0.13363 8.01809,0.13363 0,0 3.60813,7.34991 3.07359,11.22532 -0.53453,3.87541 -0.53453,5.7463 -0.53453,5.7463 0,0 2.13815,2.67268 2.27179,5.74629 0.13363,3.07359 0.53454,10.69078 0.13363,12.42804 -0.4009,1.73725 -0.93544,2.93997 -0.13363,3.07358 0.8018,0.13364 1.33634,-1.60361 2.40542,-0.53453 1.06908,1.06907 0,3.20725 0.40091,4.00904 0.4009,0.80182 3.60814,2.93997 7.08264,2.80633 3.4745,-0.13364 2.93996,-2.53905 1.60362,-2.93997 -1.33635,-0.4009 -2.00453,-2.00451 -2.00453,-2.00451 0,0 -0.13363,-2.40543 -1.20271,-3.07361 -1.06907,-0.66815 -1.06907,-1.46997 -1.06907,-1.46997 0,0 0.93544,-1.60362 0.13363,-2.93997 -0.80181,-1.33633 -2.53906,-8.81989 -2.53906,-9.88896 0,-1.06908 1.33635,-1.8709 1.73725,-4.40995 0.4009,-2.53907 -1.06908,-11.35896 0.4009,-12.42804 1.46999,-1.06907 2.93997,0.53454 7.21628,-1.33635 4.27631,-1.87088 4.27631,-6.68173 8.01809,-8.68625 3.74178,-2.00453 7.34991,-7.48355 8.68626,-9.48807 1.33635,-2.00452 6.28083,-7.75082 9.08716,-8.55264 2.80633,-0.8018 -3.60814,-20.84701 -3.60814,-20.84701 z"
       id="path853-4-93"
       inkscape:connector-curvature="0" />
    <path
       style="fill:#a05a2c;stroke:none;stroke-width:0.2644881px;stroke-linecap:butt;stroke-linejoin:miter;stroke-opacity:1"
       d="m 144.64229,110.15226 c 2.60266,2.58197 0.73855,7.8504 -2.97855,9.33639 -5.0633,1.95674 -3.01663,8.49096 -5.28941,12.54961 -1.63089,2.85491 -0.97927,11.88506 3.49133,7.24607 2.14523,-3.0116 -2.64759,-3.34027 -0.74928,-6.55877 -1.82614,-5.27133 0.84272,-12.61601 7.24963,-11.90934 3.08952,3.5075 -0.95681,-5.11967 2.65426,-4.91082 -0.57065,-2.82682 0.5811,-4.6783 2.35423,-5.47874 4.96285,0.88491 9.55939,3.18864 13.9142,4.8488 l 9.32604,1.15084 c 0.2733,0.28207 0.50918,0.61068 0.71211,0.97927 0.29568,0.95832 0.78859,2.59759 1.33229,4.53512 0.30625,1.58684 0.59845,3.1765 1.16653,4.39973 0.005,0.021 0.0108,0.0415 0.016,0.0625 0.5825,4.07978 3.26512,9.71606 -1.56209,12.01787 -4.31081,3.53725 -7.11193,7.91675 -10.97334,10.8288 -1.56253,1.0231 -3.00693,3.60075 -4.93103,1.39164 -0.19312,1.83441 -1.9645,7.29654 -3.96435,4.34961 -0.0238,-2.09694 -1.36111,-5.43642 -0.98475,-6.38049 -1.4861,2.7625 -3.76142,6.06938 -6.07485,4.28346 -1.84681,1.36847 1.05749,5.01167 -2.30672,3.7114 0.78797,6.0411 -6.38667,5.0785 -7.44689,1.39578 -3.03308,2.4442 -4.28134,-5.3312 -4.19466,-7.36389 -1.854,-4.27711 -6.27879,-4.92204 -9.17423,-1.18338 -3.24664,2.47326 -0.14326,-4.61329 -1.7041,-6.51951 0.0519,-2.51689 1.61162,-7.50258 -1.25483,-3.13469 -0.29072,2.77431 -4.3494,9.25925 -5.03173,3.12901 -0.94106,-3.1899 -1.2126,6.31202 -3.55123,3.02307 -0.84786,3.24391 -3.0228,1.34419 -4.29587,-0.0909 -1.0194,3.29089 -3.5672,5.4022 -6.43992,3.61166 -3.82759,1.77793 -0.7841,-5.83358 -4.533919,-1.80196 -2.106212,-0.10864 -4.873032,1.53546 -2.272132,-1.61592 2.927541,-4.66764 -5.96652,-4.46399 -4.11202,0.43873 -1.3673,3.11058 -8.61934,5.20399 -9.10556,0.64648 0.89426,-3.39871 -1.56616,-8.092 3.07977,-9.79992 2.56573,-1.8104 1.34492,3.5636 4.48022,1.09864 4.79751,1.66985 2.06294,-9.51714 -1.72424,-4.94026 -1.25979,-3.26746 -4.43165,-3.14316 -4.10738,0.61442 -2.16939,3.70207 -4.091377,8.2374 -9.174227,7.58146 -1.8982,-2.97803 -1.29125,-11.09368 3.13864,-13.30049 3.008567,2.54066 3.207767,-3.24536 6.686237,-1.13945 4.00426,-2.29607 0.31923,-6.88747 -0.37955,-9.7095 -1.33109,-6.70001 6.25344,-2.60865 9.41074,-3.98218 1.9382,-0.25177 6.035961,1.88851 2.34597,-0.95653 -3.03933,-1.67948 -7.14101,2.03127 -10.59844,-0.80925 -2.9896,-0.19865 -1.42827,4.91087 -5.622477,3.90209 -3.46857,-0.76485 -0.91522,4.85561 -3.04826,6.71276 -2.78039,4.36248 -5.68882,8.64579 -8.23026,13.24106 -1.51103,2.35156 -5.30115,0.54803 -7.24085,2.72644 -4.614,-3.43428 3.17168,-9.68064 -2.6047,-13.08034 -1.64432,-5.42888 -3.96779,3.9868 -2.10946,6.16604 1.14905,3.50993 -2.30518,3.47893 -3.94781,4.52272 0.63335,3.21213 1.79938,7.30793 -2.65633,5.5733 -0.59484,-0.44891 -1.02795,-1.07379 -1.3483,-1.82056 -0.37929,-2.76774 -0.7794,-5.53148 -1.13399,-8.11372 -0.0831,-1.07841 -0.19736,-2.12173 -0.40434,-3.06234 -0.17189,-1.36172 -0.32158,-2.64725 -0.42912,-3.80029 -0.93478,-10.0226 -0.26728,-12.82898 2.53703,-14.0317 2.80431,-1.20271 12.41904,0.26727 14.28858,0 1.86953,-0.26726 5.87573,0.93514 7.34465,1.46968 1.46892,0.53453 11.751457,-0.66818 17.360077,-0.66818 5.60863,0 16.157941,1.73726 20.164081,0.66818 2.15589,-0.57532 5.54701,-1.0702 8.67952,-1.30328 -0.27746,1.09397 1.7594,3.69126 2.0129,1.23713 2.19572,-1.51085 -0.29628,-0.36794 -0.8505,-1.31206 2.23019,-0.11994 4.22333,-0.0878 5.38185,0.1757 2.61977,0.59584 12.55712,-0.50609 19.4148,-0.84698 z m -25.15761,4.70152 c -5.1286,0.11214 -0.0773,8.01018 2.43686,4.36047 -0.16747,-1.8276 -5.10103,-2.8078 -1.90859,-4.34652 -0.18705,-0.0132 -0.36282,-0.0176 -0.52827,-0.014 z m 10.67745,3.68919 c 0.25159,3.75793 -4.78013,2.06445 -2.51844,5.77949 -1.63445,1.49132 1.03824,5.62441 1.3483,5.49165 1.84079,-4.23363 4.74744,3.72025 4.17813,-1.28623 -4.01474,-1.95308 -2.63857,-6.25531 -2.37386,-9.26506 z"
       id="path853-4-9-4"
       inkscape:connector-curvature="0" />
    <path
       style="fill:#a05a2c;stroke:#000000;stroke-width:0.26458332px;stroke-linecap:butt;stroke-linejoin:miter;stroke-opacity:1"
       d="m 192.17293,118.04418 c 1.03943,-0.75595 5.29166,0.37798 7.27604,-0.18899 1.98438,-0.56696 6.52009,-6.42559 6.23661,-7.55952 -0.28348,-1.13393 -5.48066,-2.07887 -8.12649,-0.94494 -2.64584,1.13393 -3.77976,3.02381 -4.7247,3.49628 -0.94495,0.47247 -2.92932,-0.94494 -2.92932,-0.94494 l 0.75022,-1.52337 -1.56153,-3.56785 c 0,0 -2.87396,-1.61786 -4.85833,-1.52337 -1.98438,0.0945 -5.10268,0.0945 -5.85863,0.47247 -0.75596,0.37798 -2.74033,0.94495 -3.3073,1.41741 l -1.88988,3.59077 0.56697,1.03945 -3.3073,1.03943 -2.64583,-1.88988 -0.75595,-1.6064 c 0,0 -6.99257,-1.32292 -8.12649,0.66146 -1.13393,1.98437 3.30729,7.37053 4.63021,7.843 1.32292,0.47247 3.30729,-0.18899 3.87425,0.66146 0.56697,0.85045 3.09849,-0.36377 3.59078,0.75595 1.35195,3.07504 0.14571,9.00594 0.94494,10.77233 0.78949,1.74487 1.98437,2.74032 3.40178,4.6302 1.41742,1.88988 1.53855,2.02103 1.88988,3.2128 0.4279,1.45146 -1.06378,3.73137 0.18899,4.53571 1.60393,1.0298 4.34673,1.7009 4.34673,1.7009 l 1.70089,-0.28348 1.70089,0.18898 1.13393,-0.56696 1.88988,0.0945 c 0,0 1.79539,-0.75595 1.98438,-1.5119 0.18899,-0.75596 -1.32292,-3.68527 -1.03944,-4.25223 0.28349,-0.56697 -0.37797,-2.83483 -0.37797,-2.83483 0,0 0.85044,-3.87425 1.41741,-5.76413 0.56696,-1.88988 0.37797,-4.44122 0.56696,-5.19717 0.18899,-0.75596 1.22843,-3.3073 0.75596,-4.34673 -0.47247,-1.03943 0.28348,-1.32292 0.66145,-1.6064 z"
       id="path826-8"
       inkscape:connector-curvature="0"
       sodipodi:nodetypes="ccsssccccccccccccscsssssccccccccscccc" />
    <path
       style="fill:#e9ddaf;stroke:#000000;stroke-width:0.26458332px;stroke-linecap:butt;stroke-linejoin:miter;stroke-opacity:1"
       d="m 174.99473,107.48706 c 0,0 -0.10023,0.90203 0.10023,1.23612 0.20045,0.33409 -0.26727,0.73499 -0.26727,0.73499 0,0 -0.7684,0.30068 -1.03567,0.46772 -0.26727,0.16705 0.93544,0 0.96885,0.30068 0.0334,0.30068 -1.03567,0.20045 -1.36975,0.3675 -0.33409,0.16704 -2.80634,-0.90204 -3.17383,-1.63703 -0.3675,-0.73499 -0.20045,-1.97111 0.70158,-3.20723 0.90204,-1.23612 2.93997,-2.17157 3.0402,-1.80407 0.10022,0.36749 -1.1359,1.50339 -1.20272,1.80407 -0.0668,0.30068 -0.16704,0.96885 -0.16704,0.96885 0,0 1.23612,-0.3675 2.40542,0.7684 z"
       id="path830-2"
       inkscape:connector-curvature="0" />
    <path
       style="fill:#e9ddaf;stroke:#000000;stroke-width:0.26458332px;stroke-linecap:butt;stroke-linejoin:miter;stroke-opacity:1"
       d="m 190.56318,110.46043 -0.93544,-1.00226 0.20045,-0.63476 -0.56795,-0.33409 -0.16704,-0.90204 0.0334,-0.4009 -0.36749,-0.43431 c 0,0 1.60361,-0.23386 2.17156,-0.13364 0.56795,0.10023 1.67043,-0.0668 1.80407,-0.4009 0.13363,-0.33409 -0.70158,-1.36976 -0.40091,-1.77066 0.30068,-0.40091 2.90656,1.57021 2.73952,2.80633 -0.16704,1.23612 -1.57021,2.3052 -2.20498,2.57247 -0.63476,0.26727 -2.3052,0.63476 -2.3052,0.63476 z"
       id="path832-5"
       inkscape:connector-curvature="0" />
    <path
       style="fill:#f9f9f9;stroke:none;stroke-width:0.26458332px;stroke-linecap:butt;stroke-linejoin:miter;stroke-opacity:1"
       d="m 188.29867,108.68927 -1.03943,0.66146 0.66145,0.75595 -0.47246,0.0945 0.37797,0.56697 -0.23623,0.23623 0.14174,0.56697 -0.51972,0.66146 0.18899,0.8032 -0.33073,0.51971 0.14174,0.37798 -0.51972,0.33073 0.18899,0.75595 -0.51972,1.18118 -0.28348,0.23623 -0.0472,0.8977 -0.47247,0.89769 0.18899,1.03943 -0.51972,0.23624 -0.14174,1.32291 -0.37797,-0.0945 0.14174,1.65365 -0.56697,1.32291 0.28348,0.99219 v 0.8032 l 0.28349,0.75595 -0.75596,0.56697 -0.0945,0.94494 -0.18898,0.23623 0.42522,0.47247 -0.37798,0.99219 -0.0945,0.99219 c 0,0 0.8032,0.37797 0.70871,0.85044 -0.0945,0.47248 -0.42522,0.75596 -0.23624,1.03944 0.18899,0.28348 0.47248,0.14174 0.66146,0.37797 0.18899,0.23624 -0.42522,0.70871 0.0473,0.99219 0.47247,0.28348 0.94494,-0.0945 1.18118,0.33073 0.23624,0.42523 0.66146,1.51191 1.13393,1.84264 0.47247,0.33072 1.55915,1.46465 0.8032,2.12611 -0.75596,0.66146 -0.66146,0.28348 -1.22843,0.42523 -0.56696,0.14174 -0.66145,0.75595 -1.46465,0.7087 -0.8032,-0.0472 -1.84264,-0.56696 -2.4096,-1.08668 -0.56696,-0.51972 -0.75595,0.28348 -1.13393,0.18899 -0.37798,-0.0945 -0.37798,-0.47247 -0.8032,-0.33073 -0.42522,0.14174 -0.85045,0.8032 -1.22842,0.33073 -0.37798,-0.47247 0.0945,-1.65365 0.51971,-1.98438 0.42523,-0.33073 1.37017,-0.0945 1.37017,-0.8032 0,-0.7087 0.0945,-1.03943 0.51972,-1.22842 0.42522,-0.18899 0.37797,-0.89769 0.66145,-1.03943 0.28349,-0.14175 0,-0.66146 0.47247,-1.55916 0.47248,-0.89769 -0.80319,-1.84263 -0.42522,-2.07887 0.37798,-0.23623 0.61421,-1.22842 0.37798,-1.5119 -0.23624,-0.28348 0.28348,-1.41741 -0.0945,-1.37016 -0.37798,0.0472 -1.03944,-0.47247 -0.70871,-0.99219 0.33073,-0.51972 0.0945,-0.61421 -0.18899,-0.8032 -0.28348,-0.18899 0.0945,-0.47247 0.0473,-0.85045 -0.0473,-0.37797 0.0945,-1.03943 -0.37797,-1.03943 -0.47247,0 -0.0472,-0.94494 -0.0472,-0.94494 0,0 -0.23624,-0.42523 -0.0473,-0.75595 0.18899,-0.33073 -0.14174,-1.03944 -0.61421,-1.03944 -0.47247,0 -0.85045,-1.18118 -0.94495,-1.65364 -0.0945,-0.47248 -0.18898,-1.7009 -0.80319,-1.84264 -0.61421,-0.14174 -0.14175,-1.27567 -0.14175,-1.27567 l -0.85044,-0.18899 c 0,0 -1.08668,-1.32291 -1.03943,-1.79538 0.0472,-0.47247 0.23623,-1.41741 0.0945,-1.51191 -0.14174,-0.0945 -0.75596,-0.14174 -0.75596,-0.14174 l 0.23624,-0.33073 -0.18899,-0.47247 0.37798,-0.23623 c 0,0 -0.66146,-0.75596 -0.51972,-1.03944 0.14174,-0.28348 0.70871,-0.85045 0.37798,-0.85045 -0.33073,0 -1.22843,0 -1.32292,-0.33073 -0.0945,-0.33072 1.22842,0.0945 1.55915,-0.0472 0.33073,-0.14174 -0.0945,-0.56696 -0.0945,-0.56696 0,0 1.84263,0.47246 2.45684,0.23623 0.61421,-0.23623 0.23624,-1.18118 0.42523,-1.22842 0.18898,-0.0472 0.42522,0.85044 0.94494,0.85044 0.51971,0 1.55915,0.23624 1.84263,0.70871 0.28348,0.47247 0.47247,-0.0945 0.8032,-0.0473 0.33073,0.0473 0.0472,0.28348 0.51972,0.33073 0.47247,0.0472 0.89769,-0.7087 1.27567,-0.7087 0.37797,0 1.37016,0.37797 1.6064,0.0472 0.23623,-0.33073 -0.18899,0.56697 0.0472,0.56697 0.23623,0 0.8032,-0.14175 1.13393,-0.0472 z"
       id="path834-6"
       inkscape:connector-curvature="0" />
    <ellipse
       style="opacity:1;vector-effect:none;fill:#000000;fill-opacity:1;fill-rule:evenodd;stroke:#000000;stroke-width:0.03180885;stroke-linecap:butt;stroke-linejoin:miter;stroke-miterlimit:15.19999981;stroke-dasharray:none;stroke-dashoffset:0;stroke-opacity:1"
       id="path836-1"
       cx="-174.76239"
       cy="120.66653"
       rx="1.0508282"
       ry="1.1076298"
       transform="scale(-1,1)" />
    <ellipse
       style="opacity:1;vector-effect:none;fill:#000000;fill-opacity:1;fill-rule:evenodd;stroke:#000000;stroke-width:0.02645833;stroke-linecap:butt;stroke-linejoin:miter;stroke-miterlimit:15.19999981;stroke-dasharray:none;stroke-dashoffset:0;stroke-opacity:1"
       id="path836-3-2"
       cx="-190.51927"
       cy="120.69015"
       rx="0.87406993"
       ry="0.92131698"
       transform="scale(-1,1)" />
    <path
       style="fill:#e3e2db;stroke:none;stroke-width:0.26458332px;stroke-linecap:butt;stroke-linejoin:miter;stroke-opacity:1"
       d="m 80.811702,159.85779 c -1.65365,0.0945 -3.77976,1.13393 -5.33891,2.83483 -1.55916,1.70089 -8.59896,-3.30729 -6.80358,-6.23661 1.79539,-2.92932 2.78758,-4.20499 12.09524,-3.77976 9.307657,0.42522 3.449027,6.80357 0.0472,7.18154 z"
       id="path924-3"
       inkscape:connector-curvature="0"
       sodipodi:nodetypes="cccccc" />
    <path
       style="fill:#552200;stroke:#000000;stroke-width:0.26458332px;stroke-linecap:butt;stroke-linejoin:miter;stroke-opacity:1"
       d="m 144.1684,194.07375 c 0.65122,-0.003 1.33371,0.10279 2.01073,0.32247 -0.12852,0.39524 -0.27698,0.6594 -0.27698,0.6594 0,0 -5.3e-4,0.80152 1.06866,1.46968 1.06908,0.66818 1.20303,3.07371 1.20303,3.07371 0,0 0.66818,1.60362 2.00453,2.00451 1.33634,0.40093 1.87098,2.80625 -1.60352,2.93989 -3.4745,0.13365 -6.68187,-2.00421 -7.08277,-2.80603 -0.40091,-0.8018 0.66806,-2.94 -0.40101,-4.00908 -1.06908,-1.06907 -1.60373,0.668 -2.40554,0.53436 -0.80181,-0.13362 -0.26706,-1.33647 0.13384,-3.07372 0.0249,-0.10787 0.0467,-0.23844 0.0656,-0.38912 0.96396,0.46516 1.82653,0.71014 2.35541,0.25683 0.74415,-0.63783 1.78769,-0.97666 2.92799,-0.9829 z m -96.174998,1.01391 c 1.16271,0.007 2.34404,0.93779 2.34404,2.23707 0,2.06563 3.73027,1.70469 4.14858,-0.15401 0.24929,0.83939 0.52496,1.3888 0.81132,1.49294 1.46998,0.53454 2.00474,3.74187 3.47472,5.07825 1.46998,1.33633 -0.53445,3.60813 -2.93987,3.34087 -2.40543,-0.26728 -5.07834,-2.67301 -5.47925,-3.20754 -0.4009,-0.53454 0.66817,-3.20686 -0.66818,-3.7414 -1.33635,-0.53454 -1.33604,0.80164 -2.13785,0.53435 -0.56346,-0.18782 -0.33069,-2.37807 0.0868,-5.55161 0.11892,-0.0196 0.239,-0.0297 0.35967,-0.0289 z"
       id="path853-4-8-5"
       inkscape:connector-curvature="0" />
  </g>
</svg>
