<?xml version="1.0" encoding="UTF-8" standalone="no"?>
<!-- Created with Inkscape (http://www.inkscape.org/) -->

<svg
   xmlns:dc="http://purl.org/dc/elements/1.1/"
   xmlns:cc="http://creativecommons.org/ns#"
   xmlns:rdf="http://www.w3.org/1999/02/22-rdf-syntax-ns#"
   xmlns:svg="http://www.w3.org/2000/svg"
   xmlns="http://www.w3.org/2000/svg"
   xmlns:sodipodi="http://sodipodi.sourceforge.net/DTD/sodipodi-0.dtd"
   xmlns:inkscape="http://www.inkscape.org/namespaces/inkscape"
   width="150"
   height="150"
   viewBox="0 0 39.687499 39.687501"
   version="1.1"
   id="svg6090"
   inkscape:version="0.92.3 (2405546, 2018-03-11)"
   sodipodi:docname="flask.svg">
  <defs
     id="defs6084" />
  <sodipodi:namedview
     id="base"
     pagecolor="#ffffff"
     bordercolor="#666666"
     borderopacity="1.0"
     inkscape:pageopacity="0.0"
     inkscape:pageshadow="2"
     inkscape:zoom="1.979899"
     inkscape:cx="71.99629"
     inkscape:cy="143.13814"
     inkscape:document-units="mm"
     inkscape:current-layer="layer1"
     showgrid="false"
     units="px"
     inkscape:window-width="1853"
     inkscape:window-height="1025"
     inkscape:window-x="67"
     inkscape:window-y="27"
     inkscape:window-maximized="1" />
  <metadata
     id="metadata6087">
    <rdf:RDF>
      <cc:Work
         rdf:about="">
        <dc:format>image/svg+xml</dc:format>
        <dc:type
           rdf:resource="http://purl.org/dc/dcmitype/StillImage" />
        <dc:title></dc:title>
      </cc:Work>
    </rdf:RDF>
  </metadata>
  <g
     inkscape:label="Calque 1"
     inkscape:groupmode="layer"
     id="layer1"
     transform="translate(0,-257.31248)">
    <path
       inkscape:connector-curvature="0"
       style="fill:#499421;stroke-width:0.0724142"
       d="m 30.145719,273.90257 v 15.08083 c 0,3.47342 -2.815608,6.28902 -6.289027,6.28902 h -8.419601 c -3.473418,0 -6.2890272,-2.8156 -6.2890272,-6.28902 v -15.08083 c 0,-3.47342 2.8156092,-6.28903 6.2890272,-6.28903 h 8.419601 c 3.473419,0 6.289027,2.81561 6.289027,6.28903 z"
       id="path1714" />
    <g
       transform="matrix(0.0724142,0,0,0.0724142,1.1088553,258.74692)"
       id="g1720">
      <path
         inkscape:connector-curvature="0"
         style="fill:#96c133"
         d="m 400.983,209.291 v 208.258 c 0,47.966 -38.882,86.848 -86.848,86.848 h -78.382 c -47.966,0 -86.848,-38.882 -86.848,-86.848 V 209.291 c 0,-47.966 38.882,-86.848 86.848,-86.848 h 78.382 c 47.966,0 86.848,38.882 86.848,86.848 z"
         id="path1716" />
      <path
         inkscape:connector-curvature="0"
         style="fill:#96c133"
         d="M 331.277,99.421 H 180.726 V 33.53 c 0,-14.319 11.608,-25.927 25.927,-25.927 h 98.698 c 14.319,0 25.927,11.608 25.927,25.927 v 65.891 z"
         id="path1718" />
    </g>
    <g
       transform="matrix(0.0724142,0,0,0.0724142,1.1088553,258.74692)"
       id="g1726">
      <path
         inkscape:connector-curvature="0"
         style="fill:#ffd77d"
         d="m 389.901,491.408 -12.45,8.719 c -8.942,6.266 -21.271,4.086 -27.537,-4.856 L 256,361.137 222.583,313.425 148.916,208.206 117.243,162.967 c -6.266,-8.942 -4.086,-21.271 4.856,-27.537 l 12.45,-8.719 c 8.942,-6.256 21.281,-4.086 27.537,4.856 l 11.771,16.81 82.143,117.324 33.417,47.723 105.34,150.447 c 6.267,8.943 4.087,21.272 -4.856,27.537 z"
         id="path1722" />
      <path
         inkscape:connector-curvature="0"
         style="fill:#ffd77d"
         d="m 394.758,162.967 -105.34,150.457 -33.417,47.712 -82.143,117.324 -11.771,16.81 c -6.256,8.942 -18.594,11.122 -27.537,4.856 l -12.45,-8.719 c -8.942,-6.266 -11.122,-18.594 -4.856,-27.537 l 31.673,-45.239 73.667,-105.209 33.417,-47.723 93.914,-134.134 c 6.266,-8.942 18.594,-11.112 27.537,-4.856 l 12.45,8.719 c 8.942,6.269 11.122,18.597 4.856,27.539 z"
         id="path1724" />
    </g>
    <g
       transform="matrix(0.0724142,0,0,0.0724142,1.1088553,258.74692)"
       id="g1732">
      <path
         inkscape:connector-curvature="0"
         style="fill:#eaa254"
         d="m 117.243,162.967 c -6.266,-8.942 -4.086,-21.271 4.856,-27.537 l 12.45,-8.719 c 8.942,-6.256 21.281,-4.086 27.537,4.856 l 11.771,16.81 c -15.198,15.431 -24.657,36.519 -24.941,59.828 z"
         id="path1728" />
      <path
         inkscape:connector-curvature="0"
         style="fill:#eaa254"
         d="m 148.916,418.633 c 0.284,23.299 9.743,44.397 24.941,59.828 l -11.771,16.81 c -6.256,8.942 -18.594,11.122 -27.537,4.856 l -12.45,-8.719 c -8.942,-6.266 -11.122,-18.594 -4.856,-27.537 z"
         id="path1730" />
    </g>
    <path
       inkscape:connector-curvature="0"
       d="m 30.536682,272.42741 c -0.06532,-0.29696 -0.358737,-0.48488 -0.656145,-0.41942 -0.296969,0.0653 -0.484812,0.3591 -0.41935,0.65614 0.08885,0.40386 0.133895,0.82061 0.133895,1.23844 v 15.08083 c 0,0.41791 -0.04512,0.83458 -0.133895,1.23843 -0.06539,0.29697 0.122381,0.59075 0.41935,0.65615 0.0399,0.009 0.07966,0.0129 0.118834,0.0129 0.25287,0 0.480685,-0.17524 0.537166,-0.43245 0.106014,-0.48149 0.159749,-0.97781 0.159749,-1.47515 V 273.9025 c 1.42e-4,-0.49734 -0.05359,-0.99366 -0.159604,-1.47515 z"
       id="path1734"
       style="stroke-width:0.0724142" />
    <path
       inkscape:connector-curvature="0"
       d="m 9.2944862,290.89094 c 0.039175,0 0.079074,-0.004 0.1189051,-0.0129 0.2969685,-0.0654 0.4848112,-0.35917 0.4193502,-0.65614 -0.08892,-0.40371 -0.1339664,-0.82038 -0.1339664,-1.23836 v -15.08085 c 0,-0.41798 0.045112,-0.83465 0.1339664,-1.23836 0.06539,-0.29697 -0.1223817,-0.59075 -0.4193502,-0.65615 -0.2971169,-0.0651 -0.590829,0.12239 -0.6562188,0.41936 -0.1059407,0.48133 -0.1596742,0.97766 -0.1596742,1.47522 v 15.08084 c 0,0.49748 0.053732,0.99388 0.1596742,1.47522 0.056701,0.25692 0.2844415,0.43216 0.5373137,0.43216 z"
       id="path1736"
       style="stroke-width:0.0724142" />
    <path
       inkscape:connector-curvature="0"
       d="m 25.008222,294.60651 c -0.375396,0.0764 -0.762882,0.11521 -1.151459,0.11521 h -8.419598 c -0.388573,0 -0.776063,-0.0388 -1.151387,-0.11521 -0.298272,-0.0606 -0.588727,0.13172 -0.64948,0.42971 -0.06068,0.29798 0.131719,0.58872 0.429703,0.64948 0.447592,0.0911 0.908943,0.13737 1.371164,0.13737 h 8.419598 c 0.462293,0 0.923572,-0.0462 1.371164,-0.13737 0.298056,-0.0606 0.490461,-0.35143 0.429778,-0.64948 -0.06075,-0.29799 -0.351645,-0.49032 -0.649483,-0.42971 z"
       id="path1738"
       style="stroke-width:0.0724142" />
    <path
       inkscape:connector-curvature="0"
       d="m 14.284765,268.27946 c 0.376265,-0.0765 0.764043,-0.11529 1.1524,-0.11529 h 8.419598 c 0.388286,0 0.776063,0.0388 1.152474,0.11529 0.037,0.008 0.07386,0.0111 0.110213,0.0111 0.256347,0 0.485972,-0.1801 0.539051,-0.44108 0.06053,-0.29799 -0.131938,-0.58865 -0.429923,-0.64927 -0.448317,-0.0911 -0.909884,-0.13729 -1.37174,-0.13729 h -8.419602 c -0.461857,0 -0.923353,0.0462 -1.371741,0.13729 -0.297984,0.0605 -0.490535,0.35121 -0.429923,0.64934 0.06047,0.29792 0.35128,0.49039 0.649193,0.42985 z"
       id="path1740"
       style="stroke-width:0.0724142" />
    <path
       inkscape:connector-curvature="0"
       d="m 14.195985,266.49705 h 10.902103 c 0.304139,0 0.550637,-0.24656 0.550637,-0.55063 v -4.77145 c 0,-1.33879 -1.089253,-2.42805 -2.428193,-2.42805 h -7.147136 c -1.338866,0 -2.428048,1.08926 -2.428048,2.42819 v 4.77145 c 0,0.304 0.246572,0.55049 0.550637,0.55049 z m 1.877483,-6.64885 h 7.147138 c 0.731599,0 1.326845,0.59516 1.326845,1.32691 v 4.22081 h -9.800829 v -0.6951 h 7.262059 c 0.304139,0 0.550637,-0.24657 0.550637,-0.55063 0,-0.30407 -0.246498,-0.55065 -0.550637,-0.55065 h -7.262059 v -0.79402 h 4.729373 c 0.304069,0 0.550637,-0.24657 0.550637,-0.55063 0,-0.30407 -0.246568,-0.55064 -0.550637,-0.55064 h -4.729373 v -0.52921 c 0,-0.73168 0.595246,-1.32684 1.326846,-1.32684 z"
       id="path1742"
       style="stroke-width:0.0724142" />
    <path
       inkscape:connector-curvature="0"
       d="m 21.31155,262.80552 h 1.798479 c 0.30414,0 0.550637,-0.24657 0.550637,-0.55063 0,-0.30407 -0.246497,-0.55064 -0.550637,-0.55064 H 21.31155 c -0.304139,0 -0.550637,0.24657 -0.550637,0.55064 0,0.30406 0.246498,0.55063 0.550637,0.55063 z"
       id="path1744"
       style="stroke-width:0.0724142" />
    <path
       inkscape:connector-curvature="0"
       d="m 13.297614,267.95874 c -0.303704,-0.43376 -0.758176,-0.72335 -1.279704,-0.81532 -0.521454,-0.0919 -1.047614,0.0247 -1.481448,0.3284 l -0.9015564,0.63124 c -0.4338331,0.30369 -0.7234181,0.75824 -0.8153132,1.27977 -0.091892,0.52152 0.024687,1.04762 0.3284006,1.48145 l 16.848466,24.06302 c 0.303705,0.43384 0.758176,0.72342 1.279701,0.81531 0.116371,0.0205 0.232885,0.0307 0.34853,0.0307 0.40306,0 0.795835,-0.12304 1.132922,-0.35904 l 0.901556,-0.63123 c 0.895403,-0.62696 1.113875,-1.86561 0.486913,-2.76108 z m 15.729884,25.92204 -0.901556,0.63123 c -0.192766,0.13498 -0.426663,0.1869 -0.658463,0.14599 -0.231798,-0.041 -0.433831,-0.1696 -0.568813,-0.36236 l -16.848611,-24.0631 c -0.1349795,-0.19277 -0.1868275,-0.42674 -0.1459865,-0.65846 0.04091,-0.2318 0.1695945,-0.43383 0.3624325,-0.56882 l 0.901557,-0.63123 c 0.192839,-0.13506 0.426736,-0.18683 0.658463,-0.14599 0.231871,0.0409 0.433834,0.1696 0.568886,0.36236 l 16.848683,24.06302 c 0.278506,0.39806 0.18147,0.9487 -0.216592,1.22736 z"
       id="path1746"
       style="stroke-width:0.0724142" />
    <path
       inkscape:connector-curvature="0"
       d="m 19.111099,285.66386 c -0.249249,-0.17445 -0.592494,-0.11398 -0.766865,0.13527 l -5.949191,8.49686 c -0.134688,0.19263 -0.336725,0.3213 -0.568522,0.36215 -0.232016,0.041 -0.465698,-0.0108 -0.65839,-0.14592 l -0.901485,-0.6313 c -0.3980585,-0.27894 -0.4953845,-0.82944 -0.216591,-1.22728 l 6.776521,-9.67874 c 0.174375,-0.2491 0.113834,-0.59249 -0.135269,-0.76686 -0.249177,-0.17445 -0.592493,-0.11398 -0.766939,0.13527 l -6.7764492,9.67859 c -0.6270327,0.89497 -0.4087058,2.13353 0.4867685,2.76101 l 0.9014847,0.63131 c 0.336944,0.23613 0.729645,0.35917 1.132776,0.35917 0.115791,0 0.232449,-0.0101 0.348817,-0.0307 0.521601,-0.092 0.976071,-0.38162 1.279414,-0.81523 l 5.949046,-8.49658 c 0.174591,-0.24932 0.113979,-0.59257 -0.135126,-0.76701 z"
       id="path1748"
       style="stroke-width:0.0724142" />
    <path
       inkscape:connector-curvature="0"
       d="m 25.82607,275.11427 -3.358644,4.79744 c -0.174445,0.24911 -0.113837,0.5925 0.135269,0.76687 0.09617,0.0673 0.206309,0.0996 0.315364,0.0996 0.173577,0 0.344402,-0.0818 0.451503,-0.23483 l 3.358644,-4.79744 c 0.174442,-0.2491 0.113904,-0.59249 -0.135273,-0.76687 -0.249176,-0.17444 -0.592492,-0.11391 -0.766863,0.1352 z"
       id="path1750"
       style="stroke-width:0.0724142" />
    <path
       inkscape:connector-curvature="0"
       d="m 20.182756,277.22211 c 0.09617,0.0673 0.206309,0.0996 0.315364,0.0996 0.173578,0 0.344402,-0.0818 0.451503,-0.23484 l 5.948972,-8.49651 c 0.278793,-0.39784 0.829359,-0.49488 1.227202,-0.21666 l 0.901412,0.6313 c 0.19284,0.13521 0.321663,0.33731 0.362507,0.56904 0.04091,0.23172 -0.01086,0.4654 -0.145988,0.65817 l -2.279526,3.2561 c -0.174446,0.24911 -0.113908,0.5925 0.135269,0.76688 0.249251,0.17443 0.592566,0.11383 0.766867,-0.13535 l 2.279381,-3.25589 c 0.303921,-0.43369 0.420583,-0.95977 0.328543,-1.48145 -0.09204,-0.52131 -0.381477,-0.97579 -0.815239,-1.27963 l -0.901774,-0.63159 c -0.895112,-0.62624 -2.133755,-0.40791 -2.760717,0.48705 l -5.949117,8.49672 c -0.174299,0.24925 -0.11369,0.59257 0.135341,0.76702 z"
       id="path1752"
       style="stroke-width:0.0724142" />
  </g>
</svg>
