<?xml version="1.0" encoding="UTF-8" standalone="no"?>
<!-- Created with Inkscape (http://www.inkscape.org/) -->

<svg
   xmlns:dc="http://purl.org/dc/elements/1.1/"
   xmlns:cc="http://creativecommons.org/ns#"
   xmlns:rdf="http://www.w3.org/1999/02/22-rdf-syntax-ns#"
   xmlns:svg="http://www.w3.org/2000/svg"
   xmlns="http://www.w3.org/2000/svg"
   xmlns:xlink="http://www.w3.org/1999/xlink"
   xmlns:sodipodi="http://sodipodi.sourceforge.net/DTD/sodipodi-0.dtd"
   xmlns:inkscape="http://www.inkscape.org/namespaces/inkscape"
   width="1280"
   height="200"
   viewBox="0 0 338.66666 52.916729"
   version="1.1"
   id="svg8"
   inkscape:version="0.92.3 (2405546, 2018-03-11)"
   sodipodi:docname="forest.svg">
  <defs
     id="defs2">
    <linearGradient
       inkscape:collect="always"
       id="linearGradient908">
      <stop
         style="stop-color:#95cc43;stop-opacity:1"
         offset="0"
         id="stop904" />
      <stop
         style="stop-color:#c5c636;stop-opacity:1"
         offset="1"
         id="stop906" />
    </linearGradient>
    <linearGradient
       inkscape:collect="always"
       xlink:href="#linearGradient908"
       id="linearGradient910"
       x1="570.73615"
       y1="85.85276"
       x2="570.73615"
       y2="208.08122"
       gradientUnits="userSpaceOnUse" />
  </defs>
  <sodipodi:namedview
     id="base"
     pagecolor="#ffffff"
     bordercolor="#666666"
     borderopacity="1.0"
     inkscape:pageopacity="0.0"
     inkscape:pageshadow="2"
     inkscape:zoom="0.7"
     inkscape:cx="679.85367"
     inkscape:cy="-143.31603"
     inkscape:document-units="mm"
     inkscape:current-layer="layer1"
     showgrid="false"
     units="px"
     showguides="true"
     inkscape:guide-bbox="true"
     inkscape:window-width="1853"
     inkscape:window-height="1025"
     inkscape:window-x="67"
     inkscape:window-y="27"
     inkscape:window-maximized="1"
     inkscape:snap-global="false">
    <sodipodi:guide
       position="212.80059,35.151827"
       orientation="0,1"
       id="guide821"
       inkscape:locked="false" />
    <sodipodi:guide
       position="206.37499,0.37797663"
       orientation="0,1"
       id="guide837"
       inkscape:locked="false" />
  </sodipodi:namedview>
  <metadata
     id="metadata5">
    <rdf:RDF>
      <cc:Work
         rdf:about="">
        <dc:format>image/svg+xml</dc:format>
        <dc:type
           rdf:resource="http://purl.org/dc/dcmitype/StillImage" />
        <dc:title />
      </cc:Work>
    </rdf:RDF>
  </metadata>
  <g
     inkscape:label="Calque 1"
     inkscape:groupmode="layer"
     id="layer1"
     transform="translate(0,-244.08325)">
    <path
       style="fill:url(#linearGradient910);fill-opacity:1;stroke:none;stroke-width:0.99999875px;stroke-linecap:butt;stroke-linejoin:miter;stroke-opacity:1"
       d="m 870.9949,60.128757 c -28.39805,0.05915 -52.66091,7.796566 -82.98528,10.977669 -30.32437,3.181103 -62.66964,-6.275332 -87.02948,-8.279019 -48.81151,-4.014926 -70.04296,18.013192 -92.95802,13.957434 -22.91506,-4.055758 -46.62113,-13.88674 -82.55182,-6.551776 -34.23543,6.988891 -64.68983,-10.058142 -99.74581,-4.448111 -35.05598,5.61003 -73.70339,11.653767 -108.16237,0.174436 -30.43493,-10.138796 -55.1224,9.25404 -80.65799,10.146761 -25.53559,0.89272 -48.87231,-21.08567 -82.61702,-7.88191 C 97.061421,90.615727 71.189815,43.818324 0,65.318359 V 200.35742 H 1280.3574 V 65.066379 c -17.8648,7.379778 -28.6547,13.322075 -48.6851,8.69967 -18.5715,-4.285734 -40.2768,-17.052162 -80.7292,-4.383919 -30.402,9.520822 -58.6073,-16.546002 -94.3216,-7.2603 -47.998,8.076211 -79.40406,14.355763 -104.54318,10.555397 C 926.9392,68.87686 910.08737,60.047338 870.9949,60.128757 Z"
       transform="matrix(0.26458365,0,0,0.26458365,-2.028e-4,244.08325)"
       id="path819"
       inkscape:connector-curvature="0"
       sodipodi:nodetypes="sssssssssccccsssss" />
    <path
       style="fill:#ffdc2a;fill-opacity:0.23417722;stroke:none;stroke-width:0.26458365px;stroke-linecap:butt;stroke-linejoin:miter;stroke-opacity:1"
       d="m 4.0088449,265.72941 c 3.3344768,11.26856 17.4520181,11.51402 26.7476601,15.71101 12.703867,-4.13911 -2.714766,-15.99743 -10.000468,-17.02656 -5.607949,0.66312 -11.969048,-3.40456 -16.7471921,1.31555 z"
       id="path912"
       inkscape:connector-curvature="0" />
    <path
       style="fill:#feff2a;fill-opacity:0.17405066;stroke:none;stroke-width:0.26458365px;stroke-linecap:butt;stroke-linejoin:miter;stroke-opacity:1"
       d="m 42.228433,266.79849 c -2.102626,4.60633 5.604709,9.66515 7.860567,12.14696 9.954251,0.39513 12.349653,-14.88312 0.264832,-12.77353 -2.033424,0.18529 -7.490081,-2.16638 -8.125399,0.62657 z"
       id="path914"
       inkscape:connector-curvature="0" />
    <path
       style="fill:#feff2a;fill-opacity:0.17405066;stroke:none;stroke-width:0.26458365px;stroke-linecap:butt;stroke-linejoin:miter;stroke-opacity:1"
       d="m 73.499005,271.34208 c -10.066605,6.89144 10.102917,16.76942 12.59344,6.78235 -1.09001,-5.13629 -8.148626,-6.55363 -12.59344,-6.78235 z"
       id="path916"
       inkscape:connector-curvature="0" />
    <path
       style="fill:#feff2a;fill-opacity:0.17405066;stroke:none;stroke-width:0.26458365px;stroke-linecap:butt;stroke-linejoin:miter;stroke-opacity:1"
       d="m 79.646212,265.46214 c 6.588652,7.24353 9.066678,-2.2457 0,0 z"
       id="path918"
       inkscape:connector-curvature="0" />
    <path
       style="fill:#feff2a;fill-opacity:0.17405066;stroke:none;stroke-width:0.26458365px;stroke-linecap:butt;stroke-linejoin:miter;stroke-opacity:1"
       d="m 93.544244,268.13484 c -5.712927,9.18384 17.875326,11.7536 18.824396,3.14018 -4.45085,-8.33611 -12.373828,-2.53269 -18.824396,-3.14018 z"
       id="path920"
       inkscape:connector-curvature="0" />
    <path
       style="fill:#feff2a;fill-opacity:0.17405066;stroke:none;stroke-width:0.26458365px;stroke-linecap:butt;stroke-linejoin:miter;stroke-opacity:1"
       d="m 126.95298,268.13484 c 3.1115,12.88682 19.50874,0.72479 3.7201,-1.16899 -1.31517,0.0265 -2.64024,0.40199 -3.7201,1.16899 z"
       id="path922"
       inkscape:connector-curvature="0" />
    <path
       style="fill:#feff2a;fill-opacity:0.17405066;stroke:none;stroke-width:0.26458365px;stroke-linecap:butt;stroke-linejoin:miter;stroke-opacity:1"
       d="m 146.73094,267.6003 c -2.28736,11.90548 22.53776,5.12974 8.89063,-1.3088 -2.87882,-0.98334 -6.64254,-1.09414 -8.89063,1.3088 z"
       id="path924"
       inkscape:connector-curvature="0" />
    <path
       style="fill:#ffdc2a;fill-opacity:0.19936709;stroke:none;stroke-width:0.26458365px;stroke-linecap:butt;stroke-linejoin:miter;stroke-opacity:1"
       d="m 174.24403,267.16046 c 3.33448,11.26856 17.45202,11.51402 26.74766,15.71101 12.70387,-4.13911 -2.71477,-15.99743 -10.00047,-17.02656 -5.60795,0.66312 -11.96904,-3.40456 -16.74719,1.31555 z"
       id="path912-3"
       inkscape:connector-curvature="0" />
    <path
       style="fill:#feff2a;fill-opacity:0.17405066;stroke:none;stroke-width:0.26458365px;stroke-linecap:butt;stroke-linejoin:miter;stroke-opacity:1"
       d="m 214.62999,268.99336 c -10.0666,6.89144 10.10292,16.76942 12.59344,6.78235 -1.09001,-5.13629 -8.14863,-6.55363 -12.59344,-6.78235 z"
       id="path916-6"
       inkscape:connector-curvature="0" />
    <path
       style="fill:#feff2a;fill-opacity:0.17405066;stroke:none;stroke-width:0.26458365px;stroke-linecap:butt;stroke-linejoin:miter;stroke-opacity:1"
       d="m 265.29134,266.54208 c -5.71293,9.18384 17.87532,11.7536 18.82439,3.14018 -4.45085,-8.33611 -12.37382,-2.53269 -18.82439,-3.14018 z"
       id="path920-2"
       inkscape:connector-curvature="0" />
    <path
       style="fill:#feff2a;fill-opacity:0.17405066;stroke:none;stroke-width:0.26458365px;stroke-linecap:butt;stroke-linejoin:miter;stroke-opacity:1"
       d="m 294.16435,274.10161 c 3.1115,12.88682 19.50874,0.72479 3.7201,-1.16899 -1.31517,0.0265 -2.64024,0.40199 -3.7201,1.16899 z"
       id="path922-9"
       inkscape:connector-curvature="0" />
    <path
       style="fill:#feff2a;fill-opacity:0.17405066;stroke:none;stroke-width:0.26458365px;stroke-linecap:butt;stroke-linejoin:miter;stroke-opacity:1"
       d="m 313.94231,270.16528 c -2.28736,11.90548 22.53776,5.12974 8.89063,-1.3088 -2.87882,-0.98334 -6.64254,-1.09414 -8.89063,1.3088 z"
       id="path924-1"
       inkscape:connector-curvature="0" />
    <path
       style="fill:#ffdc2a;stroke:none;stroke-width:0.26458365px;stroke-linecap:butt;stroke-linejoin:miter;stroke-opacity:1;fill-opacity:0.19936709"
       d="m 119.06244,272.80948 c -0.67327,1.0725 -1.84736,1.68766 -2.64584,2.64583 -0.40329,0.48395 -0.73064,1.02796 -1.13393,1.51191 -0.45627,0.54752 -1.00793,1.00794 -1.5119,1.5119 -0.25199,0.25199 -0.50397,0.50397 -0.75596,0.75596 -0.12599,0.12599 -0.29829,0.21861 -0.37797,0.37797 -0.0564,0.11269 0,0.25199 0,0.37798 0,0.12599 0,0.25199 0,0.37798 0,0.12599 0,0.25198 0,0.37797 0,0.126 -0.0564,0.26529 0,0.37798 0.51003,1.02006 0.16941,-0.013 0.75595,0.37798 0.0397,0.0265 1.39176,1.47185 1.51191,1.5119 0.23905,0.0797 0.51149,-0.0611 0.75595,0 0.27332,0.0683 0.48868,0.28889 0.75595,0.37798 0.24444,0.0815 1.47717,0 1.88988,0 0.0917,0 1.12178,0.0122 1.13394,0 0.19921,-0.19921 0.2217,-0.52154 0.37797,-0.75595 0.0988,-0.14826 0.25199,-0.25199 0.37798,-0.37798 0.25198,-0.25198 0.50397,-0.50397 0.75595,-0.75595 0.12599,-0.12599 0.22972,-0.27914 0.37798,-0.37798 0.23441,-0.15627 0.50397,-0.25198 0.75595,-0.37798 0.25199,-0.12599 0.48264,-0.30964 0.75595,-0.37797 0.24447,-0.0611 0.50397,0 0.75596,0 0.12599,0 0.26528,0.0563 0.37798,0 0.15936,-0.0797 0.2186,-0.29829 0.37797,-0.37798 0.11269,-0.0563 0.28889,0.0891 0.37798,0 0.0891,-0.0891 -0.0891,-0.28889 0,-0.37798 0.18899,-0.18898 0.94494,0.18899 1.13393,0 0.0367,-0.0367 0,-1.74584 0,-1.88988 0,-0.32077 0.0695,-2.05949 0,-2.26786 -0.0564,-0.16904 -0.27914,-0.22972 -0.37798,-0.37797 -0.15627,-0.23442 -0.28888,-0.48869 -0.37797,-0.75596 -0.0398,-0.11953 0.0891,-0.28889 0,-0.37798 -0.19922,-0.19921 -0.48869,-0.28888 -0.75596,-0.37797 -0.11953,-0.0398 -0.28889,0.0891 -0.37797,0 -0.0891,-0.0891 0.0891,-0.28889 0,-0.37798 -0.0235,-1.06428 -0.85221,-0.0962 -1.13394,-0.37797 -0.0891,-0.0891 0.1127,-0.32164 0,-0.37798 -0.22538,-0.11269 -0.50396,0 -0.75595,0 -0.12599,0 -0.28889,0.0891 -0.37797,0 -0.0891,-0.0891 0.11269,-0.32163 0,-0.37798 -0.59651,-0.29825 -2.21969,0.58549 -2.64584,0.75596 z"
       id="path1095"
       inkscape:connector-curvature="0" />
    <path
       style="fill:#ffdc2a;stroke:none;stroke-width:0.26458365px;stroke-linecap:butt;stroke-linejoin:miter;stroke-opacity:1;fill-opacity:0.19936709"
       d="m 141.74104,273.9434 c -0.65297,-0.0655 -0.25508,2.40004 -0.37798,2.64584 -0.34413,0.68826 -0.28672,0.22157 -0.75595,0.37798 -0.26727,0.0891 -0.53057,0.20894 -0.75595,0.37798 -0.28509,0.21381 -0.47087,0.54213 -0.75596,0.75595 -0.45076,0.33807 -1.04308,0.4434 -1.5119,0.75595 -0.14826,0.0988 -0.25199,0.25198 -0.37798,0.37798 -0.126,0.12599 -0.25199,0.25198 -0.37798,0.37797 -0.12599,0.126 -0.21861,0.2983 -0.37798,0.37798 -0.11269,0.0563 -0.28888,-0.0891 -0.37797,0 -0.0891,0.0891 -0.0891,0.28889 0,0.37798 0.0891,0.0891 0.28888,-0.0891 0.37797,0 0.0891,0.0891 -0.0563,0.26528 0,0.37797 0.30329,0.60657 0.45267,0.14939 0.75596,0.75596 0.0563,0.11269 -0.0891,0.28889 0,0.37797 0.0891,0.0891 0.26528,-0.0563 0.37798,0 0.31873,0.15937 0.43721,0.59659 0.75595,0.75596 0.11269,0.0563 0.26528,-0.0564 0.37797,0 0.15937,0.0797 0.21861,0.29829 0.37798,0.37797 0.11269,0.0564 0.26529,-0.0563 0.37798,0 0.15937,0.0797 0.21861,0.2983 0.37798,0.37798 0.11268,0.0564 0.26528,-0.0563 0.37797,0 0.15937,0.0797 0.21861,0.29829 0.37798,0.37798 0.11269,0.0563 0.26528,-0.0564 0.37797,0 0.83573,0.41786 0.1173,0.23459 0.37798,0.75595 0.41787,0.83573 0.23459,0.1173 0.75595,0.37798 0.31874,0.15937 0.43722,0.59658 0.75596,0.75595 0.11269,0.0564 0.26528,-0.0563 0.37797,0 0.15937,0.0797 0.20894,0.32163 0.37798,0.37798 0.20837,0.0695 1.94709,0 2.26786,0 0.21779,0 1.75212,0.0689 1.88988,0 0.15937,-0.0797 0.21861,-0.29829 0.37798,-0.37798 0.11269,-0.0563 0.25199,0 0.37798,0 0.37797,0 0.77535,-0.11953 1.13393,0 0.16903,0.0564 0.2186,0.29829 0.37797,0.37798 0.11269,0.0563 0.28889,-0.0891 0.37798,0 0.0891,0.0891 -0.11269,0.32163 0,0.37797 0.33807,0.16904 0.75595,0 1.13393,0 0.12599,0 0.25198,0 0.37798,0 0.12599,0 0.26528,0.0564 0.37797,0 0.15937,-0.0797 0.25199,-0.25198 0.37798,-0.37797 0.43246,-0.43246 0.52712,-0.44744 0.75595,-1.13393 0.0399,-0.11953 -0.0891,-0.28889 0,-0.37798 0.19921,-0.19921 0.59968,-0.14357 0.75596,-0.37798 0.13977,-0.20966 -0.0797,-0.51689 0,-0.75595 0.26206,-0.78619 0.49389,0.0302 0.75595,-0.75595 0.0912,-0.27353 -0.1246,-1.38731 0,-1.51191 0.0891,-0.0891 0.28889,0.0891 0.37798,0 0.0891,-0.0891 0,-0.25198 0,-0.37798 0,-0.12599 0,-0.25198 0,-0.37797 0,-0.12599 0,-0.25199 0,-0.37798 0,-0.12599 0.11269,-0.32163 0,-0.37798 -0.2348,-0.1174 -1.89157,0.0941 -2.26786,0 -0.27332,-0.0683 -0.48869,-0.28888 -0.75596,-0.37797 -0.31679,-0.1056 -1.26141,0.12525 -1.5119,0 -0.15937,-0.0797 -0.21861,-0.29829 -0.37798,-0.37798 -0.22538,-0.11269 -0.57777,0.17818 -0.75595,0 -0.0891,-0.0891 0,-0.25198 0,-0.37798 -0.25199,-0.12599 -0.48869,-0.28888 -0.75596,-0.37797 -0.23905,-0.0797 -0.53057,0.11269 -0.75595,0 -0.15937,-0.0797 -0.21861,-0.29829 -0.37798,-0.37798 -0.11269,-0.0563 -0.28888,0.0891 -0.37797,0 -0.0891,-0.0891 0.0563,-0.26529 0,-0.37797 -0.78653,-1.57305 0.0261,0.40407 -0.75596,-0.37798 -0.0891,-0.0891 0.0564,-0.26529 0,-0.37798 -0.0797,-0.15937 -0.25198,-0.25198 -0.37797,-0.37798 -0.12599,-0.12599 -0.21861,-0.29829 -0.37798,-0.37797 -0.22538,-0.11269 -0.53057,0.11269 -0.75595,0 -0.15937,-0.0797 -0.21861,-0.29829 -0.37798,-0.37798 -0.22538,-0.11269 -0.57777,0.17818 -0.75595,0 -0.0891,-0.0891 0.0891,-0.28888 0,-0.37797 -0.0891,-0.0891 -0.28889,0.0891 -0.37798,0 -0.0891,-0.0891 0,-0.25199 0,-0.37798 -0.62996,-0.25198 -1.25992,-0.50397 -1.88988,-0.75596 z"
       id="path1097"
       inkscape:connector-curvature="0" />
    <path
       style="fill:#ffdc2a;stroke:none;stroke-width:0.26458365px;stroke-linecap:butt;stroke-linejoin:miter;stroke-opacity:1;fill-opacity:0.19936709"
       d="m 231.3215,265.24994 c 0.25199,0.50397 0.50397,1.00794 0.75595,1.51191 0.126,0.12599 0.2983,0.21861 0.37798,0.37798 0.0563,0.11269 -0.0564,0.26528 0,0.37797 0.0797,0.15937 0.27914,0.22972 0.37798,0.37798 0.15627,0.23441 0.17876,0.55674 0.37798,0.75595 0.0891,0.0891 0.28888,-0.0891 0.37797,0 0.78205,0.78205 -1.19507,-0.0306 0.37798,0.75596 0.11269,0.0563 0.26528,-0.0564 0.37797,0 0.15937,0.0797 0.21861,0.29829 0.37798,0.37797 0.22538,0.11269 0.53057,-0.11269 0.75595,0 1.57305,0.78652 -0.40407,-0.0261 0.37798,0.75595 0.0891,0.0891 0.28889,-0.0891 0.37798,0 0.0891,0.0891 -0.0891,0.28889 0,0.37798 0.0891,0.0891 0.25198,0 0.37797,0 0.126,0 0.25199,0 0.37798,0 0.25198,0 0.53057,0.11269 0.75595,0 0.11269,-0.0563 -0.0563,-0.26528 0,-0.37798 0.0797,-0.15936 0.27914,-0.22972 0.37798,-0.37797 0.15628,-0.23441 0.2217,-0.52154 0.37798,-0.75595 0.34665,-0.51999 0.58311,-0.38875 1.13393,-0.75596 0.14825,-0.0988 0.25198,-0.25198 0.37797,-0.37797 0.126,-0.126 0.2983,-0.21861 0.37798,-0.37798 0.11269,-0.22538 -0.17818,-0.57777 0,-0.75595 0.0891,-0.0891 0.28889,0.0891 0.37798,0 0.0891,-0.0891 -0.0563,-0.26529 0,-0.37798 0.0797,-0.15937 0.29829,-0.21861 0.37797,-0.37798 0.0564,-0.11269 -0.0563,-0.26528 0,-0.37797 0.0797,-0.15937 0.2983,-0.21861 0.37798,-0.37798 0.0564,-0.11269 0,-0.25199 0,-0.37798 0,-0.12599 0.0564,-0.26528 0,-0.37797 -0.78652,-1.57305 0.0261,0.40407 -0.75595,-0.37798 -0.19921,-0.19921 -0.22171,-0.52154 -0.37798,-0.75595 -0.0988,-0.14826 -0.25198,-0.25199 -0.37798,-0.37798 -0.12599,-0.12599 -0.2186,-0.29829 -0.37797,-0.37798 -0.93094,-0.46547 0.34121,1.09717 -1.13393,-0.37797 -0.0891,-0.0891 0.11952,-0.33814 0,-0.37798 -0.35858,-0.11953 -0.77535,0.11953 -1.13393,0 -0.11953,-0.0398 0.11269,-0.32163 0,-0.37798 -0.22538,-0.11269 -0.50397,0 -0.75596,0 -0.21778,0 -1.75212,-0.0689 -1.88988,0 -0.15937,0.0797 -0.25198,0.25199 -0.37798,0.37798 -0.12599,0.12599 -0.29829,0.21861 -0.37797,0.37798 -0.11269,0.22538 0.11269,0.53057 0,0.75595 -0.78653,1.57305 0.0261,-0.40407 -0.75595,0.37798 -0.0891,0.0891 0.0891,0.28888 0,0.37797 -0.0891,0.0891 -0.28889,-0.0891 -0.37798,0 -0.0891,0.0891 0,0.25199 0,0.37798 -0.50397,0.25198 -1.00794,0.50397 -1.51191,0.75595 z"
       id="path1101"
       inkscape:connector-curvature="0" />
    <path
       style="fill:#ffdc2a;fill-opacity:0.19936709;stroke:none;stroke-width:0.26458365px;stroke-linecap:butt;stroke-linejoin:miter;stroke-opacity:1"
       d="m 243.03877,272.05352 c 0.39484,1.29435 -1.15113,1.16831 -1.51191,1.88988 -0.0563,0.11269 0.0564,0.26529 0,0.37798 -0.0797,0.15937 -0.29829,0.21861 -0.37796,0.37798 -0.0497,0.0994 0,1.31425 0,1.5119 0,0.126 0,0.25199 0,0.37798 0,0.12599 -0.0891,0.28889 0,0.37798 0.0891,0.0891 0.26527,-0.0563 0.37796,0 0.15938,0.0797 0.25199,0.25198 0.37798,0.37798 0.29523,0.29523 0.80778,0.91649 1.13393,1.13392 0.23442,0.15628 0.53057,0.20895 0.75597,0.37798 0.42762,0.32072 0.68916,0.83742 1.13392,1.13393 0.2344,0.15628 0.52155,0.2217 0.75595,0.37798 0.29651,0.19767 0.43722,0.59658 0.75596,0.75595 0.22538,0.11269 0.53057,-0.11269 0.75595,0 0.15935,0.0797 0.20894,0.32163 0.37798,0.37798 0.25008,0.0834 2.13363,0 2.64584,0 0.38063,0 2.05883,0.0697 2.26785,0 0.27609,-0.092 1.23582,-1.41988 1.51191,-1.51191 0.23905,-0.0797 0.51689,0.0797 0.75594,0 0.16904,-0.0563 0.22974,-0.27914 0.37799,-0.37798 0.23442,-0.15627 0.52154,-0.2217 0.75594,-0.37797 0.14827,-0.0988 0.22974,-0.27914 0.37798,-0.37798 1.90948,-1.27298 0.009,-0.003 1.13393,-0.37798 0.26728,-0.0891 0.48868,-0.28888 0.75597,-0.37797 0.11951,-0.0399 0.26527,0.0563 0.37795,0 0.15939,-0.0797 0.21863,-0.29829 0.37799,-0.37798 0.11268,-0.0563 0.2889,0.0891 0.37798,0 0.0172,-0.0171 0,-1.71167 0,-1.88988 0,-0.25199 0,-0.50397 0,-0.75596 0,-0.12599 0.0564,-0.26528 0,-0.37797 -0.15936,-0.31874 -0.64325,-0.41788 -0.75597,-0.75596 -0.0797,-0.23905 0.0797,-0.5169 0,-0.75595 -0.0156,-0.0469 -1.06907,-1.10151 -1.13392,-1.13393 -0.11269,-0.0563 -0.26527,0.0563 -0.37796,0 -0.15939,-0.0797 -0.21863,-0.29829 -0.37798,-0.37798 -0.11269,-0.0563 -0.2889,0.0891 -0.37799,0 -0.0891,-0.0891 0.11269,-0.32163 0,-0.37797 -0.22537,-0.11269 -0.50395,0 -0.75594,0 -0.126,0 -0.2889,0.0891 -0.37798,0 -0.0891,-0.0891 0.11268,-0.32163 0,-0.37798 -0.22538,-0.11269 -0.50398,0 -0.75595,0 -0.75597,0 -1.51191,0 -2.26788,0 -0.75594,0 -1.51188,0 -2.26785,0 -0.37798,0 -0.7633,-0.0741 -1.13392,0 -0.27626,0.0553 -0.48263,0.30965 -0.75595,0.37798 -0.24447,0.0611 -0.50397,0 -0.75596,0 -0.25199,0.12599 -0.48869,0.28889 -0.75595,0.37797 -0.23905,0.0797 -0.57777,-0.17818 -0.75596,0 -0.0891,0.0891 0.0891,0.28889 0,0.37798 -0.0891,0.0891 -0.25199,0 -0.37796,0 -0.25199,0 -0.50398,0 -0.75597,0 -0.50398,0 -1.00793,0 -1.51191,0 z"
       id="path1103"
       inkscape:connector-curvature="0" />
  </g>
</svg>
