<?xml version="1.0" encoding="UTF-8" standalone="no"?>
<!-- Created with Inkscape (http://www.inkscape.org/) -->

<svg
   xmlns:dc="http://purl.org/dc/elements/1.1/"
   xmlns:cc="http://creativecommons.org/ns#"
   xmlns:rdf="http://www.w3.org/1999/02/22-rdf-syntax-ns#"
   xmlns:svg="http://www.w3.org/2000/svg"
   xmlns="http://www.w3.org/2000/svg"
   xmlns:sodipodi="http://sodipodi.sourceforge.net/DTD/sodipodi-0.dtd"
   xmlns:inkscape="http://www.inkscape.org/namespaces/inkscape"
   width="150"
   height="150"
   viewBox="0 0 39.687499 39.687501"
   version="1.1"
   id="svg8"
   inkscape:version="0.92.3 (2405546, 2018-03-11)"
   sodipodi:docname="kiwi.svg">
  <defs
     id="defs2" />
  <sodipodi:namedview
     id="base"
     pagecolor="#ffffff"
     bordercolor="#666666"
     borderopacity="1.0"
     inkscape:pageopacity="0.0"
     inkscape:pageshadow="2"
     inkscape:zoom="2.8284271"
     inkscape:cx="144.56934"
     inkscape:cy="75.420046"
     inkscape:document-units="mm"
     inkscape:current-layer="layer1"
     showgrid="false"
     units="px"
     inkscape:window-width="1853"
     inkscape:window-height="1025"
     inkscape:window-x="67"
     inkscape:window-y="27"
     inkscape:window-maximized="1" />
  <metadata
     id="metadata5">
    <rdf:RDF>
      <cc:Work
         rdf:about="">
        <dc:format>image/svg+xml</dc:format>
        <dc:type
           rdf:resource="http://purl.org/dc/dcmitype/StillImage" />
        <dc:title></dc:title>
      </cc:Work>
    </rdf:RDF>
  </metadata>
  <g
     inkscape:label="Calque 1"
     inkscape:groupmode="layer"
     id="layer1"
     transform="translate(0,-257.31248)">
    <path
       inkscape:connector-curvature="0"
       style="fill:#c48d66;stroke-width:0.07526223"
       d="m 11.991111,259.45393 c -0.999576,0 -1.857156,0.97252 -2.2234778,2.359 l 4.4610498,0.0545 c -0.357792,-1.41532 -1.224773,-2.41344 -2.237572,-2.41344 z m 0,0"
       id="path886" />
    <path
       inkscape:connector-curvature="0"
       style="fill:#d29b6e;stroke-width:0.07526223"
       d="m 11.991111,261.26374 c 7.33042,0 10.859517,5.6726 10.859517,12.66964 0,6.99733 -3.529097,12.66963 -10.859517,12.66963 -7.3304322,0 -10.8595295,-5.6723 -10.8595295,-12.66963 0,-6.99704 3.5290973,-12.66964 10.8595295,-12.66964 z m 0,0"
       id="path888" />
    <path
       inkscape:connector-curvature="0"
       style="fill:#c48d66;stroke-width:0.07526223"
       d="m 17.32767,283.46345 c -7.255748,1.04515 -11.5574561,-4.06621 -12.5549779,-10.9921 -0.5397694,-3.74841 0.00952,-7.25222 1.7683645,-9.85112 -3.6322817,2.08382 -5.4094751,6.36083 -5.4094751,11.31315 0,6.99733 3.5290973,12.66963 10.8595295,12.66963 3.807199,0 6.579861,-1.53847 8.374384,-3.98949 -0.909029,0.39042 -1.912128,0.68765 -3.037825,0.84993 z m 0,0"
       id="path890" />
    <path
       inkscape:connector-curvature="0"
       style="fill:#afdc82;stroke-width:0.07526223"
       d="m 38.536917,283.58635 c 0,6.33084 -5.132231,11.46308 -11.462789,11.46308 -6.330843,0 -11.463087,-5.13224 -11.463087,-11.46308 0,-6.33085 5.132244,-11.46279 11.463087,-11.46279 6.330558,0 11.462789,5.13194 11.462789,11.46279 z m 0,0"
       id="path892" />
    <path
       inkscape:connector-curvature="0"
       style="fill:#cdf5a0;stroke-width:0.07526223"
       d="m 36.727101,283.58635 c 0,5.33127 -4.321991,9.65297 -9.652973,9.65297 -5.331267,0 -9.652972,-4.3217 -9.652972,-9.65297 0,-5.33098 4.321705,-9.65297 9.652972,-9.65297 5.330982,0 9.652973,4.32199 9.652973,9.65297 z m 0,0"
       id="path894" />
    <path
       inkscape:connector-curvature="0"
       style="fill:#f0ffc3;stroke-width:0.07526223"
       d="m 30.090501,283.58635 c 0,1.66606 -1.350308,3.01666 -3.016373,3.01666 -1.666064,0 -3.016657,-1.3506 -3.016657,-3.01666 0,-1.66606 1.350593,-3.01638 3.016657,-3.01638 1.666065,0 3.016373,1.35032 3.016373,3.01638 z m 0,0"
       id="path896" />
    <path
       style="stroke-width:0.07526223"
       inkscape:connector-curvature="0"
       d="m 27.073829,271.55909 c -1.271515,0 -2.534799,0.20315 -3.735765,0.59445 -0.281652,-3.20629 -1.32944,-5.93455 -3.04694,-7.919 -1.448513,-1.67341 -3.351528,-2.77558 -5.591751,-3.25714 -0.482443,-1.27475 -1.527592,-2.08794 -2.708262,-2.08794 -1.17569,0 -2.2252464,0.81435 -2.7082745,2.08734 -2.411617,0.51743 -4.4266446,1.75309 -5.9145543,3.64964 -1.8324517,2.33607 -2.80116082,5.55441 -2.80116082,9.30694 0,3.75282 0.96870912,6.97116 2.80116082,9.30723 2.0153269,2.56891 4.9972945,3.92687 8.6228288,3.92687 1.23065,0 2.394273,-0.15582 3.466167,-0.46333 1.376781,5.12547 6.062727,8.90974 11.61685,8.90974 6.631895,0 12.027262,-5.39565 12.027262,-12.02724 0,-6.63191 -5.395367,-12.02756 -12.027561,-12.02756 z m -15.082718,-11.5407 c 0.508018,0 0.981933,0.27695 1.324435,0.74498 -0.431579,-0.042 -0.872872,-0.0641 -1.324435,-0.0641 -0.450692,0 -0.891399,0.0211 -1.321508,0.0629 0.3428,-0.46656 0.816714,-0.74379 1.321508,-0.74379 z m 15.082718,34.46657 c -6.00921,0 -10.898314,-4.8891 -10.898314,-10.89831 0,-3.1375 1.353831,-6.12476 3.714299,-8.19566 0.23431,-0.2055 0.257546,-0.5621 0.0521,-0.79642 -0.205797,-0.23461 -0.56242,-0.25783 -0.79673,-0.052 -2.604777,2.2852 -4.098551,5.58145 -4.098551,9.0441 0,0.68501 0.0585,1.35647 0.16904,2.01061 -0.989576,0.29194 -2.072068,0.4413 -3.22451,0.4413 -3.2662728,0 -5.9410134,-1.20832 -7.7343816,-3.4947 -1.6751651,-2.13557 -2.5606737,-5.11285 -2.5606737,-8.61048 0,-3.49763 0.8855086,-6.47491 2.5606737,-8.61018 1.7933682,-2.28637 4.4681088,-3.49499 7.7343816,-3.49499 3.134848,0 5.64025,1.05839 7.446541,3.14515 1.61667,1.86803 2.58274,4.49163 2.801175,7.59913 -0.305173,0.13372 -0.60534,0.27929 -0.898146,0.43864 -0.274007,0.14876 -0.375437,0.49126 -0.226679,0.76527 0.14877,0.27399 0.491557,0.37542 0.765564,0.22667 1.583734,-0.86023 3.38004,-1.31504 5.194263,-1.31504 6.009523,0 10.898627,4.8891 10.898627,10.89862 0,6.00922 -4.889104,10.89833 -10.898627,10.89833 z m 0,0"
       id="path898" />
    <path
       style="stroke-width:0.07526223"
       inkscape:connector-curvature="0"
       d="m 33.71043,283.02188 h -3.100157 c -0.01442,-0.0902 -0.03292,-0.17905 -0.05387,-0.26694 l 1.559928,-0.6462 c 0.288114,-0.11931 0.424832,-0.44951 0.305758,-0.73763 -0.119304,-0.28782 -0.449808,-0.42453 -0.737623,-0.30546 l -1.560811,0.6465 c -0.04762,-0.0773 -0.09849,-0.1523 -0.151709,-0.2258 l 2.19378,-2.19348 c 0.220504,-0.22049 0.220504,-0.57799 0,-0.79819 -0.220489,-0.2205 -0.577696,-0.2205 -0.798186,0 l -2.19378,2.19349 c -0.07319,-0.0532 -0.148458,-0.10408 -0.225496,-0.15172 l 0.646491,-1.5605 c 0.119033,-0.28812 -0.01769,-0.61827 -0.305459,-0.73763 -0.288114,-0.1193 -0.618263,0.0177 -0.737622,0.30546 l -0.646205,1.56021 c -0.08788,-0.0212 -0.176685,-0.0395 -0.266947,-0.0537 v -3.10017 c 0,-0.31192 -0.252825,-0.56446 -0.564459,-0.56446 -0.311921,0 -0.564475,0.25254 -0.564475,0.56446 v 3.10017 c -0.09019,0.0145 -0.179324,0.0326 -0.267231,0.0537 l -0.646192,-1.56021 c -0.119033,-0.28782 -0.449523,-0.42482 -0.737337,-0.30546 -0.288113,0.11931 -0.424818,0.44951 -0.305458,0.73763 l 0.646192,1.5605 c -0.07699,0.0476 -0.152294,0.0985 -0.225496,0.15172 l -2.193767,-2.19349 c -0.220204,-0.2205 -0.577697,-0.22079 -0.7982,0 -0.220489,0.2202 -0.220489,0.5777 0,0.79819 l 2.193781,2.19348 c -0.05319,0.0732 -0.104069,0.14847 -0.151695,0.2258 l -1.560813,-0.6465 c -0.287828,-0.1193 -0.617977,0.0174 -0.737337,0.30546 -0.119304,0.28812 0.01741,0.61827 0.305459,0.73763 l 1.559928,0.6462 c -0.02081,0.0879 -0.03946,0.17668 -0.05346,0.26694 h -3.100457 c -0.311635,0 -0.56446,0.25284 -0.56446,0.56447 0,0.31163 0.252825,0.56446 0.56446,0.56446 h 3.100457 c 0.01442,0.0902 0.03265,0.17905 0.05346,0.26694 l -1.559928,0.64621 c -0.288114,0.1193 -0.424818,0.44951 -0.305459,0.73763 0.08992,0.21725 0.300167,0.34837 0.521541,0.34837 0.07197,0 0.145233,-0.0138 0.215796,-0.0428 l 1.560813,-0.64648 c 0.04762,0.0773 0.09849,0.15229 0.151695,0.22549 l -2.193781,2.19378 c -0.220489,0.22049 -0.220489,0.57799 0,0.79818 0.11019,0.1102 0.254893,0.16552 0.399243,0.16552 0.144348,0 0.288997,-0.0553 0.398957,-0.16552 l 2.193767,-2.19347 c 0.07319,0.0532 0.148471,0.1038 0.225496,0.1517 l -0.646491,1.56051 c -0.119033,0.28812 0.01769,0.61828 0.305757,0.73763 0.07061,0.0291 0.143765,0.0428 0.215783,0.0428 0.221373,0 0.431593,-0.13115 0.521554,-0.34868 l 0.646192,-1.55993 c 0.08788,0.0212 0.176685,0.0395 0.266945,0.0538 v 3.10016 c 0,0.31164 0.25284,0.56447 0.564461,0.56447 0.311934,0 0.564474,-0.25283 0.564474,-0.56447 v -3.10016 c 0.09019,-0.0145 0.179338,-0.0326 0.266946,-0.0538 l 0.646191,1.55993 c 0.09019,0.21757 0.300466,0.34868 0.52184,0.34868 0.07196,0 0.145234,-0.0138 0.215796,-0.0428 0.288114,-0.1193 0.424819,-0.44981 0.305459,-0.73763 l -0.646491,-1.56051 c 0.07727,-0.0476 0.152281,-0.0985 0.225782,-0.1517 l 2.193481,2.19347 c 0.11019,0.1102 0.254608,0.16552 0.399243,0.16552 0.144349,0 0.288998,-0.0553 0.398943,-0.16552 0.220503,-0.22048 0.220503,-0.57769 0,-0.79818 l -2.193481,-2.19348 c 0.05319,-0.0732 0.104069,-0.14847 0.151709,-0.22579 l 1.560811,0.64648 c 0.07061,0.0294 0.143766,0.0433 0.215783,0.0433 0.221388,0 0.43158,-0.13141 0.521541,-0.34867 0.119305,-0.28812 -0.01741,-0.61827 -0.305459,-0.73735 l -1.559928,-0.64619 c 0.02095,-0.0879 0.03945,-0.17698 0.05346,-0.26694 h 3.100443 c 0.311634,0 0.564473,-0.25284 0.564473,-0.56446 0,-0.31193 -0.252839,-0.56477 -0.564473,-0.56477 z m -6.636601,3.01667 c -1.352062,0 -2.451898,-1.09984 -2.451898,-2.4522 0,-1.35208 1.099836,-2.4519 2.451898,-2.4519 1.352076,0 2.452198,1.09982 2.452198,2.4519 0,1.35236 -1.099822,2.4522 -2.452198,2.4522 z m 0,0"
       id="path900" />
  </g>
</svg>
