<?xml version="1.0" encoding="UTF-8" standalone="no"?>
<!-- Created with Inkscape (http://www.inkscape.org/) -->

<svg
   xmlns:dc="http://purl.org/dc/elements/1.1/"
   xmlns:cc="http://creativecommons.org/ns#"
   xmlns:rdf="http://www.w3.org/1999/02/22-rdf-syntax-ns#"
   xmlns:svg="http://www.w3.org/2000/svg"
   xmlns="http://www.w3.org/2000/svg"
   xmlns:sodipodi="http://sodipodi.sourceforge.net/DTD/sodipodi-0.dtd"
   xmlns:inkscape="http://www.inkscape.org/namespaces/inkscape"
   width="1280"
   height="640"
   viewBox="0 0 338.66666 169.33353"
   version="1.1"
   id="svg8"
   inkscape:version="0.92.3 (2405546, 2018-03-11)"
   sodipodi:docname="mountains_b.svg">
  <defs
     id="defs2" />
  <sodipodi:namedview
     id="base"
     pagecolor="#ffffff"
     bordercolor="#666666"
     borderopacity="1.0"
     inkscape:pageopacity="0.0"
     inkscape:pageshadow="2"
     inkscape:zoom="0.49813865"
     inkscape:cx="1287.839"
     inkscape:cy="203.11194"
     inkscape:document-units="mm"
     inkscape:current-layer="layer1"
     showgrid="false"
     units="px"
     showguides="true"
     inkscape:guide-bbox="true"
     inkscape:window-width="1920"
     inkscape:window-height="1017"
     inkscape:window-x="-8"
     inkscape:window-y="100"
     inkscape:window-maximized="1">
    <sodipodi:guide
       position="212.80059,35.151827"
       orientation="0,1"
       id="guide821"
       inkscape:locked="false" />
    <sodipodi:guide
       position="356.14806,-0.094494159"
       orientation="0,1"
       id="guide837"
       inkscape:locked="false" />
  </sodipodi:namedview>
  <metadata
     id="metadata5">
    <rdf:RDF>
      <cc:Work
         rdf:about="">
        <dc:format>image/svg+xml</dc:format>
        <dc:type
           rdf:resource="http://purl.org/dc/dcmitype/StillImage" />
        <dc:title></dc:title>
      </cc:Work>
    </rdf:RDF>
  </metadata>
  <g
     inkscape:label="Calque 1"
     inkscape:groupmode="layer"
     id="layer1"
     transform="translate(0,-127.66645)">
    <path
       style="fill:#c8b7b7;stroke:none;stroke-width:0.46834788px;stroke-linecap:butt;stroke-linejoin:miter;stroke-opacity:1"
       d="m 73.23344,162.60894 c -17.148105,0 -18.498388,143.77338 -34.595706,132.76098 C 22.540411,284.35749 16.687309,169.33827 0.22413862,170.56188 c -0.0756631,0.006 -0.14922907,0.0259 -0.22433862,0.0369 v 126.5144 h 338.421 l 0.24606,-126.57461 c -6.53881,1.66968 -13.60461,45.08258 -23.87863,-0.43499 -22.99051,20.33364 -31.46322,70.84065 -31.46322,109.24679 -1.37493,4.51674 -2.70742,7.55791 -3.95953,7.45444 -13.18688,-1.08949 -17.19461,-124.80781 -40.6089,-122.36061 -18.89139,1.97446 -18.32461,104.8766 -40.60891,108.90047 -16.62324,3.00167 -13.80986,-107.95002 -34.11654,-106.6906 -14.54267,0.90196 -11.87742,126.91808 -34.66291,129.93885 -23.60065,3.1288 -37.11068,-133.98389 -56.13478,-133.98389 z"
       id="path819-1"
       inkscape:connector-curvature="0"
       sodipodi:nodetypes="csccccccccsssssc" />
  </g>
</svg>
