<?xml version="1.0" encoding="UTF-8" standalone="no"?>
<svg
   xmlns:dc="http://purl.org/dc/elements/1.1/"
   xmlns:cc="http://creativecommons.org/ns#"
   xmlns:rdf="http://www.w3.org/1999/02/22-rdf-syntax-ns#"
   xmlns:svg="http://www.w3.org/2000/svg"
   xmlns="http://www.w3.org/2000/svg"
   xmlns:sodipodi="http://sodipodi.sourceforge.net/DTD/sodipodi-0.dtd"
   xmlns:inkscape="http://www.inkscape.org/namespaces/inkscape"
   height="511pt"
   viewBox="-15 0 511 511.99754"
   width="511pt"
   version="1.1"
   id="svg5927"
   sodipodi:docname="mushroom.svg"
   inkscape:version="0.92.3 (2405546, 2018-03-11)">
  <metadata
     id="metadata5933">
    <rdf:RDF>
      <cc:Work
         rdf:about="">
        <dc:format>image/svg+xml</dc:format>
        <dc:type
           rdf:resource="http://purl.org/dc/dcmitype/StillImage" />
        <dc:title></dc:title>
      </cc:Work>
    </rdf:RDF>
  </metadata>
  <defs
     id="defs5931" />
  <sodipodi:namedview
     pagecolor="#ffffff"
     bordercolor="#666666"
     borderopacity="1"
     objecttolerance="10"
     gridtolerance="10"
     guidetolerance="10"
     inkscape:pageopacity="0"
     inkscape:pageshadow="2"
     inkscape:window-width="1853"
     inkscape:window-height="1025"
     id="namedview5929"
     showgrid="false"
     inkscape:zoom="1.2387476"
     inkscape:cx="322.90679"
     inkscape:cy="479.7606"
     inkscape:window-x="67"
     inkscape:window-y="27"
     inkscape:window-maximized="1"
     inkscape:current-layer="svg5927" />
  <g
     transform="matrix(1.5883684,0,0,1.5883684,-11.268295,5.4469144)"
     id="g6201">
    <g
       id="g6197">
      <g
         id="g6161">
        <path
           inkscape:connector-curvature="0"
           style="fill:#fdd44b"
           d="m 26.903,146.112 c -0.42,-1.11 -0.801,-2.262 -1.154,-3.443 0.353,1.18 0.734,2.332 1.154,3.443 z"
           id="path6133" />
        <path
           inkscape:connector-curvature="0"
           style="fill:#fdd44b"
           d="m 28.297,149.385 c -0.437,-0.937 -0.853,-1.899 -1.238,-2.892 0.386,0.993 0.801,1.954 1.238,2.892 z"
           id="path6135" />
        <path
           inkscape:connector-curvature="0"
           style="fill:#fdd44b"
           d="m 25.506,141.804 c -0.272,-0.971 -0.521,-1.965 -0.746,-2.983 0.225,1.017 0.474,2.012 0.746,2.983 z"
           id="path6137" />
        <path
           inkscape:connector-curvature="0"
           style="fill:#fdd44b"
           d="m 30.203,153.056 c -0.548,-0.938 -1.059,-1.919 -1.55,-2.922 0.491,1.003 1.003,1.983 1.55,2.922 z"
           id="path6139" />
        <path
           inkscape:connector-curvature="0"
           style="fill:#fdd44b"
           d="m 24.565,137.948 c -0.259,-1.262 -0.485,-2.557 -0.669,-3.892 0.184,1.335 0.41,2.629 0.669,3.892 z"
           id="path6141" />
        <path
           inkscape:connector-curvature="0"
           style="fill:#fdd44b"
           d="m 34.469,159.106 c 0.714,0.848 1.456,1.661 2.222,2.44 -0.767,-0.778 -1.508,-1.592 -2.222,-2.44 z"
           id="path6143" />
        <path
           inkscape:connector-curvature="0"
           style="fill:#fdd44b"
           d="m 23.805,133.291 c -0.142,-1.124 -0.255,-2.275 -0.343,-3.45 0.088,1.175 0.202,2.326 0.343,3.45 z"
           id="path6145" />
        <path
           inkscape:connector-curvature="0"
           style="fill:#fdd44b"
           d="m 23.382,128.673 c -0.083,-1.439 -0.141,-2.902 -0.141,-4.418 0,1.515 0.058,2.978 0.141,4.418 z"
           id="path6147" />
        <path
           inkscape:connector-curvature="0"
           style="fill:#fdd44b"
           d="m 53.947,172.491 c -1.036,-0.385 -2.059,-0.802 -3.068,-1.25 1.009,0.447 2.031,0.865 3.068,1.25 z"
           id="path6149" />
        <path
           inkscape:connector-curvature="0"
           style="fill:#fdd44b"
           d="m 32.068,155.965 c -0.637,-0.916 -1.252,-1.859 -1.83,-2.846 0.578,0.987 1.193,1.93 1.83,2.846 z"
           id="path6151" />
        <path
           inkscape:connector-curvature="0"
           style="fill:#fdd44b"
           d="m 50.77,171.193 c -2.005,-0.896 -3.948,-1.923 -5.817,-3.079 1.869,1.157 3.812,2.183 5.817,3.079 z"
           id="path6153" />
        <path
           inkscape:connector-curvature="0"
           style="fill:#fdd44b"
           d="m 34.215,158.793 c -0.613,-0.74 -1.202,-1.511 -1.772,-2.305 0.57,0.795 1.16,1.564 1.772,2.305 z"
           id="path6155" />
        <path
           inkscape:connector-curvature="0"
           style="fill:#fdd44b"
           d="m 39.091,163.794 c -0.747,-0.651 -1.476,-1.328 -2.183,-2.036 0.707,0.708 1.436,1.385 2.183,2.036 z"
           id="path6157" />
        <path
           inkscape:connector-curvature="0"
           style="fill:#fdd44b"
           d="m 44.663,167.932 c -1.826,-1.149 -3.576,-2.428 -5.235,-3.843 1.659,1.416 3.409,2.694 5.235,3.843 z"
           id="path6159" />
      </g>
      <g
         id="g6195">
        <path
           inkscape:connector-curvature="0"
           style="fill:#fdd44b"
           d="m 118.12,276.536 c 0.077,0.313 0.142,0.635 0.226,0.942 -0.085,-0.306 -0.149,-0.629 -0.226,-0.942 z"
           id="path6163" />
        <path
           inkscape:connector-curvature="0"
           style="fill:#fdd44b"
           d="m 116.946,268.92 c 0.028,0.401 0.072,0.789 0.109,1.183 -0.037,-0.394 -0.081,-0.782 -0.109,-1.183 z"
           id="path6165" />
        <path
           inkscape:connector-curvature="0"
           style="fill:#fdd44b"
           d="m 117.371,272.74 c 0.062,0.415 0.127,0.829 0.2,1.235 -0.073,-0.407 -0.137,-0.82 -0.2,-1.235 z"
           id="path6167" />
        <path
           inkscape:connector-curvature="0"
           style="fill:#fdd44b"
           d="m 119.38,280.685 c 0.087,0.231 0.194,0.446 0.285,0.673 -0.092,-0.227 -0.198,-0.442 -0.285,-0.673 z"
           id="path6169" />
        <path
           inkscape:connector-curvature="0"
           style="fill:#fdd44b"
           d="m 129.59,294.117 c 0.333,0.241 0.675,0.475 1.021,0.705 -0.346,-0.23 -0.687,-0.464 -1.021,-0.705 z"
           id="path6171" />
        <path
           inkscape:connector-curvature="0"
           style="fill:#fdd44b"
           d="m 124.457,289.372 c 0.154,0.182 0.293,0.378 0.452,0.556 -0.159,-0.179 -0.297,-0.374 -0.452,-0.556 z"
           id="path6173" />
        <path
           inkscape:connector-curvature="0"
           style="fill:#fdd44b"
           d="m 122.341,286.515 c 0.204,0.313 0.404,0.629 0.619,0.933 -0.214,-0.304 -0.415,-0.62 -0.619,-0.933 z"
           id="path6175" />
        <path
           inkscape:connector-curvature="0"
           style="fill:#fdd44b"
           d="m 120.709,283.683 c 0.17,0.338 0.352,0.666 0.533,0.995 -0.181,-0.33 -0.364,-0.657 -0.533,-0.995 z"
           id="path6177" />
        <path
           inkscape:connector-curvature="0"
           style="fill:#fdd44b"
           d="m 127.083,292.106 c 0.257,0.232 0.535,0.447 0.801,0.67 -0.266,-0.223 -0.544,-0.438 -0.801,-0.67 z"
           id="path6179" />
        <path
           inkscape:connector-curvature="0"
           style="fill:#fdd44b"
           d="m 133.49,296.542 c -0.357,-0.188 -0.694,-0.392 -1.039,-0.59 0.346,0.197 0.683,0.402 1.039,0.59 z"
           id="path6181" />
        <path
           inkscape:connector-curvature="0"
           style="fill:#fdd44b"
           d="m 144.887,126.013 c -0.032,0.689 -0.069,1.419 -0.108,2.165 0.039,-0.745 0.077,-1.477 0.108,-2.165 z"
           id="path6183" />
        <path
           inkscape:connector-curvature="0"
           style="fill:#fdd44b"
           d="m 145.005,123.132 c -0.019,0.541 -0.042,1.109 -0.067,1.693 0.025,-0.584 0.048,-1.152 0.067,-1.693 z"
           id="path6185" />
        <path
           inkscape:connector-curvature="0"
           style="fill:#fdd44b"
           d="m 144.724,129.245 c -0.063,1.146 -0.132,2.344 -0.211,3.626 0.079,-1.283 0.148,-2.481 0.211,-3.626 z"
           id="path6187" />
        <path
           inkscape:connector-curvature="0"
           style="fill:#fdd44b"
           d="m 137.118,298.201 c -0.244,-0.097 -0.497,-0.186 -0.737,-0.287 0.239,0.101 0.493,0.19 0.737,0.287 z"
           id="path6189" />
        <path
           inkscape:connector-curvature="0"
           style="fill:#fdd44b"
           d="M 261.563,52.663 C 242.989,41.573 216.631,32.115 180.571,31.829 129.557,32.232 97.936,50.989 80.348,66.762 c -22.271,19.973 -35.043,47.04 -35.043,74.26 0,13.315 3.295,23.647 8.657,31.474 6.955,2.58 14.467,3.763 21.848,3.793 14.519,-1.165 24.333,-7.089 26.267,-15.887 0.896,-4.078 -0.329,-8.083 -2.915,-9.524 -1.063,-0.593 -2.035,-0.974 -2.977,-1.18 -1.792,0.08 -3.557,0.24 -5.127,0.432 -1.383,0.452 -2.9,1.126 -4.706,1.956 -5.494,2.524 -14.684,6.75 -23.519,-1.664 -4.02,-3.828 -4.852,-9.835 -2.227,-16.067 5.026,-11.926 26.814,-31.618 76.644,-29.804 2.147,0.081 4.178,1.069 5.577,2.712 1.572,1.846 2.574,3.057 2.216,14.775 0.006,-0.204 0.016,-0.432 0.021,-0.63 4.475,-0.226 10.506,24.012 8.449,55.993 -0.939,14.6 -2.729,24.325 -7.005,35.501 -2.492,6.519 -5.319,13.907 -8.133,23.328 -7.164,23.989 -6.567,34.001 -6.484,34.988 0.086,0.441 0.08,0.639 0.08,1.12 0,11.986 3.488,21.076 10.39,27.255 0.05,0.108 0.096,0.222 0.146,0.332 4.706,1.22 10.014,1.918 16.001,2.022 27.672,-0.48 41.709,-12.919 41.709,-37.01 0,-0.483 -0.006,-0.68 0.08,-1.123 0.084,-0.988 0.684,-10.999 -6.484,-34.983 -2.813,-9.42 -5.639,-16.807 -8.131,-23.325 -4.276,-11.177 -7.967,-20.832 -9.758,-35.353 -1.407,-11.395 -2.686,-25.326 -3.422,-37.266 -1.357,-22.048 -0.276,-23.317 1.685,-25.623 1.4,-1.643 3.429,-2.631 5.571,-2.712 49.809,-1.821 71.625,17.878 76.65,29.804 2.625,6.233 1.793,12.239 -2.228,16.068 -8.833,8.413 -18.024,4.187 -23.517,1.663 -5.545,-2.549 -8.405,-3.663 -12.811,-1.208 -2.586,1.441 -3.811,5.446 -2.915,9.524 1.934,8.798 11.748,14.722 26.267,15.887 25.471,-0.106 52.567,-13.815 52.567,-52.035 0,-26.034 -11.707,-51.911 -32.208,-71.592 z"
           id="path6191" />
        <path
           inkscape:connector-curvature="0"
           style="fill:#fdd44b"
           d="m 141.235,299.593 c -0.454,-0.131 -0.914,-0.257 -1.356,-0.399 0.442,0.141 0.902,0.268 1.356,0.399 z"
           id="path6193" />
      </g>
    </g>
    <path
       inkscape:connector-curvature="0"
       style="fill:#3f2d20"
       d="M 268.771,38.796 C 249.526,21.536 215.334,1.052 161.006,0.049 160.732,0.018 160.456,0 160.174,0 159.612,0 159.065,0.016 158.507,0.019 157.949,0.016 157.402,0 156.84,0 156.558,0 156.282,0.018 156.008,0.049 101.68,1.052 67.487,21.536 48.242,38.796 22.795,61.619 8.2,92.767 8.2,124.255 c 0,46.242 33.963,66.989 67.694,67.078 0.01,0 0.021,0 0.032,0 0.061,0 0.121,0.004 0.182,0.004 0.101,0 0.199,-0.012 0.299,-0.016 0.09,-0.003 0.179,0.001 0.269,-0.006 0.056,-0.004 0.107,-0.011 0.162,-0.016 0.023,-0.002 0.045,-0.004 0.068,-0.006 31.884,-2.509 38.571,-21.794 39.861,-27.659 2.363,-10.741 -1.768,-21.147 -10.28,-25.893 -11.272,-6.283 -20.387,-2.094 -26.419,0.68 -3.502,1.609 -4.831,2.088 -5.666,1.913 0.479,-1.198 1.691,-3.255 4.366,-5.764 4.945,-4.639 19.488,-14.914 51.294,-15.092 -0.183,9.733 -1.588,30.111 -3.898,48.832 -1.568,12.701 -4.794,21.137 -8.88,31.818 -2.587,6.766 -5.52,14.433 -8.497,24.396 -7.68,25.718 -7.336,37.682 -7.031,40.841 0.1,17.28 6.266,31.104 17.846,40 9.13,7.014 21.229,10.878 35.993,11.534 0.405,0.067 0.821,0.112 1.246,0.112 0.562,0 1.111,-0.016 1.667,-0.024 0.555,0.009 1.105,0.024 1.667,0.024 0.425,0 0.84,-0.044 1.246,-0.112 14.763,-0.656 26.861,-4.519 35.992,-11.534 11.58,-8.896 17.745,-22.719 17.845,-39.999 0.306,-3.164 0.651,-15.13 -7.031,-40.842 -2.976,-9.961 -5.908,-17.628 -8.495,-24.392 -4.085,-10.683 -7.312,-19.12 -8.879,-31.823 -2.311,-18.72 -3.716,-39.098 -3.899,-48.832 31.801,0.179 46.348,10.454 51.294,15.092 2.674,2.509 3.888,4.565 4.365,5.764 -0.831,0.175 -2.163,-0.304 -5.664,-1.913 -6.035,-2.774 -15.15,-6.963 -26.419,-0.68 -8.512,4.745 -12.643,15.151 -10.28,25.893 1.29,5.865 7.977,25.151 39.861,27.659 0.022,0.002 0.045,0.004 0.068,0.006 0.056,0.005 0.107,0.012 0.162,0.016 0.094,0.008 0.187,0.004 0.28,0.007 0.096,0.004 0.191,0.015 0.288,0.015 0.055,0 0.11,-0.003 0.164,-0.003 0.022,-0.001 0.043,-0.001 0.064,-0.001 33.725,-0.094 67.678,-20.843 67.678,-67.078 -0.003,-31.487 -14.597,-62.635 -40.044,-85.458 z m -53.834,121.607 c -0.896,-4.078 0.329,-8.083 2.915,-9.524 4.406,-2.454 7.266,-1.341 12.811,1.208 5.493,2.524 14.684,6.75 23.517,-1.663 4.021,-3.829 4.853,-9.835 2.228,-16.068 -5.025,-11.926 -26.841,-31.625 -76.65,-29.804 -2.142,0.08 -4.172,1.069 -5.571,2.712 -1.962,2.305 -3.043,3.574 -1.685,25.622 0.735,11.939 2.014,25.871 3.422,37.266 1.791,14.521 5.483,24.176 9.758,35.353 2.492,6.518 5.318,13.905 8.131,23.325 7.167,23.984 6.568,33.995 6.484,34.983 -0.086,0.443 -0.08,0.64 -0.08,1.123 0,24.092 -14.037,36.53 -41.709,37.01 -27.674,-0.48 -41.711,-12.918 -41.711,-37.01 0,-0.481 0.006,-0.679 -0.08,-1.119 -0.083,-0.987 -0.681,-10.999 6.484,-34.988 2.815,-9.421 5.641,-16.809 8.133,-23.328 4.275,-11.176 7.967,-20.829 9.759,-35.348 1.406,-11.398 2.685,-25.329 3.421,-37.266 1.357,-22.049 0.276,-23.318 -1.686,-25.623 -1.399,-1.643 -3.43,-2.631 -5.577,-2.712 -49.83,-1.813 -71.618,17.877 -76.644,29.804 -2.626,6.232 -1.793,12.239 2.227,16.067 8.835,8.414 18.025,4.188 23.519,1.664 1.806,-0.831 3.324,-1.504 4.706,-1.956 1.838,-0.601 3.435,-0.803 5.127,-0.432 0.942,0.207 1.914,0.587 2.977,1.18 2.586,1.441 3.811,5.447 2.915,9.524 -1.934,8.798 -11.748,14.722 -26.267,15.887 -25.472,-0.106 -52.569,-13.814 -52.569,-52.035 0,-27.22 12.772,-54.287 35.043,-74.261 17.588,-15.773 49.209,-34.53 100.223,-34.933 51.014,0.403 82.634,19.16 100.222,34.933 22.269,19.973 35.042,47.04 35.042,74.261 0,38.221 -27.096,51.93 -52.567,52.035 -14.52,-1.164 -24.334,-7.089 -26.268,-15.887 z"
       id="path6199" />
  </g>
</svg>
