<?xml version="1.0" encoding="UTF-8" standalone="no"?>
<svg
   xmlns:dc="http://purl.org/dc/elements/1.1/"
   xmlns:cc="http://creativecommons.org/ns#"
   xmlns:rdf="http://www.w3.org/1999/02/22-rdf-syntax-ns#"
   xmlns:svg="http://www.w3.org/2000/svg"
   xmlns="http://www.w3.org/2000/svg"
   xmlns:sodipodi="http://sodipodi.sourceforge.net/DTD/sodipodi-0.dtd"
   xmlns:inkscape="http://www.inkscape.org/namespaces/inkscape"
   height="511pt"
   viewBox="-15 0 511 511.99754"
   width="511pt"
   version="1.1"
   id="svg5927"
   sodipodi:docname="olives.svg"
   inkscape:version="0.92.3 (2405546, 2018-03-11)">
  <metadata
     id="metadata5933">
    <rdf:RDF>
      <cc:Work
         rdf:about="">
        <dc:format>image/svg+xml</dc:format>
        <dc:type
           rdf:resource="http://purl.org/dc/dcmitype/StillImage" />
        <dc:title></dc:title>
      </cc:Work>
    </rdf:RDF>
  </metadata>
  <defs
     id="defs5931" />
  <sodipodi:namedview
     pagecolor="#ffffff"
     bordercolor="#666666"
     borderopacity="1"
     objecttolerance="10"
     gridtolerance="10"
     guidetolerance="10"
     inkscape:pageopacity="0"
     inkscape:pageshadow="2"
     inkscape:window-width="1853"
     inkscape:window-height="1025"
     id="namedview5929"
     showgrid="false"
     inkscape:zoom="1.2387476"
     inkscape:cx="388.29542"
     inkscape:cy="516.62949"
     inkscape:window-x="67"
     inkscape:window-y="27"
     inkscape:window-maximized="1"
     inkscape:current-layer="svg5927" />
  <g
     transform="matrix(9.4683593,0,0,9.4683593,-11.86964,6.0556614)"
     id="g4637">
    <path
       inkscape:connector-curvature="0"
       style="fill:#436b1c"
       d="m 39.685,3.179 c -7.524,0 -13.623,6.099 -13.623,13.623 0,2.243 0.552,4.353 1.512,6.219 1.496,-0.565 3.11,-0.888 4.804,-0.888 5.281,0 9.851,3.011 12.111,7.404 5.15,-1.944 8.819,-6.905 8.819,-12.735 0,-7.524 -6.1,-13.623 -13.623,-13.623 z"
       id="path4609" />
    <g
       id="g4615">
      <path
         inkscape:connector-curvature="0"
         style="fill:#d13834"
         d="m 40.308,11.579 c -1.657,0 -3,-0.94 -3,-2.1 0,-1.16 1.343,-2.1 3,-2.1 1.657,0 3,0.94 3,2.1"
         id="path4611" />
      <path
         inkscape:connector-curvature="0"
         style="fill:#659c35"
         d="m 40.308,12.579 c -2.243,0 -4,-1.361 -4,-3.1 0,-1.739 1.757,-3.1 4,-3.1 2.243,0 4,1.362 4,3.1 0,0.552 -0.447,1 -1,1 -0.553,0 -1,-0.448 -1,-1 0,-0.52 -0.855,-1.1 -2,-1.1 -1.145,0 -2,0.581 -2,1.1 0,0.519 0.855,1.1 2,1.1 0.553,0 1,0.448 1,1 0,0.552 -0.448,1 -1,1 z"
         id="path4613" />
    </g>
    <path
       inkscape:connector-curvature="0"
       style="fill:#659c35"
       d="m 18.754,35.756 c 0,-5.652 3.443,-10.499 8.345,-12.561 C 26.172,16.573 20.501,11.472 13.624,11.472 6.099,11.471 0,17.57 0,25.094 c 0,7.524 6.099,13.623 13.623,13.623 1.872,0 3.655,-0.379 5.279,-1.062 -0.088,-0.622 -0.148,-1.253 -0.148,-1.899 z"
       id="path4617" />
    <g
       id="g4623">
      <path
         inkscape:connector-curvature="0"
         style="fill:#ed3f32"
         d="m 14.308,20.979 c -1.657,0 -3,-0.94 -3,-2.1 0,-1.16 1.343,-2.1 3,-2.1 1.657,0 3,0.94 3,2.1"
         id="path4619" />
      <path
         inkscape:connector-curvature="0"
         style="fill:#436b1c"
         d="m 14.308,21.979 c -2.243,0 -4,-1.362 -4,-3.1 0,-1.738 1.757,-3.1 4,-3.1 2.243,0 4,1.362 4,3.1 0,0.552 -0.447,1 -1,1 -0.553,0 -1,-0.448 -1,-1 0,-0.52 -0.855,-1.1 -2,-1.1 -1.145,0 -2,0.581 -2,1.1 0,0.519 0.855,1.1 2,1.1 0.553,0 1,0.448 1,1 0,0.552 -0.448,1 -1,1 z"
         id="path4621" />
    </g>
    <circle
       style="fill:#88c057"
       cx="32.577"
       cy="35.756001"
       r="14.373"
       id="circle4625" />
    <path
       inkscape:connector-curvature="0"
       style="fill:#a4e869"
       d="m 23.611,40.217 c -0.412,0 -0.798,-0.257 -0.942,-0.667 -0.403,-1.14 -0.607,-2.333 -0.607,-3.548 0,-0.552 0.447,-1 1,-1 0.553,0 1,0.448 1,1 0,0.987 0.166,1.957 0.492,2.882 0.185,0.521 -0.089,1.092 -0.609,1.276 -0.111,0.039 -0.223,0.057 -0.334,0.057 z"
       id="path4627" />
    <path
       inkscape:connector-curvature="0"
       style="fill:#a4e869"
       d="m 32.683,46.625 c -3.072,0 -5.993,-1.331 -8.015,-3.653 -0.363,-0.417 -0.319,-1.048 0.097,-1.411 0.415,-0.362 1.049,-0.321 1.411,0.097 1.642,1.885 4.014,2.966 6.507,2.966 10e-4,0 10e-4,0 10e-4,0 0.553,0 1.001,0.448 1.001,1 0,0.552 -0.447,1 -1,1 0,10e-4 -0.001,10e-4 -0.002,10e-4 z"
       id="path4629" />
    <g
       id="g4635">
      <path
         inkscape:connector-curvature="0"
         style="fill:#ed3f32"
         d="m 33.308,30.579 c -1.657,0 -3,-0.94 -3,-2.1 0,-1.16 1.343,-2.1 3,-2.1 1.657,0 3,0.94 3,2.1"
         id="path4631" />
      <path
         inkscape:connector-curvature="0"
         style="fill:#659c35"
         d="m 33.308,31.579 c -2.243,0 -4,-1.361 -4,-3.1 0,-1.739 1.757,-3.1 4,-3.1 2.243,0 4,1.362 4,3.1 0,0.552 -0.447,1 -1,1 -0.553,0 -1,-0.448 -1,-1 0,-0.52 -0.855,-1.1 -2,-1.1 -1.145,0 -2,0.581 -2,1.1 0,0.519 0.855,1.1 2,1.1 0.553,0 1,0.448 1,1 0,0.552 -0.448,1 -1,1 z"
         id="path4633" />
    </g>
  </g>
</svg>
