<?xml version="1.0" encoding="UTF-8" standalone="no"?>
<svg
   xmlns:dc="http://purl.org/dc/elements/1.1/"
   xmlns:cc="http://creativecommons.org/ns#"
   xmlns:rdf="http://www.w3.org/1999/02/22-rdf-syntax-ns#"
   xmlns:svg="http://www.w3.org/2000/svg"
   xmlns="http://www.w3.org/2000/svg"
   xmlns:sodipodi="http://sodipodi.sourceforge.net/DTD/sodipodi-0.dtd"
   xmlns:inkscape="http://www.inkscape.org/namespaces/inkscape"
   height="511pt"
   viewBox="-15 0 511 511.99754"
   width="511pt"
   version="1.1"
   id="svg5927"
   sodipodi:docname="pears.svg"
   inkscape:version="0.92.3 (2405546, 2018-03-11)">
  <metadata
     id="metadata5933">
    <rdf:RDF>
      <cc:Work
         rdf:about="">
        <dc:format>image/svg+xml</dc:format>
        <dc:type
           rdf:resource="http://purl.org/dc/dcmitype/StillImage" />
        <dc:title></dc:title>
      </cc:Work>
    </rdf:RDF>
  </metadata>
  <defs
     id="defs5931" />
  <sodipodi:namedview
     pagecolor="#ffffff"
     bordercolor="#666666"
     borderopacity="1"
     objecttolerance="10"
     gridtolerance="10"
     guidetolerance="10"
     inkscape:pageopacity="0"
     inkscape:pageshadow="2"
     inkscape:window-width="1853"
     inkscape:window-height="1025"
     id="namedview5929"
     showgrid="false"
     inkscape:zoom="1.2387476"
     inkscape:cx="395.56082"
     inkscape:cy="342.38672"
     inkscape:window-x="67"
     inkscape:window-y="27"
     inkscape:window-maximized="1"
     inkscape:current-layer="svg5927" />
  <path
     inkscape:connector-curvature="0"
     style="fill:#434a54;stroke-width:0.98906273"
     d="m 188.31397,32.92803 c 0,-5.825574 -4.7208,-10.554283 -10.54735,-10.554283 -1.19777,0 -2.33321,0.216604 -3.40733,0.571684 v 0 c -1.33722,0.44804 -13.39784,4.82167 -25.44462,17.339248 -11.0419,11.466213 -24.20037,32.329497 -24.20037,66.497631 0,5.82657 4.72078,10.53946 10.54735,10.53946 5.82656,0 10.54736,-4.71387 10.54736,-10.53946 0,-50.564814 33.99804,-63.376137 35.44307,-63.901332 l -0.0771,0.03067 v 0 c 4.14912,-1.421291 7.13907,-5.34688 7.13907,-9.983602 z"
     id="path12392" />
  <path
     inkscape:connector-curvature="0"
     style="fill:#f6bb42;stroke-width:0.98906273"
     d="M 234.28166,229.28367 C 218.14805,214.15498 190.97257,109.78018 135.26165,96.227046 79.549726,109.78018 50.821407,214.15498 34.687819,229.28367 c -17.238377,16.14943 -46.817292,53.4005 -46.817292,108.04521 0,52.51233 40.264752,132.53146 139.500383,138.7754 0.14638,0.0306 0.27003,0.0306 0.40156,0.0306 2.26396,0 4.45868,-1.175 6.70683,-2.19472 2.25605,1.01972 4.45078,2.19472 6.71475,2.19472 0.13148,0 0.25517,0 0.40155,-0.0306 99.23563,-6.24296 139.49345,-86.26307 139.49345,-138.7754 0.003,-54.64471 -29.56902,-91.89578 -46.80739,-108.04521 z"
     id="path12394" />
  <g
     transform="matrix(0.98906274,0,0,0.98906274,-12.129473,6.5526994)"
     style="opacity:0.1"
     id="g12402">
    <path
       inkscape:connector-curvature="0"
       d="m 170.786,473.119 c -0.406,-0.188 -0.812,-0.375 -1.219,-0.562 -0.773,0.344 -1.531,0.719 -2.297,1.062 1.18,-0.156 2.351,-0.312 3.516,-0.5 z"
       id="path12396" />
    <path
       inkscape:connector-curvature="0"
       d="m 21.336,334.434 c 0,-55.249 29.897,-92.912 47.334,-109.24 C 83.92,210.898 110.295,117.759 159.676,94.478 156.238,92.853 152.692,91.556 149.02,90.666 92.693,104.369 63.647,209.898 47.335,225.194 29.906,241.522 0,279.185 0,334.434 c 0,53.093 40.71,133.997 141.043,140.31 0.148,0.031 0.273,0.031 0.406,0.031 1.875,0 3.711,-0.812 5.57,-1.656 C 57.874,459.963 21.336,384.746 21.336,334.434 Z"
       id="path12398" />
    <path
       inkscape:connector-curvature="0"
       d="m 150.536,473.619 c 1.484,0.625 2.969,1.156 4.484,1.156 0.133,0 0.258,0 0.406,-0.031 1.164,-0.062 2.32,-0.188 3.477,-0.281 -2.844,-0.219 -5.625,-0.5 -8.367,-0.844 z"
       id="path12400" />
  </g>
  <path
     inkscape:connector-curvature="0"
     style="fill:#ffce54;stroke-width:0.98906273"
     d="m 494.25976,349.41325 h -63.29804 -75.04415 -72.63379 -0.18594 -21.14024 -35.27294 -70.02069 c -0.52519,49.48381 82.27617,99.36817 84.23847,101.06837 27.70068,23.98477 40.09561,44.32188 114.55127,46.54728 1.66954,0.0613 3.32227,0.093 4.97597,0.093 76.14102,0 128.2666,-52.91485 133.55117,-133.83109 0.29474,-4.41912 0.27891,-13.87753 0.27891,-13.87753 z m -55.44685,96.27735 c -19.73478,19.84258 -46.84102,30.32073 -78.38223,30.32073 -1.39062,0 -2.78124,0 -4.17286,-0.0613 -0.0613,0 -0.12359,0 -0.17012,0 -27.24472,-0.83476 -46.59278,-4.14219 -60.88869,-10.4158 -12.16249,-5.34688 -20.27478,-12.76486 -30.55214,-22.09963 -3.12149,-2.87421 -6.36659,-5.81074 -9.92822,-8.90157 -1.22049,-1.05037 -2.18681,-1.6992 -4.30439,-3.08982 -6.33593,-4.14219 -25.59991,-16.81408 -43.1627,-33.62715 -10.00634,-9.6127 -17.63993,-18.85352 -22.63173,-27.29219 h 42.06483 35.27294 21.14024 0.18594 72.63379 75.04415 41.19842 c -3.52304,30.81524 -14.97342,56.68416 -33.34723,75.16678 z"
     id="path12404" />
  <path
     inkscape:connector-curvature="0"
     style="fill:#ffe7b0;stroke-width:0.98906273"
     d="m 360.43068,476.01133 c -1.51427,0 -3.06015,-0.0307 -4.57443,-0.093 -0.0306,0 -0.0613,0 -0.0929,0 -61.50685,-1.82383 -76.89767,-15.85567 -98.22383,-35.23537 -3.075,-2.8129 -6.27461,-5.74843 -9.73634,-8.71561 -0.6874,-0.61817 -1.26697,-0.98907 -3.18379,-2.25606 -42.88476,-28.18729 -69.79716,-56.77714 -76.0253,-80.29903 H 483.5651 c -0.0306,0.98904 -0.0613,1.9168 -0.10779,2.62695 -2.42617,37.21349 -15.28398,68.52226 -37.166,90.52792 -21.7584,21.88497 -51.46093,33.44418 -85.86053,33.44418 z"
     id="path12406" />
  <path
     inkscape:connector-curvature="0"
     style="fill:#edca8c;stroke-width:0.98906273"
     d="m 304.36367,349.41325 c 0,23.30431 23.61386,42.22111 52.75958,42.22111 29.11504,0 52.74375,-18.91582 52.74375,-42.22111 v 0 z"
     id="path12408" />
  <path
     inkscape:connector-curvature="0"
     style="fill:#434a54;stroke-width:0.98906273"
     d="m 346.55313,349.41325 c 0,5.84142 4.72772,10.53946 10.57012,10.53946 5.81074,0 10.53944,-4.69804 10.53944,-10.53946 v 0 z"
     id="path12410" />
</svg>
